<?xml version="1.0" encoding="UTF-8"?>
<svg id="_图层_2" data-name="图层_2" xmlns="http://www.w3.org/2000/svg" viewBox="0 0 542.27 542.27">
  <defs>
    <style>
      .cls-1, .cls-2 {
        fill: #0056a8;
      }

      .cls-3, .cls-4 {
        fill: #fff;
      }

      .cls-4, .cls-2 {
        fill-rule: evenodd;
      }
    </style>
  </defs>
  <g id="_图层_1-2" data-name="图层_1">
    <g>
      <path class="cls-2" d="M271.14,13.08C128.97,13.08,13.08,128.97,13.08,271.14s115.89,258.05,258.06,258.05,258.05-115.89,258.05-258.05S413.3,13.08,271.14,13.08ZM271.14,454.04c-100.74,0-182.9-82.16-182.9-182.9s82.15-182.9,182.9-182.9,182.9,82.16,182.9,182.9-82.16,182.9-182.9,182.9Z"/>
      <g>
        <path class="cls-3" d="M138.95,447.15c.92-.46,1.72-1.15,2.41-2.18,2.75-3.21,1.95-6.66-2.41-10.1l-4.47-3.56-2.41-1.95-.92,1.03c.8.69,1.15,1.26,1.15,1.84,0,.46-.46,1.26-1.26,2.3l-8.38,10.21c-.69.92-1.26,1.49-1.95,1.61-.69,0-1.26-.23-1.95-.8l-.8,1.03,2.75,2.18,4.59,3.79.8-1.03c-.8-.69-1.26-1.26-1.26-1.83-.11-.57.34-1.38,1.15-2.41l2.87-3.56.92.8c1.72,1.49,3.33,2.41,4.7,2.87,1.61.57,3.1.46,4.47-.23ZM130.69,443.36l-.92-.69,4.7-5.96,1.84-2.07,1.03.8c.69.57,1.26,1.26,1.61,1.95.46,1.03.46,2.07,0,3.21-.23.58-.57,1.15-1.03,1.72-1.15,1.26-2.18,2.07-3.44,2.18-1.15.23-2.41-.11-3.79-1.15Z"/>
        <path class="cls-3" d="M173.49,467c.23.12.57.23.8.34l.69-1.26-1.49-.8-4.25-2.29-.69,1.38c1.38.69,1.84,1.49,1.26,2.29-.8,1.03-2.29,2.41-4.13,4.13-.92.8-1.61,1.38-2.07,1.72.46-3.9.8-6.66,1.03-8.38.12-.23.23-.46.34-.8l.11-.11c.12-.46.69-.34,1.72.23l.69-1.26-7.11-3.79-.57,1.26c.92.57,1.38,1.49,1.15,2.87-.69,5.74-1.15,10.21-1.38,13.42-.11.23-.34.35-.69.69-.12.11-.23.11-.34.23-.8.69-1.49.92-1.95.69-.34-.23-.57-.46-.92-.92-.34-.57-.57-.92-.92-1.03-.34-.23-.8-.23-1.15,0-.23.11-.57.46-.8.92-.8,1.61-.57,2.75.69,3.56.12,0,.12.11.12.11,1.26.69,3.1.12,5.28-1.83l10.56-9.29c1.49-1.61,2.87-2.29,4.02-2.07Z"/>
        <path class="cls-3" d="M149.28,467.35c0-.46.23-1.15.92-2.18l3.44-5.39.11-.12c1.72-2.52,1.72-4.59-.11-6.2-.23-.23-.46-.46-.8-.69-1.84-1.15-3.67-1.26-5.62-.34l1.95-2.98c1.03-1.61,1.84-2.75,2.18-3.33.46-.69.92-1.26,1.15-1.61l-5.97-2.3-.69,1.03c.8.46,1.26,1.03,1.26,1.49,0,.57-.34,1.38-1.15,2.41l-6.88,10.79c-.12,0-.12.11-.12.11-.57.92-1.15,1.49-1.49,1.61-.46.12-1.03,0-1.84-.57l-.69,1.15,4.02,2.64,2.87,1.83.69-1.15c-.8-.46-1.15-.92-1.15-1.38s.23-1.26.92-2.18l2.75-4.13c2.07-2.29,3.9-2.98,5.62-2.18,1.15.57,1.15,1.95-.23,4.02l-3.44,5.39c-.69.92-1.26,1.49-1.61,1.72-.46.11-1.03,0-1.72-.46l-.8,1.03,7,4.59.69-1.15c-.8-.57-1.26-1.03-1.26-1.49Z"/>
        <path class="cls-3" d="M198.62,468.15c-1.38-.57-2.29-.12-2.98,1.38-.57,1.49-.12,2.52,1.15,3.1,1.26.46,2.29,0,2.98-1.38.46-1.49.11-2.52-1.15-3.1Z"/>
        <path class="cls-3" d="M197.7,475.26l-5.97-1.03-.46,1.03c.8.34,1.26.8,1.38,1.26.11.46-.12,1.26-.57,2.52l-2.41,5.74c-.46,1.15-.8,1.84-1.26,1.95-.34.23-1.03.23-1.83-.11h-.12l-.46,1.15.57.23,7.34,2.98.46-1.15c-.92-.46-1.38-.8-1.61-1.26-.11-.46,0-1.26.57-2.41l4.36-10.9Z"/>
        <path class="cls-3" d="M187.14,471.36h-.57c-.23,0-.46,0-.46-.11-.34-.12-.8-.46-1.38-.8-.69-.46-1.15-.8-1.49-1.03-3.21-1.38-5.51-.69-7.11,2.29-.8,1.72-.34,3.67,1.61,5.85,1.95,2.41,2.75,4.13,2.07,5.16-.46,1.03-1.49,1.15-2.98.46-1.83-.92-2.41-2.98-1.61-6.31h-1.38l-.34,1.15-1.49,4.02c.23.12.69.23,1.15.46.12,0,.23.12.34.23.34.11.69.46,1.15.8.69.46,1.26.8,1.72.92,3.1,1.38,5.39.69,6.88-2.18,1.03-1.84.46-4.02-1.72-6.43-1.61-1.95-2.18-3.33-1.72-4.25.57-1.26,1.49-1.61,2.87-1.03,1.49.57,1.95,2.41,1.38,5.74h1.26l1.26-3.33.57-1.61Z"/>
        <path class="cls-3" d="M115.55,422.48l2.18-2.07c1.26-1.26,2.18-1.61,2.64-1.03.34.35.12.92-.57,1.84-.69,1.03-.69,1.83.12,2.64.23.23.46.46.8.57.57.23,1.26.12,1.95-.57,1.26-1.38.92-3.1-1.03-5.16-.34-.23-.69-.58-.92-.8-2.06-1.61-4.13-1.61-6.08.12l-1.72,1.61-1.49-1.49-1.15,1.03,1.49,1.49-7.23,6.77c-.57.57-1.15,1.03-1.49,1.15-.23.11-.46.23-.57.23-.46,0-1.03-.23-1.61-.92l-.92.92,3.1,3.33,2.52,2.75,1.03-.8c-.69-.8-1.03-1.38-.92-1.84,0-.46.46-1.15,1.49-1.95l7.23-6.77,2.52,2.75,1.15-1.15-2.52-2.64Z"/>
        <path class="cls-3" d="M441.64,397.47c1.26.8,2.41.69,3.21-.46.23-.34.34-.69.46-.92v-.69c-.12-.57-.46-1.15-1.15-1.61-1.26-.8-2.41-.69-3.33.46-.69,1.15-.46,2.18.8,3.21Z"/>
        <path class="cls-3" d="M47.85,311.87c2.87-.23,4.93-2.41,6.2-6.54v-.11c1.03-3.67,2.41-5.39,4.13-5.28,2.07,0,3.33.92,3.67,2.75.34,2.29-1.49,4.24-5.62,5.96l.8,1.15,6.77-1.26c-.46-.57-.57-.92-.69-1.26,0-.35,0-.8.11-1.49v-1.38c.12-.92.12-1.49,0-1.83-.69-4.36-3.1-6.43-7.34-6.08-.69.12-1.26.23-1.84.46-1.84.8-3.1,2.41-3.79,5.05-1.15,4.13-2.75,6.2-4.7,6.31-2.07.12-3.33-.92-3.67-3.33-.46-2.64,1.49-4.71,5.85-6.08l-.69-1.15-7.11,1.15c.34.8.57,1.95.46,3.21v1.26c-.12,1.03-.12,1.61-.12,1.72.69,4.93,3.21,7.11,7.57,6.77Z"/>
        <path class="cls-3" d="M209.98,479.28c-4.71-1.26-7.8.92-9.41,6.2-1.38,5.05.23,8.26,4.93,9.87,2.52.8,4.93,0,7.23-2.29l-.92-1.03c-1.38,1.72-3.1,2.3-4.82,1.84-2.75-.8-3.44-3.44-2.18-7.92,1.15-4.13,2.75-5.97,4.82-5.28.92.11,1.26,1.15,1.15,3.1,0,1.15.46,1.95,1.49,2.29,1.26.23,2.06-.23,2.41-1.49.57-2.41-1.03-4.25-4.7-5.28Z"/>
        <path class="cls-3" d="M50.03,329.42c-2.18-.46-3.44-1.61-3.9-3.44-.69-2.64,1.26-4.59,5.85-5.62.69-.23,1.38-.35,2.07-.35,2.98-.46,4.59.23,4.93,1.95.23.8-.46,1.72-2.18,2.52-1.03.57-1.49,1.26-1.26,2.29.34,1.26,1.15,1.84,2.41,1.49,2.41-.69,3.21-2.98,2.41-6.65-.92-3.44-3.1-5.39-6.31-5.51-1.15-.11-2.41,0-3.79.23-4.93,1.26-7,4.36-6.2,9.18.57,2.52,2.41,4.25,5.51,5.16l.46-1.26Z"/>
        <path class="cls-3" d="M474.92,328.51c.23.12.46.23.69.35,1.49.23,2.52-.23,2.98-1.61.23-1.38-.34-2.29-1.84-2.75-.69-.12-1.26-.12-1.83.11-.46.23-.8.69-1.15,1.38-.23,1.15.11,2.06,1.15,2.52Z"/>
        <path class="cls-3" d="M79.98,396.09l15.6-9.75-4.59-4.47-1.03.69c.46.8.57,1.38.34,1.84-.11.46-.8,1.03-1.95,1.72l-10.44,6.54c-1.15.8-1.95,1.03-2.41,1.03-.46-.12-.92-.46-1.49-1.38l-.69.46-.34.23.34.57,4.13,6.65,1.15-.57c-.57-.92-.69-1.49-.57-1.95.23-.46.8-.92,1.95-1.61Z"/>
        <path class="cls-3" d="M103.04,419.84c3.56-3.56,4.02-7,1.26-10.56-.46-.57-.92-.92-1.26-1.38-1.61-1.26-3.44-1.84-5.28-1.61-1.61.34-3.33,1.15-5.16,2.64-3.9,3.44-4.36,7-1.26,10.9,1.95,2.29,4.13,3.21,6.43,2.87,1.49-.23,2.98-1.03,4.59-2.41.23-.11.46-.34.69-.46ZM99.6,416.97c-.57.57-1.26,1.03-1.84,1.49-2.41,1.61-4.13,1.72-5.28.57-1.49-1.61-.46-4.02,3.33-7.12.69-.57,1.38-1.03,1.95-1.49,2.41-1.72,4.13-1.84,5.28-.69v.11c.92,1.03.92,2.18,0,3.67-.69,1.03-1.84,2.18-3.44,3.44Z"/>
        <path class="cls-3" d="M76.76,385.19c4.7-2.75,6.08-6.31,3.9-10.44-1.84-3.21-4.25-4.59-7.34-4.01-1.26.23-2.64.69-4.13,1.49-2.75,1.61-4.25,3.56-4.36,5.85-.12.23-.12.57,0,.92,0,1.15.46,2.29,1.03,3.56,1.84,3.33,4.36,4.59,7.46,4.02,1.03-.23,2.18-.69,3.44-1.38ZM67.24,381.98c-1.15-1.83.34-3.9,4.59-6.2.46-.34,1.03-.57,1.49-.8,3.21-1.61,5.28-1.49,6.08.12,1.15,1.95-.46,4.02-4.82,6.31-.46.34-.92.57-1.26.69-3.1,1.49-5.16,1.49-6.08-.12Z"/>
        <path class="cls-3" d="M64.83,345.95c1.38-1.15,1.72-2.75,1.03-4.71-.23-.8-.57-1.49-1.03-2.06-.8-.92-1.72-1.49-2.98-1.84l2.98-.92.34-.12c1.84-.57,3.1-1.03,3.79-1.26.8-.23,1.49-.34,1.95-.46l-3.21-5.51-1.15.34c.23.92.23,1.49-.12,1.95-.23.34-.8.69-1.61,1.03-.23,0-.46.11-.69.11l-10.1,3.33-2.07.69c-1.15.34-1.95.46-2.29.34-.46-.23-.92-.69-1.15-1.61l-1.26.34,2.64,7.92,1.15-.46c-.23-.8-.23-1.38,0-1.84.34-.34,1.03-.69,2.07-1.03l.92-.23,3.9-1.38c2.98-.34,4.93.23,5.74,1.95.57,1.15-.34,2.18-2.75,2.98l-5.97,1.95c-.34.12-.69.23-.92.23-.69.23-1.15.23-1.49.11-.46-.11-.8-.57-1.03-1.49l-1.26.46,2.64,7.92,1.15-.34v-.35c-.23-.69-.23-1.26,0-1.72.23-.35.92-.8,2.06-1.15l6.2-1.95c1.03-.34,1.84-.8,2.52-1.26Z"/>
        <path class="cls-3" d="M67.58,367.86c5.05-2.41,6.65-5.74,4.82-10.21-1.61-3.56-4.13-5.05-7.57-4.47-1.15.11-2.29.57-3.56,1.03-4.71,2.18-6.08,5.51-4.25,10.1,1.72,3.56,4.25,5.05,7.8,4.48.8-.23,1.72-.46,2.75-.92ZM58.4,363.85c-.92-1.95.69-3.9,5.16-5.85.46-.23.8-.34,1.26-.57,3.56-1.37,5.62-1.26,6.31.57.92,1.95-.8,3.9-5.28,5.85-.34.23-.69.34-1.03.46-3.44,1.38-5.62,1.15-6.43-.46Z"/>
        <path class="cls-3" d="M432,426.96l-4.82-5.05c-1.49-1.49-2.29-2.64-2.41-3.21-.23-.8.12-1.61.92-2.41l-.92-.92-5.39,5.16,1.03.92c.92-.92,1.72-1.38,2.41-1.15.69.12,1.84,1.03,3.33,2.64l4.82,5.05c1.61,1.61,2.52,3.21,2.87,4.59.23.8.23,1.61,0,2.29-.23.8-.69,1.61-1.38,2.29-2.64,2.41-5.51,2.07-8.6-1.26l-6.54-6.77c-.92-.92-1.38-1.61-1.49-2.18,0-.57.23-1.15.92-1.84l-1.03-1.03-5.28,5.05-1.26,1.26,1.03,1.03c.12-.12.12-.23.23-.23,1.15-1.03,2.52-.69,3.9.8l7,7.34c3.67,3.79,7.46,3.79,11.47-.11.35-.34.69-.8,1.03-1.15,2.18-2.75,2.18-5.74,0-8.95-.46-.69-1.03-1.49-1.84-2.18Z"/>
        <path class="cls-3" d="M477.21,369.81c1.38,1.95,1.61,3.79.8,5.28-.69,1.38-1.72,2.07-3.1,2.18-1.26.12-2.87-.34-4.7-1.37l4.25-8.49c-3.33-1.61-5.97-1.84-7.92-.69-.92.57-1.72,1.49-2.29,2.75-1.72,3.56-1.03,6.54,2.29,8.95.57.46,1.26.92,2.07,1.37,2.41,1.15,4.59,1.49,6.31.92,1.72-.46,3.21-1.84,4.36-3.9,1.26-2.52.92-5.05-.92-7.58l-1.15.57ZM466.54,373.6c-1.26-1.15-1.72-2.29-1.15-3.33.23-.58.57-.92,1.15-1.03,1.03-.46,2.64,0,4.82,1.03l-2.52,4.93c-.92-.46-1.72-1.03-2.29-1.61Z"/>
        <path class="cls-3" d="M482.15,359.72l-.69-.23-4.24-1.61c-1.03-.57-1.72-1.15-2.3-1.72-.46-.57-.69-1.15-.8-1.83.12-.23.46-.34.8-.34h.11c.92.11,1.61-.34,1.95-1.26.34-1.26-.12-2.06-1.38-2.53-.23-.11-.46-.11-.69-.23-1.15-.11-2.06.46-2.64,1.72-.46,1.38,0,2.98,1.38,4.82l-2.75-1.03-1.03,5.85,1.15.46c.34-.8.69-1.26,1.15-1.38.46-.11,1.26.12,2.41.57l.34.12,5.74,2.18c.23.12.57.23.8.34,1.26.57,1.72,1.49,1.15,2.64l1.15.46,2.98-7.8-1.15-.46c-.57,1.61-1.72,2.07-3.44,1.26Z"/>
        <path class="cls-3" d="M462.18,383.93c-1.49-1.72-1.72-3.1-.92-4.36l-1.26-.8-3.44,5.51,1.26.8c.92-1.38,1.72-1.72,2.41-1.15,1.26,1.38,3.1,3.56,5.51,6.43.23.34.46.57.57.69l-8.83-2.07c-1.26-.23-1.61-1.03-.69-2.29l-1.26-.8-4.24,6.88,1.26.69c.46-.92,1.38-1.15,2.87-.92l11.13,2.41,1.84.46,1.26-2.18c-1.03-1.38-2.07-2.75-3.1-4.02-1.49-1.84-2.87-3.56-4.36-5.28Z"/>
        <path class="cls-3" d="M459.54,404.47c-.46,0-1.15-.34-2.18-1.03l-7.23-5.05-2.41-1.72-2.41,5.62.92.69c.57-.69,1.03-1.03,1.49-1.03s1.26.34,2.3,1.15h.12l5.05,3.56c.92.69,1.49,1.26,1.61,1.72.11.34,0,1.03-.57,1.84l1.03.69,4.82-7-1.03-.69c-.57.8-1.03,1.26-1.49,1.26Z"/>
        <path class="cls-3" d="M452.31,414.56c-.46,0-1.15-.34-2.07-1.15l-.11-.12-4.82-4.02c-2.75-2.29-5.05-2.29-7,.11-1.38,1.61-1.72,3.44-1.03,5.39l-2.29-1.72-1.15,2.29-1.61,3.21.92.8c.23-.34.46-.57.69-.69.35-.34.57-.34.8-.34.46,0,1.15.46,2.3,1.38l4.71,4.02c.92.8,1.37,1.38,1.49,1.84.12.46-.12,1.03-.57,1.61l.92.92,1.84-2.18,3.44-4.25-.92-.8c-.69,1.03-1.49,1.15-2.52.57-.34-.11-.69-.46-1.15-.8l-4.13-3.44c-1.72-2.07-2.07-3.9-1.15-5.51.8-1.15,2.18-.92,4.02.69l2.41,1.95,2.52,2.07c.92.8,1.38,1.38,1.49,1.84.11.46-.12,1.03-.69,1.72l1.03.8.46-.57,4.82-5.85-.92-.8c-.69.69-1.15,1.03-1.72,1.03Z"/>
        <path class="cls-3" d="M497.75,314.74c.46.8.69,1.38.57,1.83-.23,1.15-1.26,1.49-3.1,1.03l-9.52-2.18.69-3.33-1.49-.34-.69,3.33c-.46-.12-1.38-.34-2.75-.69-.11-.11-.23-.11-.34-.11-1.03-.23-1.61-.46-1.84-.46l-.34,1.49c1.03.46,1.84.92,2.52,1.38,1.26,1.03,1.84,2.29,1.49,3.67l1.49.34.34-1.49,10.44,2.41c2.41.46,4.02-.46,4.59-2.87.34-1.38.11-2.87-.8-4.47l-1.26.46Z"/>
        <path class="cls-3" d="M489.26,339.29c-1.95-.69-4.02.11-6.2,2.52-.57.69-1.15,1.15-1.61,1.49-1.03.8-1.83,1.03-2.41.8-1.38-.46-1.72-1.38-1.38-2.75.35-1.26,1.49-1.95,3.79-2.06.46-.12,1.03-.12,1.72-.12l-.11-1.15-1.61-.34-3.44-.92c-.12.23,0,.46,0,.69v.46c-.12.34-.35.8-.8,1.38-.35.69-.58,1.26-.69,1.61-1.15,3.33-.12,5.62,3.1,6.77.57.23,1.15.23,1.83.12,1.15-.12,2.41-.92,3.79-2.41,2.07-2.29,3.67-3.21,4.82-2.75,1.03.46,1.26,1.38.8,2.98-.69,1.95-2.64,2.75-5.97,2.41l.12,1.26,5.39,1.26c0-.23.12-.69.23-1.15.23-.46.46-1.03.8-1.72.46-.69.69-1.26.8-1.72.92-3.33,0-5.51-2.98-6.65Z"/>
        <path class="cls-3" d="M409.63,456.33c-.92.69-1.84.23-2.98-1.26l-5.74-7.92,2.64-1.95-.92-1.26-2.64,1.95c-.34-.35-.92-1.26-1.84-2.64-.34-.57-.69-1.03-.92-1.26,0-.11-.12-.11-.12-.23l-1.26.92c1.49,3.1,1.38,5.16-.23,6.43l.92,1.26.69-.57.46-.34,6.31,8.6c1.49,2.07,3.33,2.41,5.39.92.34-.23.69-.69,1.03-1.03.57-.8,1.03-1.72,1.26-2.87l-1.26-.46c-.23.92-.46,1.49-.8,1.72Z"/>
        <path class="cls-3" d="M504.64,303.72l-12.28-6.54c-2.64-1.03-3.79-2.29-3.33-3.9l-1.49-.11-.8,6.42,1.49.23c.23-1.61.8-2.3,1.72-2.06,1.15.46,2.98,1.26,5.28,2.41,1.03.57,1.84,1.03,2.41,1.26-3.79,1.03-6.54,1.72-8.26,2.06-.23,0-.46,0-.8-.12h-.23c-.34.12-.57-.46-.34-1.72l-1.49-.11-.92,7.92,1.38.12c.12-1.15.92-1.83,2.29-2.18,5.62-1.26,9.98-2.41,13.08-3.44.12.11.34.23.69.46.23.12.35.12.46.23.92.46,1.38,1.03,1.26,1.61,0,.23-.23.69-.57,1.15-.34.46-.46.8-.57,1.15-.12.92.46,1.38,1.61,1.61,1.72.11,2.75-.46,3.1-2.07.34-1.49-.92-2.87-3.67-4.36Z"/>
        <path class="cls-3" d="M494.77,329.31c-.34.12-1.15.12-2.29-.23l-11.02-2.98-.34-.11-.46,6.2.8.11.46.12c.23-.8.57-1.38,1.03-1.49.34-.12,1.26-.12,2.52.23l5.96,1.61c1.15.34,1.95.69,2.18,1.15.23.34.23.92,0,1.95l1.26.35,2.18-8.26-1.15-.34c-.34.92-.69,1.49-1.15,1.72Z"/>
        <path class="cls-3" d="M385.76,472.39c-.34.12-.69.23-.8.12-.23,0-.57-.34-.92-1.03l-3.9-7.23c-.57-1.49-1.49-2.41-2.64-2.64-1.15-.46-2.64-.11-4.47.92-3.44,1.95-4.7,4.13-3.79,6.2.46,1.15,1.38,1.38,2.64.92,1.15-.57,1.49-1.49,1.03-2.75-.69-1.49-.34-2.52.8-3.1.92-.46,1.95.34,3.1,2.29l.69,1.38c-5.28,3.1-7,6.08-5.16,9.06,1.26,2.18,3.1,2.87,5.16,2.07.23,0,.46-.12.69-.23,1.72-.8,2.75-2.06,3.1-3.9.58,1.15,1.38,1.38,2.18,1.03.57-.34,1.26-.8,2.29-1.61l.12-.11c.46-.35.8-.57,1.15-.69l-.57-1.03c-.23.11-.46.23-.69.34ZM378.76,475.95c-.46.23-.8.35-1.26.12-.57-.12-1.15-.8-1.83-1.84-1.15-1.83-.46-3.56,1.83-5.05.23-.12.46-.35.69-.46l1.15,2.18c1.03,2.52.8,4.13-.58,5.05Z"/>
        <path class="cls-3" d="M288.69,487.31h-.57c-5.05.46-7.34,3.56-6.88,9.41.46,4.82,2.98,7.34,7.46,7.23h.69c4.93-.46,7.23-3.44,6.77-8.84-.57-5.28-3.1-7.92-7.46-7.8ZM289.38,502.57h-.69c-1.72-.23-2.87-2.52-3.21-6.77-.46-4.71.46-7.12,2.52-7.23h.69c1.72.23,2.87,2.64,3.21,7,.35,4.36-.46,6.66-2.52,7Z"/>
        <path class="cls-3" d="M316.69,497.75c-.35-.23-.57-.92-.69-1.95l-1.49-7.34c-.23-1.26-.46-2.18-.46-2.87-.12-.69-.23-1.38-.23-1.95l-5.85,2.3.34,1.26c.8-.23,1.38-.12,1.61.23.34.23.57.8.8,1.95l.69,3.67c.23,3.44-.57,5.51-2.18,6.08-1.38.46-2.29-.57-2.64-2.98l-1.15-6.2c-.34-1.49-.46-2.41-.57-2.98-.12-.69-.23-1.15-.23-1.61l-5.85,2.18.34,1.38c1.26-.35,2.07.34,2.3,2.07l1.26,6.54c.69,3.21,2.41,4.59,5.16,4.13,1.84-.34,3.33-1.61,4.47-3.79.23,1.15.46,2.07.69,2.52l5.39-1.26-.23-1.26c-.8.11-1.26.11-1.49-.12Z"/>
        <path class="cls-3" d="M271.02,490.98c-3.44-1.61-4.93-3.21-4.47-4.82.34-2.18,1.38-3.21,3.33-3.21,2.06,0,3.79,2.07,4.82,6.31l1.26-.46-.23-6.88c-.57.23-1.03.34-1.26.34-.34,0-.92,0-1.61-.23h-.12c-.23-.11-.69-.11-1.15-.23-.8-.23-1.38-.34-1.72-.34-4.36,0-6.77,2.07-7.12,6.31-.23,2.87,1.26,4.93,4.59,6.54,3.79,1.72,5.51,3.56,5.39,5.51-.23,2.07-1.49,3.1-3.79,3.1-2.75,0-4.47-2.18-5.16-6.65l-1.26.34.12,7.34c.92-.23,1.95-.23,3.21,0,.34.11.8.11,1.26.23.92.23,1.49.35,1.72.35,4.82.11,7.34-2.07,7.69-6.43.23-2.87-1.61-5.28-5.51-7.11Z"/>
        <path class="cls-3" d="M236.25,495.92c-1.61-.23-2.64.46-2.98,2.07-.11,1.15.46,1.95,1.84,2.41.57.12.69.46.69.8-.23,1.03-1.26,1.72-3.1,2.41l.57.92c3.21-.92,5.05-2.52,5.51-5.05.23-2.07-.57-3.21-2.52-3.56Z"/>
        <path class="cls-3" d="M228.91,484.56c-.34-.12-.92-.34-1.61-.69-.69-.23-1.15-.46-1.61-.57-3.44-.92-5.51.34-6.42,3.56-.57,1.83.34,3.56,2.64,5.39,2.41,1.95,3.44,3.56,2.98,4.71-.23,1.03-1.26,1.38-2.87.92-1.95-.46-2.87-2.41-2.75-5.74l-1.26.23-.92,5.39c.23,0,.69.12,1.15.23.46.11,1.03.34,1.72.69.8.34,1.49.57,1.84.69,3.33.69,5.51-.46,6.42-3.56.57-1.95-.34-4.02-2.98-5.97-1.95-1.61-2.75-2.87-2.52-3.79.34-1.37,1.26-1.83,2.75-1.61,1.49.23,2.29,2.07,2.41,5.39l1.15-.23.92-5.16h-.57c-.23.12-.46.12-.46.12Z"/>
        <path class="cls-3" d="M330,494.31c-.34.46-.69.69-1.03.8-1.03.34-1.84-.46-2.29-2.29l-2.41-9.52,3.33-.8-.46-1.49-3.21.8c-.11-.46-.34-1.49-.69-3.1-.23-1.03-.35-1.61-.35-1.72l-1.61.35c.34,3.33-.57,5.28-2.64,5.85l.34,1.49,1.49-.34,2.64,10.33c.69,2.41,2.18,3.33,4.59,2.75.8-.12,1.61-.57,2.29-1.15.46-.46.92-.92,1.38-1.49l-1.03-1.03c-.12.23-.23.34-.35.57Z"/>
        <path class="cls-3" d="M364.08,483.18c-1.95.92-3.79.35-5.28-1.72-.57-.69-1.03-1.49-1.49-2.52l1.49-.69,7.23-3.33c-1.95-4.02-4.36-5.74-7.23-5.39-.69.11-1.38.34-2.18.69-4.25,2.07-5.16,5.74-2.87,10.9,1.26,2.64,2.98,4.25,5.05,4.82,1.49.34,3.21.11,5.16-.69,2.52-1.15,3.79-3.33,3.9-6.42l-1.15-.23c-.23,2.29-1.15,3.9-2.64,4.59ZM357.08,471.59c.57-.34,1.15-.34,1.72-.12.92.46,1.95,1.72,2.98,3.79l-2.98,1.49-2.07.92c-1.38-3.33-1.26-5.28.34-6.08Z"/>
        <path class="cls-3" d="M397.24,459.89c-1.15-1.03-2.98-1.38-5.51-.92-2.52.34-4.01.11-4.59-.8-.69-1.15-.46-2.06.8-2.98,1.15-.92,2.98-.34,5.51,1.83l.69-.92-3.21-4.25c-.12.12-.23.34-.35.46-.11.23-.23.34-.34.46-.23.11-.69.34-1.38.69-.8.23-1.26.46-1.61.69-.57.46-1.15.8-1.49,1.26-1.61,1.6-1.72,3.67-.34,5.97.12.12.23.23.34.46,1.03,1.26,2.87,1.72,5.39,1.26,3.1-.46,4.93-.11,5.51.92.57.92.23,1.83-1.26,2.75-1.72,1.15-3.79.57-6.08-1.84l-.69,1.03,3.33,4.48c.23-.23.57-.57.92-.8.46-.23.92-.46,1.72-.8.8-.34,1.38-.57,1.72-.92.34-.23.69-.46.92-.69,1.95-1.83,2.29-3.9.92-6.31-.23-.34-.57-.69-.92-1.03Z"/>
        <path class="cls-3" d="M350.08,488.34c-.46-.23-.8-.8-1.15-2.07l-2.18-6.2c-1.03-3.33-3.1-4.47-5.97-3.44-2.06.69-3.33,2.07-3.79,4.13l-1.15-3.21c-.57-1.95-1.03-3.21-1.26-3.9-.23-.8-.46-1.38-.57-1.84l-4.02,2.41-1.38.92.34,1.15c.34-.23.69-.23,1.03-.23.35-.12.69,0,.92.23.46.23.8,1.03,1.26,2.29l4.13,12.05c.46,1.15.57,1.95.34,2.41-.12.34-.57.8-1.49,1.03l.34,1.26,7.8-2.64-.34-1.26c-.92.34-1.49.34-1.83,0-.46-.23-.8-.92-1.15-2.07l-1.6-4.7c-.46-2.98.11-4.93,1.72-5.74,1.26-.57,2.3.34,3.1,2.64l2.07,5.97c.35,1.15.46,1.95.35,2.41-.12.46-.58.8-1.38,1.03l.35,1.26,7.92-2.75-.46-1.15c-.92.23-1.61.23-1.95,0Z"/>
      </g>
      <g>
        <polygon class="cls-2" points="416.29 185.08 298.22 185.08 287.54 185.08 125.99 185.08 206.77 326.1 271.14 438.43 290.99 403.66 265.97 359.95 185.19 218.93 278.82 218.93 346.75 218.93 357.08 218.93 302.07 314.96 290.64 295 277.51 272.05 278.02 272.05 285.48 272.05 302.81 272.05 304.64 268.96 322.2 238.32 304.76 238.32 294.66 238.32 275.95 238.32 265.86 238.32 241.88 238.32 218.35 238.32 222.58 245.68 231.43 261.27 302 384.5 319.67 353.7 321.97 349.74 321.96 349.72 335.51 326.1 416.29 185.08"/>
        <g>
          <path class="cls-1" d="M361.55,171.77h17.67c-23.62-25.52-56.12-42.77-92.43-46.67-2.58-6.12-8.66-10.48-15.66-10.48s-13.08,4.36-15.66,10.48c-36.31,3.89-68.81,21.14-92.43,46.67h17.67c20.28-18.43,46.06-30.76,74.56-34.14,2.45,6.41,8.66,10.96,15.86,10.96s13.41-4.55,15.86-10.96c28.5,3.38,54.28,15.71,74.56,34.14Z"/>
          <path class="cls-1" d="M160.24,347.57c2.53-2.96,4.07-6.81,4.07-11.03,0-9.29-7.57-16.98-16.98-16.98-.64,0-1.27.04-1.89.11-5.81-15.01-9.02-31.3-9.02-48.31,0-11.7,1.61-23.06,4.36-33.85l-8.49-14.69c-5.28,15.15-8.26,31.55-8.26,48.54,0,19.13,3.71,37.41,10.41,54.2-2.54,2.97-4.09,6.81-4.09,10.98,0,9.41,7.69,16.98,16.98,16.98.63,0,1.25-.04,1.86-.1,21.61,31.99,55.44,55.11,94.76,62.52l-8.49-14.8c-30.93-8.53-57.42-27.84-75.21-53.57Z"/>
          <path class="cls-1" d="M418.24,271.37c0-16.98-2.98-33.39-8.26-48.54l-8.49,14.69c2.75,10.79,4.36,22.15,4.36,33.85,0,17.01-3.2,33.29-9.01,48.31-.62-.07-1.25-.11-1.88-.11-9.41,0-16.98,7.69-16.98,16.98,0,4.22,1.54,8.07,4.07,11.03-17.78,25.73-44.28,45.04-75.21,53.57l-8.49,14.8c39.31-7.41,73.14-30.54,94.75-62.52.61.07,1.23.1,1.86.1,9.29,0,16.98-7.57,16.98-16.98,0-4.17-1.55-8-4.09-10.98,6.69-16.79,10.41-35.07,10.41-54.2Z"/>
        </g>
      </g>
      <path class="cls-2" d="M271.14,0C121.86,0,0,121.86,0,271.14s121.86,271.14,271.14,271.14,271.14-121.86,271.14-271.14S420.42,0,271.14,0ZM271.14,536.31C125.07,536.31,5.97,417.2,5.97,271.14S125.07,5.97,271.14,5.97s265.17,119.1,265.17,265.17-119.1,265.17-265.17,265.17Z"/>
      <g>
        <g>
          <path class="cls-4" d="M403.89,73.55c-1.49-2.52-2.87-5.16-4.47-7.69-.34-.57-1.03-1.03-1.72-1.49-1.15-.8-2.29-1.15-3.56-1.15-.92-.12-2.06.11-3.1.46-.46.11-.92.23-1.38.34-2.07.69-4.25,1.38-6.43,2.06-.11.12-.23.12-.34.12-.57-1.38-1.15-2.75-1.84-4.48-.11.57-.23.92-.34,1.15-.57,2.07-.92,4.13-1.84,5.97-1.61,3.44-1.49,6.77.35,10.1.34.57,1.03,1.03,1.72,1.38.23.23.57.23.92.34-.35,1.26-1.03,1.61-2.18,1.61-2.18,0-4.36,0-6.54.23-1.26.11-1.49.92-.92,1.95.23.34.69.69.92,1.15.57,1.15,1.15,2.29,1.72,3.56-.12.11-.23.23-.34.34-1.26-.11-2.52-.11-3.67-.11-1.61-.12-2.29.57-2.52,1.84-.23,2.41.11,3.44,1.61,3.79.8.23,1.61.46,2.41.57,3.9,1.03,7.8,1.84,10.9,4.7.34.34.8.69,1.15,1.15.23.34,1.15.46,1.61.23.34,0,.57-.8.57-1.26,0-2.75-1.26-4.59-3.33-5.74-.57-.34-1.15-.69-1.72-.92-.46-.23-.92-.46-1.49-.92,1.03-.8,2.07-1.38,3.21-1.84.57-.11,1.15-.34,1.72-.46.46-.11,1.26-.23,1.38-.57.57-1.49,1.03-3.1,1.15-4.7,0-.46-1.03-1.15-1.72-1.72.57-2.18,1.38-2.41,3.33-1.03.11.11.34.23.57.34.34.11.8.11,1.03,0,1.15-.46,2.3-1.03,3.44-1.61.69-.46,1.38-.8,2.07-1.15,2.41-1.38,4.59-2.98,7-4.36,1.03-.57,1.38-1.03.69-2.18ZM383.24,68.5h-.34c.11.23.23.34.34.57.92,1.26,1.61,2.41,2.41,3.44.57.69.46,1.03,0,1.49-.69.8-1.49,1.26-2.41,1.38-1.15.23-2.41-.11-3.79-1.03.92-2.29,2.07-4.7,3.79-6.54.23-.34.46-.57.69-.8,1.72-1.49,3.67-1.72,5.74-1.61.46,0,.8,0,1.26.11-.23,1.72-.46,2.52-1.26,2.87-.46.23-1.15.34-2.3.34-1.26,0-2.52-.12-4.13-.23ZM398.96,71.94c-1.38,1.38-2.64,2.64-4.13,3.9-.23.12-.46.34-.69.46-1.38.92-2.87,1.38-4.47,1.26-.35,0-.69,0-.92-.12-.11-.11-.23-.23-.23-.46.34-.12.8-.34,1.15-.46,1.38-.69,2.75-1.38,4.13-1.95.12,0,.23-.11.34-.34.57-.57.8-1.84.12-2.64,0,0,0-.11-.12-.11-.92-1.15-.34-2.18,0-3.21.23-.46.35-.8.46-1.26,0-.11.23-.34.35-.34.92-.46,3.79.34,4.36,1.15.92,1.15.8,2.98-.34,4.13Z"/>
          <path class="cls-4" d="M372.34,75.62c-1.38.57-2.75,1.03-4.13,1.61-.12-.23-.23-.46-.34-.69.34-.46.57-.92.92-1.38.92-1.03,1.84-2.06,2.87-2.98.92-.92,1.38-1.84,1.26-2.98-.23-1.03.23-1.72.92-2.41,1.95-1.61,3.67-3.21,5.51-4.93.34-.34.57-1.03.46-1.38-.69-1.72-1.49-3.44-2.41-5.05-.46-.57-1.49-1.15-2.18-1.03-1.84.11-3.56.57-5.39,1.03-.35,0-.8.57-.8.8,0,2.87,1.72,4.13,4.7,3.33-1.03,1.72-1.95,3.33-2.87,4.93-.57,1.15-1.38,1.26-2.52,1.26-1.26-.12-2.52-.12-3.79-.12-.69,0-1.38.12-2.18.12-1.95.23-2.87,1.84-2.29,3.67.23.92.69,1.72,1.03,2.64.46,1.03.8,2.07,1.38,3.33-1.49.11-2.64.46-3.9.57-2.41,0-3.67,1.72-4.47,3.56-.8,1.84-.11,2.98,1.72,2.64,2.87-.46,5.85-1.03,8.72-1.72,1.38-.23,2.75-.57,4.02-.92,1.84-.46,2.98-1.95,3.79-3.9ZM364.54,72.17q-.12.11-.23.23c-.12.11-.69-.11-.8-.34-.57-.57-.92-1.38-1.49-2.29h4.82c.11.23.11.34.23.46-.8.69-1.61,1.38-2.53,1.95Z"/>
        </g>
        <path class="cls-4" d="M499.02,181.41c-.92,1.84-1.72,3.44-2.52,5.05-1.03-.46-2.07-1.03-2.99-1.49.12.8.23,1.38.35,2.06.12.69.23,1.38.34,2.07-2.29-2.98-5.97-5.16-6.08-9.64-1.61,1.26-3.1,1.49-4.82,1.03,1.26-1.84,2.75-2.98,5.05-2.87.46.11,1.03,0,1.61,0,2.18-.23,3.67-1.26,4.48-3.33.69-1.61.69-1.84-.92-2.64-2.64-1.26-5.39-2.18-7.69-4.93-.23,1.95-.46,3.56-.69,5.05,0,.46-.12,1.15-.46,1.38-1.38,1.38-2.87,2.52-4.25,3.79-.92.8-1.95.92-3.44.34.8-1.26,1.61-2.41,2.29-3.44.46-.57,1.03-1.15,1.38-1.84.46-.92.11-1.49-.8-1.49-1.26-.11-2.64-.23-3.79.23-5.51,1.84-10.9,4.02-16.41,5.85-3.21,1.03-5.74,2.87-7.92,5.39-.57.57-.8,1.38-1.49,2.41,1.26,0,2.07.11,2.87,0,2.87-.57,5.74-1.15,8.6-1.72,3.67-.69,7.23-1.49,10.79-2.29-4.02,0-8.03,0-12.05.11-.69,0-1.26-.11-1.84-.34,5.62-3.56,12.16-4.02,18.36-5.51.11.11.23.23.23.34-1.49,1.72-3.1,3.56-4.71,5.39,0,.57,0,1.15-.11,1.72h6.43c-.92.69-1.49,1.15-2.18,1.72v.34c1.72.11,3.44.34,5.17.46,2.29,0,4.24.8,5.74,2.52.92,1.15,2.07,2.18,3.1,3.21,2.18,2.41,4.36,4.82,6.77,7.57-2.98-.69-5.51-1.15-8.03-1.72.46-4.48-4.24-8.38-8.95-8.84-.34.8-.57,1.72-.92,2.75-.57-.34-1.03-.57-1.49-.92-1.38-.8-2.75-1.72-4.25-2.52-2.07-1.03-4.82.57-5.05,2.87-.12.69.11,1.49.23,2.64-.92-.57-1.72-1.03-2.52-1.26-2.29-1.03-4.7-1.95-7.11-2.75-.57-.12-1.38.34-2.07.57.34.46.57,1.15,1.03,1.38,2.29,1.49,4.7,2.75,7.12,4.13,2.41,1.38,4.82,2.75,7.57,4.25-.8.11-1.15.23-1.49.23-2.29,0-4.59,0-7,.11-2.18.11-3.79,1.26-4.25,3.44-.34,1.26-.46,2.64-.34,3.9.46,6.08,4.13,10.56,7.46,15.26,3.56-2.41,7-4.59,10.79-7-2.75.23-5.16.46-7.57.46-.92,0-1.95-.34-2.52-1.03-2.52-2.52-3.9-5.74-4.59-9.18-.34-1.72.34-2.41,1.95-2.18,2.87.23,5.62.46,8.38.92,1.49.23,2.29-.46,2.87-1.72.12-.23.35-.46.46-.8.46.23.92.46,1.38.69,2.07,1.15,4.13.23,4.82-2.07.11-.69.11-1.26-.57-1.95-1.95-1.84-3.79-3.79-5.74-5.62-.35-.46-.8-.92-1.26-1.38,2.75,1.72,5.39,3.67,8.03,5.51,1.03.8,2.18,1.61,3.56,1.38.23-.11.69.11.8.34,2.18,1.84,4.25,3.79,6.2,5.74.8.8,1.49.92,2.18.34.8-.57,1.61-1.26,2.06-2.18.57-1.03.69-2.29,1.15-3.44.34-.92.12-1.72-.57-2.52-.92-1.15-1.72-2.29-2.64-3.56,2.06-.11,4.24-1.61,4.59-3.21.69-2.75-.11-5.16-2.06-7.57Z"/>
        <path class="cls-4" d="M465.28,116.46c-.23-1.26-.8-2.41-1.26-3.56-.11,0-.23,0-.34.12.23,1.72-.57,3.1-2.64,3.44-2.87.57-5.85.8-8.83,1.03-.46.11-.92-.12-1.72-.34.69-.34,1.03-.57,1.38-.8,1.72-.8,3.44-1.61,3.9-3.79,0-.23.57-.57,1.03-.69,1.03-.23,2.18-.57,3.21-.8v-.46c-1.49,0-3.1-.11-4.48-.11-.34-1.49-.69-2.64-1.15-4.02-.35.46-.57.69-.69.8-1.26,3.1-2.52,6.2-3.9,9.18-.12.34-.57,1.03-.8,1.03-2.29-.34-4.7-.8-7-1.15-.12-.23-.12-.34-.23-.57,2.75-2.98,5.51-5.97,8.15-8.95h-3.33c-.23-.8-.34-1.38-.57-2.52-2.53,2.87-4.7,5.39-6.88,7.92-1.38-1.61-3.21-2.18-5.16-2.29-1.72-.11-3.21,0-4.82.34-1.61.34-3.21.8-4.93,1.15-.12.11-.46.23-.57.34-1.38,2.18-2.75,4.47-4.13,6.65.12.11.23.23.35.34.57,0,1.15,0,1.61-.23,1.37-.34,2.64-.8,3.9-1.38,1.26-.57,2.52-.92,3.79-1.03,1.84-.23,3.79,0,5.62.8,3.33,1.38,6.89,2.18,9.75,4.36,1.61,1.15,3.44,1.84,5.16,2.75,1.95,1.26,3.79,2.64,4.93,4.36-2.52-.23-5.16-.46-7.8-.57-.34-.12-.57-.23-.8-.46-2.53-1.72-5.05-3.44-7.46-5.39-1.61-1.15-2.98-.92-4.48-.23-.92.46-1.61,1.15-1.37,2.18.23.57.92,1.26,1.49,1.49,1.95.92,4.01,1.61,6.08,2.29v.46c-.8,0-1.72.23-2.52.12-2.29-.69-4.25-.46-5.39,1.84-1.15-.46-2.18-.92-3.21-1.38-1.72-.69-3.44-1.38-5.16-2.07-.92-.34-2.07-.57-3.1-.69-1.15-.11-1.84.46-2.06,1.84-.35,3.56-.8,7.23-1.15,10.79-.11,1.15.12,2.29.23,3.33.23,1.49,1.03,2.18,2.52,2.06,1.15-.11,2.3-.11,3.33-.23,1.84-.34,3.67-.69,5.39-1.15,1.84-.57,3.67-1.26,5.39-2.18.46.46.69.8,1.15,1.15,1.49,1.38,2.64,1.26,3.9-.46,1.49-2.18.92-5.16-1.26-7.23-.57-.46-1.03-.92-1.84-1.61h6.65c1.38,0,2.87.23,3.67-1.49.57.57,1.03,1.03,1.61,1.38,1.72,1.26,3.44,2.52,5.17,3.79.92.69,1.83.34,2.52-.34.46-.46.8-1.26.69-1.84-.23-1.84-.69-3.67-1.15-5.51-.46-1.95-.92-3.9-2.64-5.16-.23-.12-.34-.46-.57-.92,1.49-.23,2.75-.23,4.13-.46,1.95-.34,3.9-.46,5.85-1.03,1.95-.57,3.1-2.29,2.87-4.24ZM433.27,136.43c-1.03-.23-2.18-.34-3.44-.57.57.57,1.03,1.03,1.72,1.72-.8.34-1.61.8-2.41,1.15-1.83.69-3.79,1.26-5.85,1.03-.8-.11-1.72-1.15-2.06-1.95-.8-2.06-1.38-4.25-1.95-6.43-.34-1.15.35-2.18,1.49-2.52,1.61-.46,3.21-.23,4.7.92,1.26.92,2.41,1.84,3.67,2.64.46.34.92.69,1.38,1.03,1.03.8,1.95,1.49,2.98,2.18-.12.23-.12.46-.23.8Z"/>
        <path class="cls-4" d="M326.21,50.83c-3.44-2.29-7.11-3.79-11.02-4.59-1.03-.34-2.07-.46-3.21-.69-.23,0-.46-.12-.92-.23,1.49-1.26,2.87-2.41,4.13-3.56.23-.23.46-.34.57-.57.34-.23.69-.92.57-1.15-.34-.69-.69-1.38-1.15-2.07-.46-.8-.92-1.49-1.38-2.18-.8-1.15-1.95-1.49-3.44-1.38h-.12c.12.46.12.8.12,1.26v.34c0,2.06-1.03,3.67-2.41,5.16-1.95,1.95-3.9,3.79-5.85,5.51-.8.69-1.61,1.15-2.41,1.61-.57.46-1.26.8-1.95,1.26,0-.69.12-1.26.23-1.61.46-1.15,1.03-2.18,1.72-3.1.92-1.26,1.95-2.29,3.1-3.44.69-.57.8-1.26.69-2.18-.23-1.38-.11-2.87-.23-4.25,0-.92.23-1.95-.23-2.75-.57-1.26-1.49-2.41-2.52-3.56-.23-.23-.57-.46-.8-.57-.8-.34-1.61.12-1.95,1.38-.11.46-.23.92-.34,1.38,1.15-.23,1.15.34,1.15,1.03,0,3.33-.92,6.08-4.36,7.34-.8.23-1.38.46-2.06-.34-1.26-1.49-2.64-2.75-3.9-4.02-.35,1.49-.35,3.1-.92,4.36-.8,1.61-2.07,2.87-3.1,4.25-.23.46-.57.92-.46,1.26.34,1.38.8,2.75,1.26,4.02.34,1.03,1.03,1.49,2.18.92,1.95-.92,4.01-1.84,5.97-2.75.46-.23.8-.34,1.49-.69-.69,1.84-1.15,3.33-1.72,4.7-.23.46-.69.8-1.03.92-2.29,1.03-4.59,2.06-7,2.87-1.49.57-1.95,1.49-1.49,2.87,0,.34,0,.8.12,1.03,1.61,4.13,3.1,8.15,4.82,12.16.69,1.49,1.95,2.75,2.87,4.13h.46c.46-.92.92-1.95,1.26-2.87.23-.92.12-1.95.35-2.87.69-3.9,1.72-7.8,2.18-11.7.35-2.98,2.52-4.02,4.25-5.85v.23c.34.92.46,1.72.8,2.52,2.18-1.03,4.25-1.95,6.43-2.98-2.3,3.1-4.59,5.97-7.11,8.61l-.12.11c-1.72,1.72-1.03,3.44-.34,5.62.12-.12.23-.23.34-.34,1.72-1.49,3.33-2.87,4.93-4.25.46,1.95.34,3.67-1.61,4.82-.69.34-1.15.92-1.84,1.38-.46.34-.92.8-1.49,1.15-1.03.8-2.29,1.72-3.56,2.75,1.26-.12,2.52-.34,3.56-.69,2.18-.57,4.02-1.61,6.08-2.41,1.03,3.21,1.95,6.31,4.25,8.83.12-.12.23-.23.34-.34.34-.23.69-.46.92-.8,1.26-1.26,2.64-2.64,3.9-4.02,2.75-2.75,5.51-5.62,8.15-8.61,1.84-1.95,3.21-4.13,4.47-6.43,1.61-2.87,1.26-4.24-1.61-5.97ZM289.73,66.78c-.12.12-.23.12-.35.12-1.15-1.72-2.18-3.44-3.44-5.28,1.83-1.61,3.67-3.1,5.62-4.82-.69,3.56-1.26,6.77-1.84,9.98ZM323,53.93c-.23,1.03-.57,2.18-1.15,3.1-1.95,3.33-4.02,6.54-6.66,9.41-.46.69-1.03,1.26-1.61,1.84-1.38,1.38-2.18,1.84-3.21,1.49-.46-.23-1.15-.69-1.95-1.49-.35-.46-.69-.8-1.03-1.26,1.03-1.03,2.07-2.07,2.98-3.1,1.61-1.49,3.1-2.98,4.7-4.59l.11-.11c.46-.57,1.03-1.03,1.38-1.49.46-.8,1.38-1.72,1.26-2.29-.46-1.26-1.38-2.41-2.3-3.56-.11,0-.23-.12-.34-.12-.46-.23-1.03-.23-1.72-.34-.11-.57-.34-1.15-.57-1.95.8,0,1.61.12,2.29.12,1.95.11,3.79.23,5.62.46,1.49.23,2.52,2.18,2.18,3.9Z"/>
        <path class="cls-4" d="M125.3,128.05c-3.33-4.13-7-8.15-9.41-12.97-.12-.23-.57-.46-.8-.46-5.05.23-9.87,1.26-12.62,6.2-.46.69-.92,1.38-1.38,2.07-.92-.8-1.95-1.26-2.98-1.26-.8,0-1.49.11-2.29.34-.8.23-1.26.69-1.38,1.49-.11.92-.34,1.95-.57,3.21-1.26-1.95-2.75-3.44-1.61-5.85,1.03-2.06,1.61-4.25,2.29-6.43.11-.34,0-.8,0-1.15-.34,0-.8-.12-1.26,0-.57.11-1.15.34-1.72.57-1.95,1.03-3.79,2.18-5.97,3.33-.46-.69-.92-1.49-1.49-2.18-.46-.57-1.03-1.15-1.72-1.38-1.95-.8-5.62.23-7,1.84-.92,1.03-1.03,2.18-.69,3.56.46-.57.92-1.03,1.61-1.72,1.61,1.26,3.1,2.52,4.59,3.67,1.49,1.15,1.84,2.3,1.03,4.02-1.38,2.64-2.29,5.39-3.56,8.26,2.18-.11,4.36-.11,6.42-.34.8-.11,1.61-.92,2.18-1.49.69-.69,1.03-1.49,1.72-2.52,1.49,3.33,2.98,6.42,4.47,9.52.12.34,0,.92-.11,1.26-.69,2.64-.46,5.05,1.03,7.23.11.23.11.46.34.8-1.61-.57-2.87-1.03-4.36-1.61.46-.57.69-.92,1.03-1.38-1.84.57-2.07.92-2.29,2.87-.23,1.38.8,1.72,1.72,2.06,2.87,1.03,5.28,2.75,7,5.16.23.23.34.34.57.57.11.12.34.23.57.34,2.29.69,4.7,1.38,7,1.95.12-.11.34-.23.46-.34-.34-.69-.57-1.49-1.15-1.95-2.29-1.84-4.59-3.44-6.88-5.16-.34-.12-.57-.34-.8-.57-.57-.46-1.26-1.15-1.38-1.84-.57-2.64.12-5.28,1.03-7.8.46.12.8.23,1.15.34,1.72.69,1.84,1.03,2.64,3.21.11.23.23.46.34.69.69,1.26,1.72,1.38,2.41.11.92-1.38,1.72-2.87,2.64-4.59,0,.46.11.69.11.92.34,1.72.12,3.33-.57,5.05-.57,1.49.12,2.52,2.06,3.33,1.26.46,1.95.11,2.64-1.38.34-.69.69-1.38,1.03-1.95,2.41,1.61,4.48,3.79,8.03,3.44-.46-.8-.57-1.38-.92-1.84-1.26-1.84-2.41-3.67-3.79-5.39-1.03-1.15-1.15-2.18-.23-3.44.8-.92,1.03-2.18,1.61-3.44-2.75-.46-4.93.12-6.77,2.07-.23-2.41-.46-4.48-.8-6.66-.34-1.95-1.95-2.52-3.56-1.49-.34.23-.57.46-.92.69-.57-1.49-1.15-2.87-1.61-4.25-.11-.23-.11-.69.12-.8,1.38-1.84,2.75-3.56,4.25-5.16,2.06-1.95,3.44-1.03,4.82.23,1.26,1.15,2.29,2.41,3.44,3.67,2.87,3.21,5.62,6.65,7.46,10.67.69,1.26.57,1.95-.8,2.75-1.26.8-2.64,1.49-4.13,2.29-.57.34-1.15.57-1.72.92,3.9.34,7.8.34,11.7.46.57,0,1.03-.12,1.15-.92.11-4.25-.69-8.15-3.44-11.47ZM96.38,130.69c-2.18-2.98-2.18-3.67,0-5.97,2.07,2.18,2.18,3.44,0,5.97Z"/>
        <path class="cls-4" d="M245.2,41.19c-2.07-.69-4.13-1.38-6.2-1.95-1.49-.34-3.1-.69-4.59,0-.34.23-.8.11-1.38.11.46-1.26.92-2.18,1.26-3.21.8-1.95,1.84-4.02,2.41-6.08.69-3.56-2.52-6.2-5.97-5.05,1.61.69,2.3,2.07,1.61,4.02-.92,2.64-2.07,5.16-3.21,7.8-.23.57-.8.92-1.26,1.49-.23-.69-.12-1.15-.12-1.61-.23-1.38,0-3.1-.69-4.02-1.26-1.49-.8-2.64-.34-3.9.12-.57.34-1.15.46-1.61-.12-.12-.34-.23-.46-.34-.69,1.15-1.38,2.3-2.07,3.21-.12.23-.23.46-.34.69-1.38-.34-2.52-.69-4.02-1.03.34.69.46.92.57,1.15,1.26,1.72,2.52,3.33,3.79,5.05.8,1.03,1.49,1.95,2.18,2.87.23.34.46,1.03.34,1.26-.8,1.03-1.61,2.06-2.52,3.1-.69.8-1.38,1.61-2.07,2.52-.92-2.29-1.84-4.13-2.41-6.08-.69-1.95-1.03-3.9-1.61-5.97-.69,1.15-1.26,2.18-1.84,3.1-.8-.23-1.38-.46-1.95-.57-.12.12-.23.23-.35.23,1.15,3.21,2.18,6.31,3.33,9.52-2.18.46-3.79,1.72-4.59,3.44-1.38,2.98-2.41,5.97-3.44,9.06-.12.23-.12.57,0,.8,1.15,2.18,2.41,4.48,3.67,6.77.12,0,.34-.11.46-.11.23-.46.46-1.03.57-1.49.35-1.49.58-2.98.8-4.36.34-3.1,1.61-5.85,4.13-7.8,1.84-1.38,3.44-2.98,5.28-4.36,1.15-.8,2.18-1.49,3.44-2.07,1.61-.69,3.1-1.95,4.7-2.87,2.18-1.26,4.47-2.29,6.54-2.52-1.38,2.06-2.87,4.36-4.36,6.54-.12.23-.46.46-.69.57-2.87,1.26-5.74,2.64-8.61,4.02-.34.11-.69.34-1.03.69-.92.92-1.38,2.29-1.03,3.67.11.8.57,1.26,1.03,1.49.57.11,1.15,0,1.72-.34.69-.46,1.38-1.03,1.95-1.49,1.15-1.03,2.41-2.07,3.56-2.98.12.11.23.11.34.23-.46.8-.69,1.72-1.26,2.29-1.72,1.61-2.52,3.44-1.03,5.62-1.84,1.38-3.56,2.64-5.28,3.9-.57.57-1.26,1.03-1.84,1.61-.92.69-1.61,1.72-2.29,2.75-.57.8-.34,1.49.46,2.06,1.26.92,2.52,1.84,3.67,2.75,1.15.8,2.18,1.61,3.21,2.41,1.49,1.03,2.98,1.95,4.59,2.75,1.95.8,2.87.46,3.79-1.38.46-1.03.92-1.95,1.26-2.98,1.38-3.44,2.29-7,2.41-10.67.57-.12,1.03-.23,1.61-.34,1.95-.69,2.41-1.72,1.49-3.67-1.15-2.41-4.13-3.44-7.11-2.41-.57.12-1.15.34-2.07.69,1.26-2.06,2.3-3.9,3.33-5.74.69-1.26,1.72-2.41.69-3.79,2.64-1.15,5.05-2.29,7.57-3.44.92-.46,1.26-1.26,1.15-2.29,0-1.03-.69-1.49-1.38-1.72ZM235.45,62.3c.23,1.84-.92,2.41-1.72,3.33.69-.11,1.38-.34,2.18-.46-.12,2.64-.57,5.16-1.61,7.57-.57,1.26-1.72,1.61-2.87,1.38-2.18-.34-4.47-.8-6.77-1.38,0-.11-.12-.11-.23-.11-1.15-.34-1.61-1.49-1.38-2.52.34-1.15.8-2.07,1.61-2.75.46-.34.92-.69,1.49-.92,1.95-.8,3.79-1.61,5.62-2.52,1.15-.46,2.29-1.03,3.67-1.61Z"/>
        <g>
          <path class="cls-4" d="M162.48,76.07c.23-.23.34-.46.46-.69,1.26-3.1,2.64-6.2,3.9-9.29.69-1.61.34-2.06-1.38-2.52-2.52-.57-4.7-.23-6.66,1.49-.46.34-.92.8-1.49,1.03-.57.34-1.15.57-1.72.46-1.03,0-1.84-.69-2.29-1.84-.34-.92-.69-1.84-.92-2.87-.46-2.41-2.29-3.33-4.48-3.56-1.26-.11-2.64.11-3.9.57-.8.23-1.38,1.15-1.95,1.84-.23.23-.23.92-.12,1.15.69.92,1.38,1.72,2.18,2.64.23-.8.34-1.49.57-2.07.12-.12.34-.12.46-.12.57.92,1.26,1.72,1.61,2.75,1.38,3.56,2.64,7.23,4.02,10.9.34,1.15.23,2.06-.57,3.1-2.29,2.87-4.59,5.62-7,8.61-1.03,1.26-1.03,1.49.57,2.07,3.21,1.26,6.54,2.18,10.33,2.18-.69,4.13-1.03,8.15-2.64,11.82-.23.34-.46.57-.92,1.03-.11-.69-.34-1.15-.57-1.84-.46,1.38-1.03,2.52-1.26,3.67-.23.69-.34,1.84.12,2.18.57.34,1.61.46,2.29.23,1.72-.57,3.21-1.38,4.47-2.41,1.72-1.49,2.98-3.33,3.79-5.62,1.15-3.1.92-6.31.46-9.52-.69-5.39-.34-10.56,2.64-15.38ZM155.59,70.91c-.69-1.26-1.15-2.18-1.72-3.21.11-.23.23-.46.34-.69.46.11.92.23,1.38.34.57.23,1.15.34,1.72.57-.69,1.26-1.15,1.95-1.72,2.98Z"/>
          <path class="cls-4" d="M186.8,88.24c-2.64-3.56-5.97-5.16-10.33-4.02-3.79.92-7.46,2.07-11.01,3.33-1.84.57-3.44,1.61-5.16,2.41,0,.23.12.34.23.57,1.03.12,2.18.23,3.33.23,6.31.46,12.74.92,19.05,1.26.8.12,1.49.12,2.29,0,2.64-.34,3.21-1.72,1.61-3.79Z"/>
        </g>
        <path class="cls-4" d="M75.39,209.75c1.95-.8,3.79-1.61,5.74-2.52,1.84-.8,3.67-1.61,5.97-2.64-1.61-1.26-2.87-2.41-4.25-3.21-2.41-1.15-4.93-1.95-7.34-2.98-.46-.11-.92-.57-.92-.8.11-1.61.23-3.21.57-4.7.23-1.26,1.38-1.72,2.75-1.38,1.15.34,1.49,1.03,1.15,2.29-.34,1.15-.69,2.29-.92,3.44,2.64-2.41,5.16-4.93,7.69-7.46.46-.46.34-.92-.23-1.26-.92-.8-1.84-1.61-2.98-2.06-3.33-1.72-7.23.34-7.92,4.13-.46,2.41-.8,4.7-1.15,7.11-1.49-.34-2.87-.8-4.13-1.15-2.06-.46-3.44-1.72-4.25-3.56-.34-.92-.69-1.84-1.03-2.64-.8-1.95-1.03-1.95-2.75-.92-.8.57-1.72,1.15-2.52,1.61-.69.34-1.26.69-1.95,1.03-1.15.69-2.41,1.38-4.02,2.18,1.95.92,3.33,2.18,4.93,2.41.34.12.69.12,1.03.23,1.84.69,2.18,2.18,2.18,4.13,0,1.49.23,3.1.34,4.93-.92-.8-1.72-1.61-2.52-2.41-1.49-1.38-2.75-2.64-4.13-3.9-1.03-1.03-2.18-2.18-3.1-3.33-.46-.46-.69-1.38-.69-2.07,0-1.61.23-3.33.34-5.05.23-2.64.34-5.39.34-8.03,0-1.84-1.15-2.41-2.64-1.26-.34.23-.8.46-1.03.8-2.41,2.52-5.28,4.13-8.84,4.82-1.72.34-2.64.92-2.64,1.84v.12c0,.69.46,1.49,1.38,2.41,2.07,2.41,4.36,4.48,6.31,6.77.69.69,1.26,1.72,1.38,2.64.23,4.59-.11,9.18-2.41,13.65,3.21-.46,5.97-1.49,8.26-3.56.92-.8,1.26-1.95.8-3.21-.34-1.03-.57-1.95-.8-2.98.46.12.8.46,1.15.69,1.84,1.95,3.56,3.79,5.39,5.62.34.34.57.57.92.8,2.64,2.64,3.21,2.52,7.46,1.15h.11c2.18-.8,2.29-.92,1.72-3.1-.23-.92-.57-1.72-.8-2.64-.57-1.72-1.03-3.44-1.61-5.51,2.3.92,4.48,1.72,6.54,2.52.34.12.46.69.46,1.03-.11,3.44-.23,6.88-.46,10.33,0,.69-.11,1.38-.23,2.18-.92-.46-1.61-.69-2.29-1.03,0,4.02,3.79,6.77,7.11,5.16,1.61-.69,1.72-1.38.8-2.98-1.15-1.95-2.06-4.13-2.98-6.2-.34-.69-.11-1.15.69-1.49ZM45.9,191.39c-1.61-1.61-2.98-2.98-4.59-4.7,1.95-.46,3.56-.8,5.28-1.15-.23,1.95-.46,3.67-.69,5.85Z"/>
      </g>
    </g>
  </g>
</svg>