<?xml version="1.0" encoding="utf-8"?>
<!-- Generator: Adobe Illustrator 27.0.0, SVG Export Plug-In . SVG Version: 6.00 Build 0)  -->
<svg version="1.1" id="图层_1" xmlns="http://www.w3.org/2000/svg" xmlns:xlink="http://www.w3.org/1999/xlink" x="0px" y="0px"
	 viewBox="0 0 383.96 117.85" style="enable-background:new 0 0 383.96 117.85;" xml:space="preserve">
<style type="text/css">
	.st0{fill:#FFFFFF;}
	.st1{fill:#FDD000;}
	.st2{fill:#587558;}
	.st3{fill-rule:evenodd;clip-rule:evenodd;}
</style>
<g>
	<path class="st0" d="M58.92,0C26.38,0,0,26.38,0,58.92s26.38,58.92,58.92,58.92s58.92-26.38,58.92-58.92S91.47,0,58.92,0z"/>
	<path class="st1" d="M40.52,63.52v-3.85h3.83c1.85-5.08,6.21-8.83,11.51-9.91v-1.82h-0.71v-0.29c1.01-0.7,2.18-1.13,3.4-1.24v-2.56
		h0.75v2.56c1.22,0.12,2.39,0.55,3.4,1.24v0.29H62v1.82c5.3,1.07,9.66,4.82,11.51,9.91h3.83v3.85h3.47L70.09,82.07H47.76
		L37.05,63.52H40.52z"/>
	<path class="st2" d="M55.1,48.7v0.46c-5.11,1.24-9.31,4.87-11.27,9.76h-4.06v3.85h-3.15L25.7,43.86h32.1c0,0,0,1.9,0,1.9
		c-1.24,0.23-2.41,0.75-3.4,1.52v1.43H55.1z"/>
	<path class="st2" d="M78.08,62.77v-3.85h-4.06c-1.96-4.88-6.16-8.52-11.27-9.76V48.7h0.71v-1.43c-1-0.77-2.17-1.29-3.4-1.52v-1.9
		h32.1L81.23,62.77H78.08z"/>
	<polygon class="st2" points="58.92,101.41 48.79,83.85 69.06,83.85 	"/>
	<path class="st1" d="M58.92,4.56C28.9,4.56,4.56,28.9,4.56,58.92s24.34,54.37,54.37,54.37s54.37-24.34,54.37-54.37
		S88.95,4.56,58.92,4.56z M62.24,100.83l-3.31,5.74l-3.31-5.73c-20.61-1.59-37-17.93-38.66-38.54
		c-1.86-23.14,15.38-43.41,38.53-45.28s43.41,15.38,45.28,38.53C102.63,78.69,85.38,98.96,62.24,100.83z"/>
	<path d="M58.92,3.45c-30.64,0-55.47,24.84-55.47,55.47s24.84,55.47,55.47,55.47s55.47-24.84,55.47-55.47S89.56,3.45,58.92,3.45z
		 M58.92,113.29c-30.03,0-54.37-24.34-54.37-54.37S28.9,4.56,58.92,4.56s54.37,24.34,54.37,54.37S88.95,113.29,58.92,113.29z"/>
	<path d="M100.76,55.55C98.9,32.41,78.63,15.16,55.48,17.02S15.09,39.16,16.96,62.3c1.66,20.6,18.05,36.94,38.66,38.54l3.31,5.73
		l3.31-5.74C85.38,98.96,102.63,78.69,100.76,55.55z M41.28,22.07c20.36-9.74,44.76-1.14,54.5,19.22H22.07
		C26.09,32.87,32.87,26.09,41.28,22.07z M55.1,48.7v0.46c-5.11,1.24-9.31,4.87-11.27,9.76h-4.06v3.85h-3.15L25.7,43.86h32.1
		c0,0,0,1.9,0,1.9c-1.24,0.23-2.41,0.75-3.4,1.52v1.43H55.1z M40.52,63.52v-3.85h3.83c1.85-5.08,6.21-8.83,11.51-9.91v-1.82h-0.71
		v-0.29c1.01-0.7,2.18-1.13,3.4-1.24v-2.56h0.75v2.56c1.22,0.12,2.39,0.55,3.4,1.24v0.29H62v1.82c5.3,1.07,9.66,4.82,11.51,9.91
		h3.83v3.85h3.47L70.09,82.07H47.76L37.05,63.52H40.52z M78.08,62.77v-3.85h-4.06c-1.96-4.88-6.16-8.52-11.27-9.76V48.7h0.71v-1.43
		c-1-0.77-2.17-1.29-3.4-1.52v-1.9h32.1L81.23,62.77H78.08z M42.08,96.15c-20.56-9.3-29.69-33.51-20.39-54.07l33.2,57.51
		C50.47,99.15,46.14,97.99,42.08,96.15z M58.92,101.41L48.79,83.85h20.27L58.92,101.41z M62.95,99.59l33.2-57.51
		c1.84,4.06,2.99,8.38,3.43,12.81C101.81,77.35,85.41,97.36,62.95,99.59z"/>
	<g id="LWPOLYLINE_96_">
		<rect x="47.17" y="71.88" width="23.5" height="1.84"/>
	</g>
	<g id="CIRCLE_48_">
		<path d="M23.37,92.99c0-0.78,0.63-1.42,1.42-1.42s1.42,0.63,1.42,1.42c0,0.78-0.63,1.42-1.42,1.42S23.37,93.78,23.37,92.99
			L23.37,92.99z"/>
	</g>
	<g id="CIRCLE_47_">
		<path d="M91.64,92.99c0-0.78,0.63-1.42,1.42-1.42s1.42,0.63,1.42,1.42c0,0.78-0.63,1.42-1.42,1.42S91.64,93.78,91.64,92.99
			L91.64,92.99z"/>
	</g>
	<g id="SPLINE_890_">
		<path d="M19.26,78.21c-0.12-0.07-0.2-0.17-0.24-0.26c-0.05-0.13-0.08-0.29-0.08-0.5c0-0.39-0.02-0.7-0.06-0.93
			c-0.05-0.24-0.13-0.49-0.22-0.73c-0.33-0.78-0.84-1.32-1.5-1.62c-0.68-0.31-1.34-0.33-1.98-0.06c-0.5,0.22-0.88,0.56-1.15,1.03
			c-0.25,0.48-0.41,1.26-0.48,2.35c-0.04,0.77-0.09,1.27-0.14,1.5c-0.07,0.31-0.17,0.56-0.31,0.74c-0.09,0.14-0.22,0.24-0.4,0.32
			c-0.27,0.11-0.56,0.1-0.86-0.04c-0.3-0.14-0.52-0.4-0.69-0.79c-0.2-0.5-0.2-1.04,0-1.64c0.2-0.6,0.62-1.1,1.2-1.47l-0.1-0.24
			L9.72,77l0.07,0.17c0.25-0.05,0.42-0.05,0.49-0.02c0.09,0.02,0.15,0.09,0.19,0.19c0.05,0.1,0.06,0.31,0.05,0.62
			c-0.01,0.31,0,0.56,0.03,0.76c0.04,0.27,0.12,0.52,0.23,0.77c0.29,0.69,0.74,1.17,1.37,1.44c0.63,0.27,1.22,0.29,1.85,0.02
			c0.36-0.15,0.65-0.37,0.87-0.65c0.23-0.3,0.4-0.64,0.51-1.06c0.12-0.4,0.2-1.02,0.25-1.87c0.03-0.6,0.08-1.03,0.15-1.29
			c0.07-0.26,0.18-0.48,0.3-0.65c0.13-0.16,0.28-0.29,0.46-0.36c0.31-0.13,0.63-0.12,0.97,0.04c0.33,0.15,0.59,0.45,0.78,0.87
			c0.23,0.56,0.23,1.16,0,1.82c-0.23,0.66-0.7,1.25-1.45,1.76l0.08,0.2l2.89-1.22l-0.08-0.2C19.54,78.33,19.38,78.29,19.26,78.21z"
			/>
	</g>
	<path d="M15.95,66.63c-0.27-1.46-1-2.5-2.19-3.12c-0.9-0.47-1.86-0.6-2.9-0.42c-1.21,0.22-2.16,0.81-2.82,1.76
		c-0.66,0.97-0.85,2.1-0.57,3.39c0.17,1.21,0.74,2.15,1.69,2.84c0.96,0.67,2.04,0.91,3.27,0.69c1.08-0.19,1.96-0.68,2.63-1.46
		C15.91,69.34,16.22,68.11,15.95,66.63z M15.06,68.3c-0.59,0.62-1.57,1.05-2.96,1.29c-1.17,0.21-2.1,0.22-2.79,0.02
		c-0.82-0.26-1.31-0.76-1.44-1.51c-0.08-0.41-0.03-0.79,0.13-1.13c0.18-0.36,0.5-0.67,1.01-0.97c0.49-0.29,1.28-0.54,2.36-0.73
		c0.92-0.17,1.67-0.2,2.26-0.1c0.6,0.1,1.06,0.3,1.38,0.6c0.25,0.24,0.42,0.57,0.49,0.98C15.6,67.35,15.46,67.87,15.06,68.3z"/>
	<g id="SPLINE_889_">
		<path d="M8.14,58.8l4.08,0.26c0.69,0.05,1.25-0.03,1.66-0.23c0.44-0.19,0.79-0.55,1.09-1.06c0.21-0.38,0.35-0.94,0.39-1.65
			c0.05-0.86-0.09-1.55-0.42-2.07c-0.34-0.52-0.72-0.86-1.15-1.01c-0.42-0.15-1.12-0.27-2.09-0.32l-3.17-0.2
			c-0.33-0.02-0.57-0.06-0.69-0.13c-0.19-0.07-0.32-0.2-0.41-0.35c-0.08-0.17-0.12-0.36-0.11-0.59l0.02-0.16l-0.23-0.02l-0.19,2.87
			l0.23,0.02c0.02-0.33,0.09-0.58,0.2-0.74c0.07-0.12,0.18-0.2,0.34-0.28c0.17-0.06,0.43-0.08,0.8-0.06l3.39,0.22
			c0.88,0.06,1.5,0.17,1.84,0.35c0.36,0.17,0.61,0.43,0.79,0.75c0.18,0.33,0.25,0.72,0.23,1.16c-0.02,0.39-0.12,0.71-0.31,0.95
			c-0.18,0.25-0.39,0.42-0.63,0.51c-0.25,0.09-0.74,0.11-1.49,0.07l-4.08-0.26c-0.47-0.04-0.76-0.08-0.88-0.13
			c-0.12-0.07-0.2-0.15-0.26-0.29c-0.06-0.11-0.08-0.34-0.06-0.66l0.01-0.22l-0.22-0.01l-0.27,4.28l0.22,0.01
			c0.03-0.35,0.07-0.59,0.14-0.72c0.09-0.13,0.19-0.21,0.3-0.27C7.37,58.78,7.67,58.77,8.14,58.8z"/>
	</g>
	<g id="SPLINE_888_">
		<path d="M10.1,47.95c-0.57-0.28-0.95-0.62-1.17-1.06c-0.15-0.32-0.14-0.74,0.02-1.29L9.12,45l6.16,1.85
			c0.4,0.13,0.64,0.23,0.73,0.3c0.11,0.08,0.18,0.2,0.21,0.32c0.04,0.16,0.02,0.35-0.04,0.59l-0.08,0.26l0.21,0.07l1.24-4.15
			l-0.22-0.06l-0.07,0.26c-0.07,0.22-0.17,0.39-0.29,0.5c-0.11,0.1-0.22,0.16-0.34,0.17c-0.12,0.01-0.39-0.05-0.79-0.15l-6.15-1.87
			l0.19-0.59c0.1-0.38,0.22-0.62,0.34-0.76c0.21-0.23,0.44-0.39,0.71-0.47c0.26-0.08,0.66-0.11,1.2-0.1l0.06-0.21l-2.16-0.65
			L7.87,47.5l2.16,0.65L10.1,47.95z"/>
	</g>
	<g id="SPLINE_887_">
		<path d="M11.84,36.53c0.11-0.21,0.24-0.34,0.38-0.41c0.13-0.08,0.27-0.1,0.38-0.09c0.12,0.01,0.37,0.13,0.73,0.34l4.73,2.76
			c0.37,0.21,0.59,0.37,0.64,0.45c0.09,0.13,0.14,0.24,0.14,0.37c0,0.16-0.06,0.36-0.18,0.55l-0.15,0.25l0.2,0.12l2.18-3.75
			l-0.2-0.11l-0.13,0.23c-0.12,0.21-0.25,0.34-0.38,0.42c-0.15,0.08-0.27,0.11-0.39,0.1c-0.12-0.01-0.35-0.13-0.74-0.34l-2.22-1.3
			l1.5-2.56l2.23,1.3c0.36,0.21,0.57,0.36,0.63,0.45c0.09,0.13,0.13,0.25,0.13,0.37c0.01,0.16-0.05,0.35-0.17,0.56l-0.14,0.23
			l0.19,0.11l2.18-3.74l-0.2-0.11l-0.13,0.23c-0.11,0.2-0.25,0.35-0.38,0.42c-0.14,0.08-0.27,0.11-0.37,0.1
			c-0.12-0.02-0.37-0.14-0.74-0.36l-4.73-2.75c-0.37-0.22-0.57-0.38-0.64-0.46c-0.08-0.13-0.13-0.25-0.12-0.37
			c-0.01-0.17,0.05-0.35,0.18-0.57l0.13-0.23l-0.19-0.11L14,32.37l0.2,0.12l0.14-0.24c0.12-0.19,0.25-0.33,0.39-0.42
			c0.14-0.08,0.27-0.11,0.38-0.09c0.12,0.01,0.37,0.13,0.73,0.35l2.04,1.18l-1.49,2.56l-2.03-1.19c-0.37-0.21-0.58-0.37-0.64-0.45
			c-0.09-0.12-0.13-0.24-0.13-0.36c0-0.17,0.05-0.36,0.18-0.57l0.14-0.24l-0.19-0.11l-2.18,3.74l0.2,0.11L11.84,36.53z"/>
	</g>
	<g id="SPLINE_886_">
		<path d="M18.84,25.7c0.18-0.2,0.38-0.3,0.56-0.34c0.14-0.03,0.27-0.01,0.4,0.07c0.07,0.04,0.25,0.2,0.53,0.46l3.96,3.79
			c0.3,0.29,0.47,0.48,0.52,0.59c0.06,0.13,0.08,0.27,0.04,0.39c-0.04,0.16-0.13,0.33-0.3,0.5l-0.19,0.2l0.15,0.15l4.97-5.18
			l-1.65-2.1l-0.15,0.17c0.39,0.66,0.55,1.28,0.47,1.86c-0.05,0.59-0.36,1.16-0.89,1.72l-0.34,0.37c-0.17,0.16-0.31,0.27-0.43,0.3
			c-0.12,0.04-0.23,0.03-0.34-0.02c-0.09-0.03-0.31-0.22-0.64-0.54l-1.7-1.62c0.27-0.29,0.52-0.47,0.74-0.56
			c0.22-0.07,0.49-0.06,0.82,0.03c0.32,0.09,0.68,0.29,1.06,0.58l0.15-0.15l-3.17-3.01l-0.14,0.15c0.42,0.49,0.67,0.95,0.74,1.35
			c0.08,0.4-0.06,0.79-0.43,1.18l-0.12,0.11l-2.45-2.33l0.58-0.61c0.44-0.45,0.77-0.74,0.98-0.86c0.36-0.2,0.71-0.29,1.05-0.27
			c0.34,0.03,0.76,0.2,1.27,0.53l0.15-0.16l-1.77-1.7l-4.81,5.03l0.16,0.15L18.84,25.7z"/>
	</g>
	<path d="M38.42,19.72c-0.23,0.12-0.43,0.16-0.62,0.13c-0.25-0.03-0.67-0.25-1.27-0.64l-6.23-4.08l-0.11,0.07l1.17,7.18
		c0.12,0.69,0.15,1.18,0.1,1.45c-0.03,0.28-0.18,0.52-0.4,0.72l0.12,0.19l2.31-1.52l-0.12-0.19c-0.38,0.22-0.63,0.32-0.76,0.32
		c-0.22,0.01-0.4-0.07-0.53-0.28c-0.1-0.15-0.18-0.37-0.23-0.66l-0.15-0.89l2.42-1.59l0.96,0.64c0.24,0.16,0.38,0.26,0.41,0.28
		c0.06,0.05,0.11,0.11,0.15,0.17c0.08,0.1,0.08,0.21,0.05,0.32c-0.07,0.14-0.23,0.32-0.49,0.5l-0.15,0.09l0.13,0.19l3.36-2.22
		L38.42,19.72z M31.62,21.02l-0.49-3.05l2.58,1.68L31.62,21.02z"/>
	<g id="SPLINE_885_">
		<path d="M38.91,14.26c0.29,0.24,0.64,0.41,1.03,0.55c0.42,0.12,1.02,0.22,1.87,0.3c0.61,0.06,1.02,0.12,1.29,0.2
			c0.26,0.07,0.47,0.18,0.63,0.32c0.16,0.13,0.29,0.29,0.35,0.47c0.12,0.31,0.09,0.64-0.06,0.97c-0.18,0.33-0.48,0.57-0.91,0.75
			c-0.56,0.21-1.16,0.2-1.82-0.05c-0.65-0.25-1.22-0.74-1.71-1.51l-0.2,0.09l1.13,2.94l0.21-0.09c0.01-0.19,0.05-0.34,0.14-0.45
			c0.08-0.12,0.17-0.2,0.28-0.25c0.11-0.04,0.28-0.06,0.49-0.05c0.38,0,0.7,0,0.94-0.04c0.24-0.03,0.49-0.1,0.73-0.19
			c0.78-0.31,1.34-0.78,1.67-1.46c0.33-0.66,0.37-1.32,0.13-1.96c-0.2-0.51-0.54-0.91-1-1.18c-0.47-0.27-1.26-0.46-2.33-0.55
			c-0.77-0.07-1.27-0.14-1.5-0.19c-0.31-0.08-0.56-0.19-0.74-0.33c-0.12-0.1-0.23-0.24-0.29-0.41c-0.1-0.27-0.08-0.56,0.07-0.86
			c0.15-0.29,0.43-0.5,0.81-0.66c0.51-0.2,1.07-0.18,1.65,0.05c0.59,0.23,1.06,0.64,1.42,1.25l0.24-0.1l-1.05-2.56L42.2,9.29
			c0.03,0.25,0.03,0.41,0,0.49c-0.04,0.08-0.1,0.15-0.2,0.19c-0.1,0.03-0.31,0.04-0.62,0.02c-0.31-0.01-0.57-0.01-0.77,0
			c-0.26,0.04-0.52,0.1-0.77,0.2c-0.69,0.27-1.2,0.7-1.48,1.31c-0.29,0.61-0.32,1.23-0.08,1.85C38.42,13.72,38.63,14.03,38.91,14.26
			z"/>
	</g>
	<g id="SPLINE_884_">
		<path d="M47.34,10.27c0-0.61,0.15-1.11,0.45-1.49c0.22-0.28,0.59-0.46,1.15-0.55l0.61-0.1l1.04,6.34
			c0.07,0.42,0.09,0.68,0.05,0.78c-0.03,0.14-0.1,0.25-0.18,0.33c-0.14,0.11-0.32,0.18-0.57,0.22l-0.25,0.04l0.02,0.22l4.28-0.69
			l-0.04-0.22l-0.27,0.04c-0.23,0.05-0.42,0.03-0.57-0.02c-0.15-0.06-0.25-0.14-0.31-0.25c-0.06-0.09-0.13-0.36-0.2-0.78L51.52,7.8
			l0.62-0.09c0.39-0.06,0.66-0.08,0.82-0.03c0.3,0.09,0.55,0.24,0.74,0.43c0.19,0.2,0.4,0.54,0.61,1.03l0.22-0.03l-0.38-2.23
			l-7.41,1.2l0.36,2.23L47.34,10.27z"/>
	</g>
	<g id="SPLINE_883_">
		<path d="M64.37,7.6c0.05,0.12,0.02,0.43-0.07,0.89l-0.68,4.02c-0.12,0.69-0.1,1.24,0.05,1.69c0.14,0.45,0.46,0.84,0.95,1.19
			c0.35,0.25,0.88,0.44,1.59,0.57c0.84,0.14,1.55,0.07,2.11-0.2c0.55-0.27,0.92-0.61,1.13-1.02c0.19-0.41,0.38-1.1,0.54-2.07
			l0.52-3.12c0.06-0.33,0.12-0.56,0.2-0.68c0.1-0.17,0.24-0.29,0.41-0.37c0.16-0.06,0.37-0.08,0.59-0.03l0.17,0.02l0.05-0.22
			l-2.84-0.48l-0.04,0.22c0.32,0.06,0.56,0.15,0.73,0.26c0.11,0.09,0.19,0.21,0.24,0.38c0.05,0.17,0.04,0.44-0.02,0.8l-0.57,3.35
			c-0.15,0.87-0.33,1.47-0.54,1.79c-0.21,0.32-0.49,0.56-0.83,0.71c-0.36,0.14-0.74,0.18-1.18,0.1c-0.38-0.07-0.69-0.2-0.91-0.4
			c-0.22-0.2-0.38-0.43-0.44-0.68c-0.07-0.25-0.04-0.76,0.08-1.5l0.69-4.01c0.07-0.47,0.15-0.75,0.23-0.87
			c0.06-0.1,0.16-0.18,0.3-0.23c0.13-0.04,0.35-0.04,0.66,0.01l0.22,0.04l0.04-0.21l-4.23-0.72l-0.04,0.21
			c0.36,0.06,0.58,0.13,0.71,0.22C64.27,7.37,64.34,7.48,64.37,7.6z"/>
	</g>
	<g id="SPLINE_882_">
		<path d="M71.64,16.81l2.74,1.14l0.08-0.21l-0.18-0.08c-0.26-0.11-0.46-0.28-0.61-0.52c-0.14-0.25-0.12-0.58,0.06-1.01l2.06-4.93
			l2.53,8.59l0.2,0.08l2.66-6.4c0.15-0.37,0.3-0.61,0.42-0.73c0.12-0.13,0.25-0.2,0.4-0.23c0.13-0.02,0.37,0.02,0.72,0.12l0.08-0.2
			l-2.54-1.06l-0.08,0.2c0.42,0.17,0.69,0.4,0.78,0.7c0.07,0.21,0,0.55-0.2,1.02l-1.36,3.27l-1.82-6.32l-2.74-1.14l-0.08,0.2
			c0.23,0.1,0.39,0.21,0.49,0.34c0.1,0.11,0.18,0.31,0.26,0.6l0.08,0.29l-2.26,5.42c-0.16,0.41-0.37,0.66-0.61,0.75
			c-0.24,0.1-0.56,0.07-1-0.11L71.64,16.81z"/>
	</g>
	<g id="SPLINE_881_">
		<path d="M85.84,14.71c0.06,0.14,0.1,0.28,0.08,0.39c-0.03,0.11-0.15,0.35-0.38,0.72l-2.98,4.6c-0.24,0.35-0.4,0.55-0.49,0.61
			c-0.12,0.1-0.25,0.14-0.37,0.12c-0.17,0-0.35-0.07-0.55-0.2l-0.23-0.15l-0.12,0.19l3.63,2.35l0.13-0.19l-0.23-0.15
			c-0.2-0.12-0.34-0.26-0.4-0.4c-0.07-0.15-0.09-0.27-0.08-0.38c0.01-0.12,0.14-0.36,0.37-0.73l2.98-4.59
			c0.23-0.35,0.39-0.56,0.48-0.62c0.13-0.09,0.25-0.12,0.38-0.12c0.17,0.01,0.36,0.07,0.56,0.2l0.22,0.16l0.12-0.18l-3.63-2.36
			l-0.13,0.18l0.23,0.16C85.63,14.44,85.77,14.57,85.84,14.71z"/>
	</g>
	<g id="SPLINE_880_">
		<path d="M88.54,26.98l0.15,0.16l6.44-2.69c0.77-0.32,1.28-0.51,1.55-0.53c0.36-0.05,0.66,0.03,0.91,0.19l0.16-0.16l-1.99-1.86
			l-0.15,0.16c0.22,0.2,0.36,0.38,0.44,0.56c0.06,0.12,0.08,0.24,0.06,0.35c-0.02,0.11-0.07,0.21-0.15,0.3
			c-0.08,0.08-0.18,0.16-0.31,0.24c-0.14,0.08-0.43,0.22-0.89,0.41l-3.72,1.56l1.55-4.22c0.17-0.45,0.27-0.73,0.31-0.82
			c0.05-0.1,0.1-0.17,0.15-0.22c0.07-0.09,0.17-0.12,0.28-0.11c0.16,0.02,0.37,0.16,0.64,0.4l0.1,0.09l0.15-0.16l-2.91-2.72
			l-0.15,0.16c0.21,0.25,0.31,0.46,0.3,0.64c-0.02,0.19-0.16,0.68-0.46,1.5L88.54,26.98z"/>
	</g>
	<g id="SPLINE_879_">
		<path d="M99.14,28.04l-4.51,3.09c-0.36,0.24-0.58,0.37-0.69,0.39c-0.15,0.02-0.29,0.02-0.39-0.04c-0.15-0.06-0.3-0.21-0.43-0.4
			l-0.16-0.23l-0.18,0.12l4.05,5.92l2.39-1.18l-0.13-0.18c-0.72,0.24-1.37,0.28-1.92,0.09c-0.56-0.17-1.06-0.59-1.5-1.23l-0.28-0.41
			c-0.14-0.2-0.21-0.36-0.21-0.48c0-0.12,0.03-0.23,0.1-0.32c0.05-0.08,0.28-0.27,0.66-0.52l1.94-1.34
			c0.22,0.33,0.35,0.62,0.38,0.85c0.03,0.23-0.03,0.5-0.19,0.79c-0.16,0.3-0.43,0.6-0.79,0.92l0.13,0.18l3.6-2.47l-0.13-0.17
			c-0.57,0.31-1.06,0.46-1.48,0.45c-0.4,0-0.76-0.23-1.06-0.66l-0.09-0.15l2.79-1.91l0.48,0.7c0.35,0.52,0.58,0.91,0.64,1.13
			c0.12,0.39,0.14,0.75,0.05,1.08c-0.1,0.33-0.36,0.71-0.78,1.15l0.12,0.18l2.03-1.39l-3.93-5.72l-0.19,0.12l0.16,0.22
			c0.16,0.22,0.22,0.42,0.22,0.62c-0.01,0.13-0.05,0.26-0.14,0.38C99.65,27.69,99.46,27.83,99.14,28.04z"/>
	</g>
	<path d="M107.69,41.2c-0.05-0.49-0.25-1.2-0.63-2.13l-1.45-3.59l-0.2,0.08c0.14,0.36,0.21,0.61,0.19,0.76
		c0,0.17-0.06,0.29-0.14,0.39c-0.09,0.09-0.34,0.23-0.75,0.4l-5.05,2.03c-0.41,0.16-0.69,0.24-0.81,0.24
		c-0.13-0.01-0.25-0.07-0.37-0.17c-0.11-0.1-0.24-0.34-0.39-0.69l-0.2,0.09l1.6,3.97l0.2-0.08c-0.14-0.36-0.21-0.62-0.2-0.77
		c0.02-0.16,0.07-0.29,0.15-0.38c0.09-0.1,0.34-0.23,0.76-0.4l2.18-0.88l0.21,0.51l-2.52,3.92l0.98,2.41l0.2-0.08
		c-0.07-0.21-0.08-0.41-0.02-0.61c0.04-0.13,0.19-0.39,0.43-0.77l1.87-2.89c0.31,0.42,0.62,0.71,0.96,0.87
		c0.54,0.26,1.1,0.27,1.66,0.04c0.46-0.18,0.82-0.49,1.06-0.9C107.64,42.13,107.73,41.68,107.69,41.2z M106.71,40.67
		c-0.16,0.38-0.54,0.7-1.12,0.94c-0.4,0.15-0.76,0.21-1.07,0.16c-0.3-0.05-0.57-0.19-0.77-0.42c-0.2-0.23-0.41-0.6-0.62-1.13
		l-0.14-0.33l3.35-1.35l0.25,0.62C106.84,39.77,106.88,40.28,106.71,40.67z"/>
	<g id="SPLINE_878_">
		<path d="M106.44,47.62c-0.28,0.23-0.52,0.53-0.72,0.91c-0.2,0.37-0.42,0.97-0.65,1.78c-0.16,0.58-0.31,0.99-0.45,1.23
			c-0.12,0.23-0.25,0.42-0.42,0.56c-0.17,0.13-0.34,0.22-0.54,0.25c-0.33,0.06-0.63-0.02-0.93-0.25c-0.3-0.22-0.47-0.56-0.55-1.03
			c-0.12-0.59,0.02-1.17,0.38-1.76c0.36-0.59,0.96-1.06,1.79-1.4l-0.03-0.22l-3.09,0.56l0.04,0.21c0.18,0.05,0.32,0.12,0.43,0.22
			c0.09,0.1,0.15,0.21,0.18,0.31c0.01,0.13,0.01,0.3-0.03,0.5c-0.08,0.37-0.13,0.68-0.14,0.93c-0.01,0.24,0,0.48,0.05,0.74
			c0.16,0.83,0.52,1.47,1.11,1.92c0.59,0.45,1.23,0.62,1.9,0.48c0.54-0.09,1-0.34,1.35-0.75c0.37-0.41,0.69-1.15,0.98-2.18
			c0.22-0.75,0.37-1.23,0.47-1.44c0.13-0.29,0.28-0.52,0.46-0.67c0.13-0.11,0.27-0.18,0.47-0.21c0.28-0.05,0.55,0.02,0.82,0.22
			c0.25,0.21,0.42,0.52,0.5,0.93c0.09,0.54-0.03,1.06-0.36,1.6c-0.34,0.54-0.83,0.93-1.5,1.18l0.05,0.26l2.72-0.56l-0.03-0.17
			c-0.25-0.01-0.41-0.04-0.48-0.09c-0.08-0.04-0.14-0.13-0.15-0.23c-0.02-0.11,0.01-0.32,0.09-0.62c0.08-0.3,0.13-0.54,0.14-0.74
			c0.02-0.26,0-0.54-0.05-0.8c-0.13-0.74-0.47-1.31-1.01-1.7c-0.56-0.41-1.15-0.55-1.81-0.43
			C107.07,47.23,106.73,47.38,106.44,47.62z"/>
	</g>
	<g id="SPLINE_877_">
		<path d="M110.69,55.81c0,0.23-0.02,0.41-0.1,0.56c-0.08,0.14-0.17,0.23-0.28,0.28c-0.1,0.05-0.38,0.07-0.8,0.08l-5.48,0.13
			c-0.42,0-0.68-0.01-0.78-0.06c-0.14-0.05-0.24-0.13-0.3-0.23c-0.09-0.14-0.14-0.34-0.14-0.58l-0.01-0.27h-0.23l0.11,4.33h0.22
			v-0.28c0-0.24,0.02-0.41,0.1-0.56c0.08-0.14,0.17-0.24,0.28-0.28c0.1-0.05,0.38-0.08,0.81-0.1l5.48-0.12
			c0.42-0.01,0.68,0,0.78,0.05c0.15,0.05,0.24,0.13,0.3,0.23c0.1,0.15,0.15,0.34,0.15,0.59v0.27h0.23l-0.1-4.33h-0.22L110.69,55.81z
			"/>
	</g>
	<g id="SPLINE_876_">
		<path d="M108.69,62.83c0.59,0.18,1.03,0.48,1.3,0.88c0.19,0.29,0.25,0.71,0.18,1.28l-0.11,0.62l-6.34-0.96
			c-0.43-0.06-0.68-0.13-0.77-0.18c-0.12-0.08-0.22-0.18-0.25-0.29c-0.07-0.15-0.09-0.35-0.05-0.59l0.04-0.27l-0.22-0.04l-0.64,4.28
			l0.22,0.04l0.04-0.27c0.04-0.23,0.11-0.41,0.2-0.53c0.11-0.12,0.2-0.2,0.32-0.22c0.11-0.03,0.38-0.01,0.81,0.05l6.35,0.95
			l-0.08,0.62c-0.07,0.39-0.14,0.65-0.23,0.78c-0.18,0.26-0.39,0.46-0.63,0.58c-0.25,0.13-0.64,0.22-1.17,0.27l-0.04,0.21l2.22,0.32
			l1.12-7.42l-2.23-0.33L108.69,62.83z"/>
	</g>
	<g id="SPLINE_875_">
		<path d="M108.48,73.94c-0.18,0.09-0.66,0.2-1.46,0.32l-4.04,0.53l-1.55-0.59c-0.4-0.15-0.63-0.26-0.71-0.34
			c-0.11-0.1-0.17-0.23-0.19-0.34c-0.04-0.17,0-0.37,0.08-0.59l0.16-0.4l-0.2-0.08l-1.68,4.34l0.2,0.08l0.17-0.44
			c0.08-0.2,0.18-0.35,0.3-0.45c0.12-0.1,0.25-0.14,0.36-0.15c0.12-0.01,0.38,0.08,0.78,0.23l1.87,0.72l2.18,2.77
			c0.56,0.7,0.88,1.17,0.96,1.42c0.06,0.19,0.06,0.4,0,0.67l0.2,0.08l0.92-2.37l-0.21-0.08c-0.15,0.34-0.3,0.56-0.45,0.65
			c-0.1,0.07-0.2,0.08-0.31,0.05c-0.2-0.07-0.51-0.39-0.96-0.96l-1.79-2.31l3.09-0.41c0.68-0.09,1.1-0.11,1.23-0.05
			c0.07,0.03,0.13,0.11,0.16,0.21c0.03,0.12,0,0.28-0.09,0.51l-0.06,0.17l0.2,0.08l1.43-3.72l-0.2-0.08
			C108.79,73.66,108.66,73.85,108.48,73.94z"/>
	</g>
	<g id="SPLINE_874_">
		<path d="M85.28,69.63c-0.03,0.23-0.06,0.45-0.1,0.64h2.6v3.86c0,0.35-0.09,0.52-0.34,0.61c-0.25,0.1-0.66,0.1-1.22,0.1
			c-0.04-0.16-0.14-0.41-0.23-0.57c0.4,0.02,0.84,0.01,0.96,0.01c0.13,0,0.16-0.04,0.16-0.15v-3.25H82.9v3.96h-0.66v-4.57h2.3
			c0.02-0.19,0.06-0.42,0.08-0.64H81.9v-0.62h2.78c0.02-0.23,0.04-0.46,0.04-0.66l0.72,0.07c-0.02,0.19-0.05,0.39-0.08,0.59h2.73
			v0.62H85.28z"/>
	</g>
	<g id="SPLINE_873_">
		<path d="M85.29,73.53v1.16h-0.62v-1.16h-1.42V73h1.42v-0.61h-1.28v-0.52h0.65c-0.06-0.23-0.2-0.55-0.33-0.79l0.52-0.13
			c0.16,0.25,0.3,0.59,0.37,0.81l-0.38,0.11h1.16c0.12-0.28,0.27-0.67,0.34-0.94l0.6,0.13c-0.12,0.28-0.24,0.56-0.36,0.81h0.67v0.52
			h-1.34V73h1.47v0.53H85.29z"/>
	</g>
	<g id="SPLINE_872_">
		<path d="M90.8,73.07c-0.37,0.56-0.91,1.18-1.4,1.6c-0.11-0.13-0.34-0.32-0.47-0.42c0.45-0.38,0.98-0.95,1.23-1.41L90.8,73.07z"/>
	</g>
	<path d="M89.85,70.32v2.11h1.91v1.69c0,0.09-0.04,0.12-0.16,0.12c-0.13,0.01-0.57,0.01-0.98-0.01c0.08,0.18,0.18,0.45,0.21,0.64
		c0.6,0,1.01,0,1.28-0.1c0.27-0.1,0.35-0.28,0.35-0.64v-1.71h1.92v-2.11H89.85z M93.69,71.87h-3.18v-0.97h3.18V71.87z"/>
	<g id="SPLINE_871_">
		<path d="M93.86,72.83c0.44,0.45,1.01,1.07,1.28,1.47l-0.58,0.38c-0.25-0.4-0.79-1.06-1.25-1.52L93.86,72.83z"/>
	</g>
	<g id="SPLINE_870_">
		<path d="M21.48,70.51v-0.52c0.49-0.05,0.83-0.13,1.03-0.24c0.19-0.11,0.34-0.38,0.43-0.8h0.54v5.39h-0.73v-3.83H21.48z"/>
	</g>
	<path d="M27.64,69.99c-0.3-0.71-0.84-1.07-1.63-1.07c-0.58,0-1.03,0.19-1.33,0.56c-0.3,0.37-0.45,0.8-0.45,1.3
		c0,0.51,0.15,0.93,0.46,1.25c0.3,0.32,0.72,0.49,1.24,0.49c0.26,0,0.5-0.05,0.72-0.15c0.22-0.1,0.41-0.26,0.56-0.5
		c-0.1,0.83-0.26,1.38-0.49,1.65c-0.23,0.27-0.51,0.41-0.83,0.41c-0.17,0-0.33-0.04-0.47-0.11c-0.27-0.14-0.41-0.4-0.43-0.78H24.3
		c0,0.42,0.14,0.77,0.41,1.04c0.27,0.28,0.68,0.42,1.21,0.42c0.79,0,1.35-0.43,1.68-1.28c0.2-0.51,0.3-1.1,0.3-1.76
		C27.89,70.87,27.81,70.38,27.64,69.99z M26.76,71.66c-0.22,0.18-0.47,0.27-0.74,0.27c-0.38,0-0.65-0.1-0.82-0.31
		c-0.17-0.21-0.26-0.49-0.26-0.84c0-0.37,0.1-0.67,0.29-0.89c0.2-0.22,0.46-0.33,0.79-0.33c0.31,0,0.57,0.1,0.77,0.29
		c0.2,0.2,0.3,0.49,0.3,0.89C27.09,71.17,26.98,71.48,26.76,71.66z"/>
	<path d="M31.72,69.79c-0.31-0.58-0.82-0.87-1.52-0.87c-0.78,0-1.32,0.41-1.61,1.23c-0.16,0.44-0.24,0.97-0.24,1.58
		c0,0.79,0.13,1.43,0.4,1.9c0.32,0.56,0.8,0.85,1.45,0.85c0.72,0,1.24-0.35,1.56-1.04c0.22-0.48,0.33-1.09,0.33-1.83
		C32.08,70.84,31.96,70.23,31.72,69.79z M31.04,73.39c-0.21,0.31-0.49,0.47-0.84,0.47c-0.44,0-0.75-0.26-0.93-0.77
		c-0.12-0.34-0.18-0.78-0.18-1.33c0-0.73,0.09-1.29,0.28-1.67c0.19-0.38,0.48-0.56,0.88-0.56c0.44,0,0.73,0.2,0.88,0.6
		c0.15,0.4,0.23,0.9,0.23,1.52C31.35,72.5,31.24,73.08,31.04,73.39z"/>
	<g id="SPLINE_869_">
		<path d="M32.66,73.13c0.17-0.35,0.49-0.66,0.98-0.94l0.73-0.42c0.33-0.19,0.55-0.35,0.68-0.48c0.21-0.21,0.31-0.45,0.31-0.72
			c0-0.32-0.09-0.57-0.28-0.75c-0.19-0.19-0.44-0.28-0.76-0.28c-0.47,0-0.79,0.18-0.97,0.53c-0.1,0.19-0.15,0.45-0.16,0.79H32.5
			c0.01-0.47,0.09-0.86,0.26-1.15c0.29-0.52,0.82-0.79,1.56-0.79c0.62,0,1.07,0.17,1.36,0.5c0.29,0.34,0.43,0.71,0.43,1.12
			c0,0.43-0.15,0.8-0.46,1.11c-0.18,0.18-0.49,0.4-0.95,0.65l-0.52,0.29c-0.25,0.14-0.44,0.27-0.58,0.39
			c-0.25,0.22-0.41,0.46-0.48,0.73h2.96v0.64h-3.72C32.39,73.88,32.49,73.48,32.66,73.13z"/>
	</g>
	<g id="SPLINE_868_">
		<path d="M95.16,69.2v0.64h-6.15V69.2h2.82c-0.11-0.23-0.25-0.49-0.38-0.69l0.64-0.21c0.18,0.27,0.4,0.64,0.52,0.9H95.16z"/>
	</g>
	<g>
		<path d="M40.24,104.37c-0.19-0.31-0.49-0.4-0.83-0.3c-0.19,0.06-0.41,0.08-0.61,0.08c-0.14,0-0.28-0.05-0.41-0.1
			c-0.37-0.12-0.73-0.23-1.09-0.36c-0.46-0.16-0.93-0.33-1.39-0.48c-0.26-0.09-0.53-0.16-0.8-0.24c-0.01-0.04-0.02-0.08-0.02-0.12
			c0.19-0.21,0.38-0.41,0.58-0.61c0.12-0.12,0.26-0.22,0.39-0.33c0.22-0.19,0.56-0.3,0.49-0.69c0-0.02,0.02-0.04,0.03-0.06
			c0.09-0.26,0.18-0.53-0.05-0.77c-0.14-0.15-0.25-0.32-0.39-0.46c-0.04-0.04-0.16-0.05-0.2-0.02c-0.07,0.06-0.16,0.17-0.15,0.24
			c0.06,0.27-0.06,0.5-0.19,0.69c-0.33,0.46-0.71,0.89-1.08,1.32c-0.07,0.09-0.18,0.14-0.27,0.21c-0.13,0.11-0.3,0.22-0.35,0.36
			c-0.07,0.18-0.05,0.4-0.05,0.6c0,0.19,0.4,0.48,0.56,0.4c0.38-0.19,0.77-0.05,1.12,0.02c0.55,0.1,1.12,0.18,1.61,0.5
			c0.06,0.04,0.15,0.04,0.22,0.08c0.59,0.28,1.18,0.55,1.77,0.84c0.36,0.17,0.69,0.38,1.05,0.54c0.28,0.13,0.5,0.02,0.55-0.28
			c0.02-0.14-0.03-0.32-0.1-0.46C40.51,104.76,40.36,104.57,40.24,104.37z"/>
		<path d="M43.68,101.8c-0.06-0.37-0.37-0.56-0.62-0.63c-0.2-0.05-0.3,0.05-0.37,0.21c-0.11,0.24-0.23,0.47-0.33,0.71
			c-0.04,0.1-0.1,0.26-0.05,0.33c0.12,0.18,0.29,0.32,0.48,0.52c0.17,0.02,0.36,0.04,0.54,0.05c0.42,0.02,0.61-0.23,0.5-0.64
			C43.79,102.16,43.71,101.98,43.68,101.8z"/>
		<path d="M38.7,102.34c0.15,0.25,0.48,0.28,0.66,0.08c0.19-0.2,0.39-0.39,0.6-0.58c0.07-0.07,0.18-0.09,0.32-0.16
			c-0.03-0.12-0.03-0.23-0.08-0.29c-0.05-0.05-0.17-0.05-0.25-0.04c-0.44,0.06-0.79-0.12-0.98-0.5c-0.02-0.04-0.13-0.09-0.18-0.07
			c-0.39,0.14-0.65,0.65-0.38,1.04C38.52,101.98,38.6,102.17,38.7,102.34z"/>
		<path d="M52.01,103.92c0.11-0.2,0.21-0.4,0.3-0.61c0.02-0.06-0.01-0.16-0.05-0.22c-0.12-0.16-0.28-0.29-0.37-0.46
			c-0.13-0.22-0.33-0.27-0.54-0.27c-0.1,0-0.26,0.07-0.3,0.15c-0.04,0.09,0.04,0.23,0.05,0.35c0.02,0.15,0.09,0.32,0.04,0.45
			c-0.11,0.26-0.27,0.5-0.43,0.73c-0.16,0.22-0.34,0.43-0.51,0.64c-0.1,0.12-0.21,0.24-0.32,0.36c-0.03-0.01-0.06-0.03-0.09-0.04
			c0.09-0.31-0.01-0.56-0.2-0.79c-0.05-0.06-0.05-0.18-0.04-0.28c0.04-0.43,0.11-0.85,0.14-1.28c0.05-0.7-0.5-0.99-1.11-0.91
			c-0.06,0.01-0.12,0.06-0.18,0.09c0.03,0.05,0.06,0.11,0.1,0.16c0.08,0.1,0.22,0.18,0.23,0.28c0.04,0.54,0.11,1.1,0.06,1.63
			c-0.03,0.32-0.21,0.71-0.46,0.89c-0.2,0.15-0.46,0.43-0.82,0.31c-0.08-0.02-0.21,0.01-0.27,0.07c-0.15,0.16-0.33,0.1-0.5,0.13
			c-0.29,0.05-0.6-0.03-0.88,0.18c-0.13,0.1-0.34,0.19-0.56,0.07c-0.06-0.03-0.26,0.05-0.3,0.12c-0.15,0.3-0.27,0.62-0.38,0.93
			c-0.03,0.09-0.01,0.25,0.05,0.29c0.06,0.05,0.21,0.02,0.31,0c0.08-0.02,0.16-0.08,0.21-0.14c0.1-0.14,0.21-0.15,0.35-0.08
			c0.12,0.05,0.22,0.03,0.34-0.07c0.16-0.14,0.38-0.3,0.57-0.3c0.41,0,0.66-0.26,0.92-0.49c0.29-0.26,0.61-0.33,0.82-0.12
			c-0.12,0.16-0.24,0.33-0.36,0.49c-0.23,0.32-0.5,0.61-0.74,0.92c-0.4,0.51-0.87,0.86-1.44,1.13c-0.1,0.05-0.13,0.27-0.19,0.41
			c0.1,0.03,0.23,0.1,0.3,0.07c0.32-0.13,0.66-0.26,0.93-0.47c0.31-0.23,0.55-0.54,0.83-0.8c0.19-0.19,0.39-0.37,0.6-0.54
			c0.05-0.04,0.15-0.07,0.19-0.05c0.05,0.03,0.08,0.13,0.07,0.19c-0.02,0.3-0.05,0.6-0.09,0.9c-0.04,0.34-0.09,0.68-0.15,1.02
			c-0.01,0.05-0.04,0.12-0.08,0.15c-0.22,0.11-0.45,0.2-0.74,0.33c0.03,0.1,0.03,0.26,0.11,0.37c0.15,0.19,0.33,0.35,0.51,0.52
			c0.11,0.11,0.6,0.07,0.67-0.05c0.14-0.27,0.31-0.53,0.38-0.82c0.1-0.46,0.13-0.95,0.19-1.42c0.01-0.08,0.03-0.17,0.06-0.25
			c0.12-0.38,0.31-0.75,0.35-1.14c0.03-0.33,0.2-0.56,0.42-0.67c0.42-0.2,0.78-0.46,1.1-0.78c0.17-0.17,0.33-0.36,0.47-0.56
			C51.74,104.4,51.87,104.16,52.01,103.92z"/>
		<path d="M55.08,104.64c-0.23-0.25-0.51-0.47-0.96-0.51c-0.06,0.03-0.18,0.08-0.29,0.14c-0.07,0.03-0.13,0.09-0.2,0.11
			c-0.35,0.08-0.71,0.14-1.07,0.22c-0.16,0.03-0.33,0.06-0.47,0.13c-0.15,0.07-0.16,0.19-0.04,0.33c0.14,0.16,0.3,0.21,0.49,0.21
			c0.41,0.01,0.83,0,1.24,0.02c0.27,0.01,0.55,0.05,0.82,0.08c0.23,0.02,0.47-0.02,0.55-0.23C55.21,105,55.18,104.75,55.08,104.64z"
			/>
		<path d="M52.85,106.6c-0.21-0.08-0.42-0.17-0.64-0.23c-0.38-0.11-0.54-0.02-0.69,0.4c0.13,0.1,0.25,0.22,0.39,0.31
			c0.29,0.2,0.31,0.41,0.11,0.71c-0.07,0.1-0.06,0.26-0.06,0.39c0,0.14,0.12,0.18,0.22,0.12c0.4-0.26,0.81-0.52,1-0.99
			C53.27,107.02,53.13,106.71,52.85,106.6z"/>
		<path d="M52.59,109.86c-0.36-0.12-0.6-0.36-0.85-0.62c-0.17-0.18-0.47-0.11-0.48,0.12c-0.01,0.24,0.08,0.49,0.18,0.71
			c0.08,0.17,0.29,0.28,0.37,0.46c0.16,0.33,0.22,0.39,0.53,0.34c0.41-0.07,0.49-0.15,0.51-0.51
			C52.88,110.04,52.87,109.95,52.59,109.86z"/>
	</g>
	<g id="SPLINE_867_">
		<path d="M67.22,107.37c0.34-0.1,0.62-0.23,0.92-0.27c0.18-0.03,0.42,0.03,0.57,0.13c0.24,0.16,0.2,0.44-0.07,0.58
			c-0.23,0.12-0.49,0.2-0.74,0.27c-0.63,0.17-0.64,0.29-0.73,0.8c-0.05,0.26-0.16,0.5-0.23,0.75c-0.04,0.13-0.05,0.26-0.08,0.39
			c0.02,0.03,0.05,0.05,0.07,0.08c0.27-0.07,0.57-0.11,0.82-0.23c0.54-0.26,1.11-0.31,1.68-0.29c0.18,0.01,0.38,0.15,0.52,0.28
			c0.08,0.08,0.11,0.33,0.05,0.39c-0.13,0.12-0.34,0.24-0.51,0.23c-0.72-0.04-1.43-0.08-2.13,0.14c-0.24,0.08-0.52,0.04-0.77,0.09
			c-0.21,0.04-0.45,0.09-0.61,0.22c-0.28,0.24-0.63,0.23-0.95,0.35c-0.41,0.15-0.82,0.4-1.26,0.34c-0.28-0.04-0.54-0.26-0.78-0.45
			c-0.09-0.07-0.13-0.27,0.1-0.34c0.07-0.02,0.11-0.11,0.18-0.14c0.08-0.03,0.18-0.08,0.25-0.05c0.43,0.19,0.85,0.12,1.27,0
			c0.29-0.09,0.6-0.15,0.87-0.28c0.12-0.05,0.23-0.24,0.24-0.37c0.02-0.24-0.03-0.48-0.05-0.72c-0.02-0.24-0.2-0.37-0.41-0.26
			c-0.26,0.14-0.54,0.15-0.8,0.1c-0.28-0.05-0.6-0.06-0.8-0.32c-0.13-0.16-0.06-0.3,0.14-0.34c0.58-0.14,1.15-0.27,1.72-0.44
			c0.15-0.04,0.3-0.14,0.31-0.36c0.01-0.32,0.07-0.63,0.09-0.95c0.01-0.26,0.21-0.41,0.47-0.33c0.33,0.09,0.39,0.39,0.51,0.65
			C67.14,107.13,67.18,107.25,67.22,107.37z"/>
	</g>
	<g id="SPLINE_866_">
		<path d="M64.17,105.83c0.48-0.07,0.95-0.14,1.41-0.2c0.01,0.03,0.03,0.07,0.04,0.1c-0.2,0.13-0.39,0.29-0.6,0.39
			c-0.27,0.13-0.56,0.2-0.83,0.31c-0.26,0.11-0.51,0.26-0.78,0.36c-0.18,0.06-0.46,0.15-0.57,0.06c-0.26-0.19-0.4-0.51-0.36-0.85
			c0.01-0.08,0.13-0.17,0.22-0.2c0.29-0.11,0.54-0.22,0.75-0.47c0.16-0.19,0.38-0.33,0.57-0.5c0.18-0.17,0.35-0.36,0.51-0.55
			c0.04-0.05,0.06-0.19,0.04-0.2c-0.09-0.05-0.2-0.11-0.29-0.09c-0.38,0.05-0.77,0.09-1.13-0.07c-0.14-0.06-0.27-0.16-0.38-0.26
			c-0.12-0.11-0.02-0.35,0.16-0.38c0.55-0.11,1.09-0.21,1.64-0.32c0.4-0.08,0.79-0.19,1.19-0.28c0.02,0,0.04,0,0.05-0.01
			c0.37-0.44,0.94-0.41,1.41-0.62c0.31-0.14,0.71-0.13,1.06-0.1c0.15,0.01,0.34,0.18,0.34,0.43c0,0.2-0.16,0.19-0.26,0.28
			c-0.31,0.26-0.68,0.19-1.02,0.25c-0.41,0.08-0.81,0.21-1.2,0.34c-0.04,0.01-0.07,0.09-0.08,0.14c-0.01,0.08,0,0.16,0.01,0.23
			c0.07,0.5-0.27,0.73-0.62,0.97c-0.26,0.18-0.49,0.4-0.74,0.59c-0.03,0.03-0.07,0.06-0.11,0.07
			C64.29,105.3,64.2,105.52,64.17,105.83z"/>
	</g>
	<g id="SPLINE_865_">
		<path d="M69.37,105.56c-0.03,0.07-0.06,0.23-0.14,0.26c-0.13,0.05-0.32,0.06-0.43,0c-0.55-0.29-1.11-0.53-1.74-0.58
			c-0.06,0-0.11-0.04-0.17-0.07c0.03-0.06,0.05-0.15,0.1-0.19c0.31-0.26,0.68-0.26,1.06-0.22c0.12,0.01,0.24,0.03,0.36,0.02
			c0.34-0.02,0.75,0.2,0.9,0.51C69.32,105.36,69.33,105.43,69.37,105.56z"/>
	</g>
	<g id="SPLINE_864_">
		<path d="M81.77,103.16c-0.02,0.51-0.16,0.59-0.73,0.66c-0.6,0.07-1.2,0.22-1.81,0.34c0.02-0.09-0.1-0.27,0.14-0.38
			c0.15-0.07,0.27-0.22,0.41-0.33c0.16-0.12,0.29-0.3,0.54-0.23c0.07,0.02,0.2-0.03,0.25-0.08c0.36-0.41,0.75-0.36,1.15-0.08
			C81.75,103.1,81.76,103.13,81.77,103.16z"/>
	</g>
	<g id="SPLINE_863_">
		<path d="M75.44,105.71c-0.15-0.03-0.32-0.03-0.46-0.1c-0.09-0.04-0.17-0.16-0.21-0.26c-0.02-0.05,0.07-0.15,0.14-0.2
			c0.06-0.05,0.15-0.08,0.22-0.07c0.5,0.07,0.74-0.41,1.14-0.56c0.07-0.03,0.06-0.36,0.03-0.55c-0.01-0.07-0.15-0.19-0.23-0.19
			c-0.15,0-0.3,0.06-0.44,0.13c-0.22,0.11-0.43,0.26-0.66,0.36c-0.05,0.02-0.17-0.1-0.26-0.15c0.06-0.09,0.11-0.24,0.19-0.28
			c0.46-0.16,0.7-0.58,1.06-0.86c0.03-0.03,0.01-0.22-0.03-0.24c-0.11-0.05-0.27-0.1-0.35-0.05c-0.18,0.11-0.31,0.28-0.47,0.42
			c-0.26,0.23-0.46,0.24-0.74,0.05c-0.1-0.07-0.16-0.16-0.01-0.26c0.42-0.28,0.84-0.55,1.24-0.86c0.26-0.2,0.46-0.5,0.73-0.69
			c0.3-0.21,0.42-0.64,0.84-0.7c0.08-0.01,0.17-0.04,0.25-0.06c0.27-0.06,0.38,0,0.44,0.23c0.06,0.24-0.05,0.38-0.27,0.48
			c-0.18,0.09-0.34,0.24-0.51,0.36c-0.06,0.04-0.12,0.08-0.19,0.11c-0.06,0.03-0.17,0.07-0.17,0.1c0,0.1,0.03,0.21,0.08,0.28
			c0.03,0.04,0.16,0.03,0.22,0c0.19-0.09,0.38-0.19,0.55-0.31c0.19-0.13,0.41-0.16,0.5-0.03c0.08,0.12-0.02,0.39-0.19,0.49
			c-0.22,0.14-0.45,0.28-0.65,0.44c-0.29,0.23-0.29,0.59-0.03,0.85c0.13,0.13,0.14,0.26,0.02,0.43c-0.19,0.25-0.38,0.46-0.7,0.53
			c-0.06,0.01-0.11,0.12-0.16,0.18c-0.2,0.2-0.4,0.38-0.6,0.58C75.66,105.44,75.56,105.57,75.44,105.71z"/>
	</g>
	<g id="SPLINE_862_">
		<path d="M80.26,107.28c-0.4,0.21-0.83,0.45-1.26,0.67c-0.13,0.06-0.28,0.07-0.42,0.12c-0.13,0.05-0.26,0.09-0.36,0.18
			c-0.3,0.25-0.27,0.19-0.59-0.06c-0.17-0.13-0.26-0.35-0.41-0.5c-0.21-0.2-0.36-0.51-0.73-0.51c-0.1,0-0.19-0.13-0.28-0.2
			c0.07-0.07,0.14-0.17,0.22-0.22c0.3-0.15,0.73-0.05,0.96,0.2c0.19,0.21,0.37,0.42,0.58,0.62c0.13,0.13,0.29,0.22,0.49,0.07
			c0.28-0.2,0.58-0.38,0.86-0.59c0.06-0.05,0.13-0.19,0.11-0.23c-0.12-0.23-0.05-0.46-0.04-0.69c0-0.03-0.02-0.06-0.06-0.15
			c-0.27,0.11-0.53,0.21-0.79,0.32c-0.12-0.17-0.2-0.32,0.05-0.46c0.08-0.04,0.14-0.13,0.18-0.2c0.3-0.49,0.78-0.52,1.28-0.48
			c0.24,0.02,0.37,0.14,0.36,0.41c-0.02,0.25-0.01,0.47-0.14,0.72C80.14,106.53,80.25,106.89,80.26,107.28z"/>
	</g>
	<g id="SPLINE_861_">
		<path d="M75.76,106.85c-0.19,0.04-0.33,0.05-0.46,0.09c-0.16,0.04-0.33,0.08-0.46,0.16c-0.28,0.18-0.56,0.37-0.82,0.58
			c-0.17,0.14-0.27,0.38-0.45,0.51c-0.35,0.27-0.72,0.54-1.21,0.3c-0.15-0.07-0.2-0.15-0.11-0.29c0.14-0.22,0.32-0.35,0.6-0.33
			c0.17,0.02,0.27-0.03,0.37-0.2c0.08-0.13,0.28-0.27,0.41-0.26c0.36,0.05,0.62-0.18,0.78-0.38c0.21-0.27,0.54-0.35,0.74-0.6
			c0.11-0.14,0.22-0.29,0.34-0.43c0.21-0.25,0.44-0.46,0.78-0.55c0.16-0.04,0.3-0.14,0.46-0.17c0.1-0.02,0.22,0.01,0.34,0.02
			c-0.01,0.1-0.01,0.21-0.04,0.3c-0.14,0.39-0.43,0.63-0.84,0.69c-0.17,0.03-0.24,0.11-0.27,0.28
			C75.9,106.69,75.81,106.78,75.76,106.85z"/>
	</g>
	<g id="SPLINE_860_">
		<path d="M77.95,105.31c-0.19-0.22-0.02-0.44,0.01-0.65c0.03-0.21,0.13-0.4,0.18-0.61c0.05-0.23-0.08-0.34-0.32-0.31
			c-0.09,0.01-0.19,0.02-0.28-0.02c-0.13-0.05-0.2-0.15-0.07-0.28c0.14-0.14,0.3-0.27,0.45-0.41c0.14-0.13,0.31-0.24,0.42-0.4
			c0.14-0.21,0.34-0.31,0.56-0.38c0.17-0.06,0.31-0.02,0.39,0.14c0.09,0.17,0.07,0.34-0.09,0.46c-0.15,0.11-0.31,0.21-0.47,0.3
			c-0.14,0.09-0.3,0.16-0.44,0.25c-0.04,0.03-0.09,0.1-0.08,0.14c0.02,0.06,0.07,0.13,0.12,0.15c0.44,0.11,0.49,0.14,0.43,0.59
			c-0.03,0.21-0.18,0.43-0.32,0.61C78.31,105.05,78.13,105.16,77.95,105.31z"/>
	</g>
	<g id="SPLINE_859_">
		<path d="M77.69,99.1c0.05,0.24-0.08,0.69-0.26,0.82c-0.2,0.14-0.44,0.24-0.49,0.54c-0.01,0.08-0.22,0.18-0.32,0.16
			c-0.2-0.04-0.3-0.23-0.23-0.41c0.18-0.48-0.08-0.89-0.15-1.33c-0.02-0.09-0.03-0.26,0.01-0.28c0.14-0.07,0.32-0.15,0.45-0.11
			c0.21,0.08,0.39,0.23,0.63,0.28C77.46,98.81,77.57,98.99,77.69,99.1z"/>
	</g>
	<g id="SPLINE_858_">
		<path d="M75.02,100.24c0.33,0.42,0.28,0.95-0.12,1.25c-0.16,0.13-0.46,0.09-0.59-0.07c-0.14-0.16-0.29-0.3-0.43-0.46
			c-0.04-0.05-0.1-0.17-0.08-0.19c0.05-0.06,0.16-0.13,0.21-0.11c0.43,0.2,0.67-0.02,0.87-0.36
			C74.9,100.27,74.97,100.26,75.02,100.24z"/>
	</g>
	<g id="LWPOLYLINE_95_">
		<polygon points="58.92,54.97 48.07,58.92 69.77,58.92 		"/>
	</g>
	<g id="LWPOLYLINE_94_">
		<polygon points="64.47,76.23 64.47,79.83 60.37,79.83 60.37,76.23 57.48,76.23 57.48,79.83 53.38,79.83 53.38,76.23 50.49,76.23 
			50.49,79.83 48.13,79.83 48.13,74.65 69.72,74.65 69.72,79.83 67.36,79.83 67.36,76.23 		"/>
	</g>
	<g id="LWPOLYLINE_93_">
		<rect x="48.13" y="59.86" width="21.59" height="1.84"/>
	</g>
	<path d="M69.72,70.04v-7.41H48.13v7.41h-0.98v0.91H70.7v-0.91H69.72z M54.68,70.03H50.4v-5.89h4.28V70.03z M61.06,70.03h-4.28
		v-5.89h4.28V70.03z M67.45,70.03h-4.28v-5.89h4.28V70.03z"/>
	<g>
		<g>
			<path class="st3" d="M73.2,32.55c-0.16,0-0.46,0.44-0.51,0.54c-0.04,0.09-0.1,0.21-0.14,0.29c-0.07,0.16-0.14,0.29-0.21,0.44
				c-0.09,0.18-0.23,0.35-0.31,0.53c-0.15,0.33-0.01,0.56,0.36,0.57c0.36,0.01,0.68-0.32,0.83-0.63c0.01-0.03,0.02-0.05,0.04-0.08
				c0.11-0.28,0.12-0.41,0.09-0.7C73.32,33.21,73.12,33.02,73.2,32.55z"/>
			<path class="st3" d="M81.7,31.8c-0.05-0.1-0.12-0.18-0.17-0.23c-0.17-0.17-0.37-0.27-0.63-0.29c-0.24-0.02-0.52-0.03-0.77-0.02
				c-0.17,0.01-0.28,0-0.39,0c0.01,0,0.13-1.12,0.14-1.2c0.01-0.16,0-0.32,0.02-0.49c0.05-0.42,0.09-0.83,0.12-1.25
				c0.01-0.13-0.02-0.25-0.01-0.38c0.01-0.12,0.02-0.23,0.02-0.35c-0.01-0.24-0.13-0.42-0.32-0.57c-0.24-0.19-0.6-0.04-0.92,0.08
				c-0.39,0.15-0.8,0.5-1.04,0.86c-0.11,0.17-0.27,0.38-0.42,0.5c-0.23,0.19-0.28-0.13-0.27-0.29c0.02-0.23,0-0.5,0.04-0.76
				c0.01-0.08,0.03-0.33,0.09-0.41c0.1-0.14,0.47-0.27,0.6-0.32c0.13-0.05,0.24-0.14,0.36-0.19c0.14-0.05,0.41-0.06,0.52-0.15
				c0.23-0.21-0.78-0.39-0.78-0.18c-0.07,0.02-0.2,0.13-0.26,0.17c-0.09,0.06-0.21,0.12-0.31,0.17c-0.05-0.14,0.05-0.32,0.03-0.47
				c-0.01-0.09-0.01-0.16-0.08-0.27c-0.19-0.3-0.47-0.13-0.63-0.13c0,0.07,0.17,0.07,0,0.06c0.25,0.12,0.06,0.68,0.04,0.89
				c-0.02,0.2-0.03,0.29-0.03,0.48c0,0.15-0.05,0.37-0.07,0.53c-0.02,0.17-0.01,0.5-0.01,0.73c0,0.13-0.02,0.33,0.04,0.43
				c0.11,0.17,0.27,0.26,0.21,0.5c-0.16,0.66-0.43,1.36-0.29,2.04c0.02,0.1,0.04,0.22,0.09,0.32c0.04,0.06,0.19,0.14,0.15,0.22
				c-0.03,0.06-0.15,0.03-0.2,0.04c-0.16,0.02-0.29,0.09-0.46,0.13c0.04-0.01,0.07-0.67,0.07-0.72c0.01-0.12,0.13-0.89-0.08-0.81
				c-0.01,0.09-0.02,0.41-0.16,0.41c-0.04,0-0.33-0.78-0.36-0.87c-0.09-0.32-0.12-0.65,0.05-0.95c0.09-0.16,0.24-0.35,0.19-0.54
				c-0.02-0.08-0.17-0.33-0.28-0.33c-0.16,0.01-0.21,0.4-0.23,0.52c-0.13,0.59-0.17,1.2-0.11,1.8c0.03,0.29,0.08,0.59,0.15,0.87
				c0.01,0.05,0.22,0.79,0.21,0.79c-0.02,0-0.02-0.01-0.02-0.03c-0.15,0-0.42,0.15-0.56,0.2c0-0.09,0.08-0.18,0.09-0.28
				c0.02-0.12-0.05-0.34-0.05-0.45c-0.03-0.38-0.07-0.92-0.08-1.43c-0.01-0.41-0.29-0.63-0.64-0.8c-0.07-0.04-0.24-0.16-0.32-0.11
				c-0.07,0.04-0.01,0.24-0.06,0.24c0.12,0.2,0.22,0.29,0.26,0.49c0.02,0.11,0.07,0.34,0.09,0.49c0.05,0.42,0.08,0.91,0.13,1.3
				c0.04,0.28,0.09,0.47,0.15,0.75c-0.09,0-0.18,0.2-0.32,0.15c0,0.03-0.02,0-0.02,0.03c0.41,0.07,0.74,0.02,1.11-0.05
				c0.16-0.03,0.34-0.15,0.47-0.06c0.04,0.03,0.14,0.26,0.19,0.27c0.17,0.04,0.09-0.36,0.14-0.44c0.08-0.12,0.35-0.15,0.47-0.17
				c0.11-0.02,0.22-0.04,0.33-0.06c0.15-0.02,0.17,0.01,0.3,0.08c0.02,0.01,0.03,0.02,0.05,0.01c0.03,0,0.04-0.03,0.06-0.05
				c0.07-0.11,0.08-0.13,0.21-0.16c0.15-0.03,0.29-0.06,0.44-0.08c0.08-0.01,0.16-0.01,0.23-0.03c0.05-0.01,0.1-0.04,0.15-0.03
				c0.16,0.04,0.08,0.32,0.12,0.44c0.05,0.15,0.19,0.32,0.34,0.38c0.17,0.06,0.34-0.08,0.43-0.22c0.09-0.15,0.14-0.31,0.18-0.48
				c0.03-0.12,0.11-0.25,0.12-0.36c0.25,0.04,0.51-0.04,0.76-0.03c0.05,0,0.18-0.02,0.26,0c0.24,0.06,0.12,0.04,0.05,0.15
				c-0.1,0.16-0.22,0.24-0.35,0.38c-0.22,0.24-0.43,0.48-0.68,0.68c-0.12,0.1-0.25,0.19-0.38,0.29c-0.07,0.05-0.13,0.11-0.19,0.16
				c-0.04,0.04-0.1,0.15-0.13,0.17c-0.08,0.05-0.22-0.04-0.35-0.03c-0.16,0.01-0.3,0.09-0.45,0.14c-0.41,0.14-0.79,0.34-1.15,0.53
				c-0.2,0.11-0.55,0.43-0.39,0.71c0.18,0.32,0.37,0.01,0.54-0.1c0.11-0.07,0.23-0.11,0.38-0.17c0.13-0.05,0.42-0.24,0.56-0.24
				c-0.09,0.52-0.5,0.84-0.69,1.28c-0.08,0.19-0.05,0.42,0.06,0.59c0.11,0.16,0.33,0.35,0.21,0.56c-0.12,0.22-0.4,0.2-0.61,0.23
				c-0.24,0.04-0.66,0.1-0.86,0.23c-0.89,0.56-0.38,2.04,0.56,2.21c0.45,0.08,0.93-0.08,1.27-0.37c0.25-0.22,0.46-0.5,0.58-0.82
				c0.08-0.21,0.13-0.46,0.15-0.69c0.01-0.08-0.01-0.16,0.04-0.22c0.09-0.1,0.27-0.09,0.39-0.09c0.28,0.01,0.56,0.01,0.84,0.07
				c0.34,0.07,0.64,0.26,0.98,0.33c0.02,0,0.03,0.01,0.05,0c0.03-0.02,0.02-0.06,0-0.09c-0.05-0.11-0.1-0.22-0.16-0.34
				c-0.08-0.17-0.13-0.34-0.28-0.44c-0.2-0.14-0.5-0.11-0.73-0.1c-0.28,0.01-0.57-0.04-0.86,0c-0.17,0.02-0.25-0.01-0.28-0.21
				c-0.02-0.15,0.03-0.35-0.06-0.48c-0.11-0.15-0.32-0.14-0.45-0.16c-0.2-0.02-0.43-0.03-0.58-0.03c0.01-0.25,0.15-0.41,0.31-0.6
				c0.08-0.1,0.51-0.5,0.49-0.58c0.08,0.03,0.45-0.47,0.46-0.49c0.05-0.06,0.22-0.21,0.23-0.26c0.01-0.07-0.06-0.29-0.19-0.29
				c0.05-0.17,0.37-0.26,0.49-0.31c0,0.06,0.07-0.01,0.09,0c0.26,0,0.68-0.23,0.89-0.34c0.27-0.14,0.46-0.32,0.71-0.47
				c0.14-0.08,0.27-0.18,0.4-0.25C81.78,32.13,81.83,32.05,81.7,31.8z M77.55,30.61c-0.02,0.15-0.04,0.45-0.14,0.59
				c-0.17,0.24-0.32,0.03-0.42-0.13c-0.15-0.22-0.14-0.43-0.1-0.76c0.02-0.18,0.09-1.19,0.32-1.19c0-0.11,0.19,0.08,0.21,0.12
				c0.05,0.09,0.03,0.21,0.05,0.32c0.03,0.26,0.07,0.55,0.09,0.84C77.55,30.44,77.55,30.55,77.55,30.61z M78.98,32.06
				c0-0.02-0.56-0.17-0.6-0.15c0.06-0.12,0.54-0.09,0.66-0.11C79.04,31.81,79.04,32.08,78.98,32.06z M79.16,31.21
				c-0.01,0.18-0.18,0.2-0.32,0.22c-0.2,0.03-0.39,0.08-0.59,0.12c-0.05,0.01-0.48,0.08-0.49,0.11c0.08-0.35,0.15-0.69,0.18-1.05
				c0.02-0.21,0.02-0.52,0.02-0.75c0-0.11-0.06-0.38,0.01-0.45c-0.03,0.01-0.04,0-0.03-0.03c0-0.01,0.16-0.03,0.17-0.03
				c0.07,0,0.11,0.01,0.16,0.05c0.09,0.08,0.14,0.2,0.15,0.32c0.01,0.16-0.03,0.32-0.05,0.48c-0.02,0.16,0,0.33,0.11,0.45
				c0.09,0.1,0.23,0.14,0.34,0.2c0.15,0.08,0.26,0.15,0.44,0.15C79.21,31.01,79.16,31.16,79.16,31.21z M79.4,28.86
				c-0.02,0.19-0.03,0.3-0.05,0.5c-0.02,0.28-0.07,0.55-0.12,0.83c-0.01,0.07,0,0.18-0.07,0.22c-0.07,0.03-0.23-0.02-0.28-0.08
				c-0.18-0.19-0.02-0.54,0.09-0.71c0.12-0.18,0.29-0.41,0.07-0.59c-0.35-0.3-0.76,0.26-1.15,0.29c0-0.03-0.08-0.32-0.05-0.31
				c-0.14,0-0.21-0.4-0.38-0.38c0.03-0.27,0.44-0.47,0.65-0.61c0.09-0.06,0.59-0.29,0.59-0.37c0.33-0.03,0.62-0.27,0.73,0.31
				C79.49,28.2,79.42,28.65,79.4,28.86z M77.91,37.7c-0.04,0.32-0.07,0.61-0.26,0.89c-0.1,0.14-0.23,0.27-0.38,0.35
				c-0.12,0.06-0.33,0.14-0.47,0.12c-0.2-0.03-0.38-0.08-0.53-0.22c-0.23-0.21-0.31-0.58-0.17-0.87c0.13-0.28,0.42-0.42,0.7-0.51
				c0.2-0.06,0.41-0.09,0.62-0.11c0.12-0.01,0.25-0.06,0.37-0.03c0.2,0.04,0.13,0.17,0.11,0.33C77.91,37.67,77.91,37.69,77.91,37.7z
				"/>
		</g>
		<g>
			<path class="st3" d="M41.1,33.97c0.07-0.05,0.27-0.05,0.28-0.17c0.01-0.17-0.64-0.39-0.81-0.37c-0.17,0.01-0.45,0.22-0.62,0.12
				c-0.16-0.09-0.1-0.51-0.08-0.66c0.02-0.13,0.09-0.19,0.21-0.2c0.16-0.01,0.32-0.05,0.49-0.06c0.12-0.01,0.26-0.01,0.32-0.14
				c0.03-0.07-0.07-0.32-0.11-0.37c-0.13-0.17-0.22-0.05-0.39,0c-0.15,0.04-0.38,0.12-0.43-0.04c-0.06-0.18-0.03-0.47-0.03-0.66
				c0-0.22,0.22-0.19,0.41-0.23c0.57-0.12,1.15-0.23,1.72-0.33c0.14-0.02,0.28-0.04,0.42-0.06c0.1-0.02,0.15-0.05,0.12,0.08
				c-0.05,0.19-0.17,0.35-0.25,0.52c-0.11,0.24-0.26,0.4-0.42,0.64c-0.19,0.27-0.4,0.57-0.66,0.83c-0.06,0.06-0.17,0.21-0.26,0.23
				c-0.1,0.03-0.23-0.01-0.33,0.04c-0.16,0.08,0.06,0.15,0.13,0.18c0.2,0.07,0.44,0.18,0.67,0.09c0.23-0.09,0.46-0.28,0.65-0.44
				c0.37-0.31,0.71-0.65,1.02-1.01c0.15-0.18,0.29-0.37,0.43-0.56c0.06-0.09,0.11-0.14,0.19-0.2c0.06-0.05,0.1-0.08,0.12-0.16
				c0.04-0.18-0.09-0.28-0.19-0.4c-0.11-0.15-0.1-0.39-0.29-0.5c-0.12-0.07-0.29-0.06-0.42-0.04c-0.16,0.03-2.35,0.49-2.65,0.57
				c-0.19,0.05-0.31,0.09-0.34-0.16c-0.03-0.22-0.05-0.41,0.01-0.62c0.05-0.18,0.09-0.15,0.26-0.15c0.11,0,0.22,0,0.33-0.02
				c0.22-0.03-0.36-0.65-0.39-0.73c-0.09-0.18,0-0.42-0.03-0.61c-0.04-0.27,0-0.58,0.06-0.85c0.04-0.16,0.04-0.33,0.02-0.49
				c-0.01-0.08-0.03-0.17-0.07-0.24c-0.09-0.15-0.27-0.24-0.44-0.26c-0.04,0-0.08-0.01-0.13,0c-0.17,0-0.34,0.05-0.51,0.08
				c-0.15,0.02-0.36,0.02-0.47,0.15c-0.12,0.13,0.1,0.29,0.19,0.35c0.06,0.04,0.14,0.08,0.18,0.14c0.04,0.07,0.05,0.18,0.07,0.26
				c0.09,0.46,0.06,0.92,0.05,1.38c0,0.25-0.06,0.25-0.27,0.31c-0.5,0.15-1.04,0.25-1.57,0.25c-0.03,0-0.29,0.02-0.29,0.03
				c0.05,0.14,0.34,0.31,0.45,0.38c0.13,0.09,0.29,0.16,0.47,0.22c0.28,0.09,0.3,0.06,0.61-0.03c0.25-0.08,0.4-0.1,0.59-0.1
				c0.02,0,0,0.63-0.01,0.68c-0.01,0.32-0.11,0.31-0.42,0.38c-0.28,0.06-0.56,0.12-0.84,0.18c-0.17,0.04-0.31,0.1-0.49,0.15
				c-0.17,0.05-0.5,0.21-0.79,0.2c0,0.02,0.42,0.21,0.48,0.23c0.15,0.07,0.31,0.1,0.43,0.09c0.24-0.02,0.52-0.13,0.77-0.18
				c0.17-0.04,0.59-0.24,0.75-0.2c0.18,0.05,0.11,0.4,0.09,0.55c-0.01,0.1-0.01,0.29-0.06,0.37c-0.09,0.14-0.37,0.15-0.52,0.19
				c-0.26,0.08-1.36,0.33-1.36,0.57c0,0.02,0.36,0.06,0.39,0.07c0.08,0.01,0.16,0.04,0.24,0.05c0.11,0.02,0.22-0.02,0.33-0.05
				c0.19-0.06,0.39-0.1,0.59-0.13c0.15-0.02,0.33-0.11,0.38,0.07c0.02,0.1,0.01,0.18,0.01,0.27c0,0.17-0.02,0.31-0.05,0.47
				c0,0.02-0.03,0.04-0.05,0.04c-0.09,0-0.18-0.01-0.27,0.01C38.6,34,38.47,34,38.39,34.05c-0.17,0.07-0.33,0.17-0.5,0.26
				c-0.11,0.06-0.35,0.22-0.45,0.07c-0.04-0.05-0.04-0.12-0.05-0.18c-0.04-0.38-0.22-0.74-0.4-1.08c-0.04-0.08-0.08-0.15-0.13-0.22
				c-0.05-0.07-0.07-0.14-0.13-0.2c-0.07-0.06-0.15-0.1-0.24-0.13c-0.2-0.07-0.42-0.08-0.63-0.1c-0.09-0.01-0.39-0.03-0.39,0.11
				c0,0.09,0.12,0.19,0.18,0.26c0.09,0.11,0.18,0.22,0.25,0.34c0.09,0.18,0.22,0.41,0.32,0.59c0.1,0.17,0.25,0.43,0.42,0.53
				c0.05,0.03,0.11,0.03,0.16,0.05c0.04,0.02,0.09,0.04,0.12,0.07c0.02,0.02,0.04,0.05,0.05,0.07c0.01,0.02,0.05,0.04,0.05,0.06
				c0,0.04-0.08,0.06-0.11,0.06c-0.08,0.02-0.05,0.1,0.01,0.12c0.17,0.08,0.42,0.02,0.59-0.02c0.14-0.03,0.28-0.06,0.42-0.09
				c0.12-0.03,0.25-0.05,0.37-0.09c0.1-0.03,0.21-0.07,0.31-0.1c0.09-0.03,0.19-0.06,0.28-0.09c0.04-0.01,0.08-0.03,0.11-0.05
				c0.08,0.15,0.03,0.4,0.04,0.57c0.01,0.23-0.29,0.47-0.43,0.64c-0.18,0.21-0.36,0.41-0.55,0.61c-0.37,0.39-0.76,0.77-1.16,1.14
				c-0.16,0.15-0.33,0.3-0.51,0.45c-0.09,0.07-0.17,0.14-0.26,0.21c-0.02,0.01-0.19,0.15-0.18,0.16c-0.07-0.02-0.08,0.04-0.02,0.07
				c0.03,0.01,0.1-0.02,0.15-0.02c0.17-0.01,0.34-0.1,0.49-0.17c0.17-0.09,0.35-0.17,0.52-0.26c0.34-0.17,0.65-0.39,0.94-0.63
				c0.28-0.23,0.55-0.45,0.8-0.71c0.04-0.04,0.09-0.15,0.14-0.07c0.03,0.04,0,0.13,0,0.17c0,0.15,0.01,0.29,0.01,0.44
				c0.01,0.28,0.02,0.57,0.02,0.85c0,0.06,0.03,0.34,0,0.45c-0.07,0.29-0.53,0.19-0.74,0.17c-0.2-0.02-0.37-0.1-0.58-0.08
				c-0.18,0.02,0.06,0.22,0.1,0.27c0.24,0.27,0.63,0.5,0.96,0.63c0.2,0.08,0.5,0.3,0.73,0.22c0.09-0.03,0.15-0.12,0.17-0.21
				c0.02-0.1,0.05-0.21,0.06-0.31c0.01-0.14,0.04-0.27,0.04-0.4c0.02-0.46,0.03-0.92,0.04-1.38c0-0.45-0.03-0.9-0.03-1.35
				c0-0.21-0.01-0.37,0.14-0.53c0.11-0.13,0.26-0.22,0.37-0.36c0.15-0.18,0.31-0.36,0.47-0.52C40.86,34.21,40.98,34.06,41.1,33.97z"
				/>
			<path class="st3" d="M44.2,37.41c-0.05-0.15-0.11-0.31-0.24-0.41c-0.29-0.24-0.68-0.34-1.03-0.45c-0.41-0.13-0.82-0.23-1.24-0.31
				c-0.09-0.02-0.18-0.03-0.27-0.04c-0.07-0.01-0.7-0.06-0.71-0.11c0.05,0.27,0.52,0.57,0.76,0.66c0.33,0.13,0.6,0.29,0.9,0.41
				c0.1,0.04,0.54,0.15,0.59,0.24c0.2,0.35-0.72,0.66-0.83,0.94c0.07,0.02,0.14,0.01,0.21-0.01c0.22-0.05,0.43-0.07,0.65-0.14
				c0.37-0.13,0.76-0.27,1.12-0.43C44.28,37.68,44.25,37.6,44.2,37.41z"/>
		</g>
		<g>
			<path class="st3" d="M50.13,34.94c0.02,0,0.03,0.01,0.05,0c0.04-0.01,0.1-0.09,0.13-0.12c0.08-0.07,0.15-0.13,0.22-0.21
				c0.19-0.21,0.37-0.44,0.54-0.66c0.06-0.08,0.42-0.51,0.12-0.47c-0.28,0.03-0.54,0.2-0.75,0.38c-0.17,0.14-0.38,0.32-0.62,0.3
				c-0.06,0-0.28,0.02-0.22-0.09c0.11-0.18,0.28-0.35,0.4-0.53c0.14-0.21,0.27-0.43,0.38-0.66c0.15-0.32,0.29-0.65,0.39-0.99
				c0.1-0.34,0.18-0.69,0.28-1.03c0.05-0.18,0.07-0.37,0.12-0.54c0.03-0.08,0.02-0.24,0.1-0.29c0.09-0.07,0.24-0.05,0.35-0.07
				c0.15-0.03,0.3-0.06,0.44-0.08c0.33-0.05,0.65-0.12,0.97-0.22c0.19-0.06,0.36-0.13,0.56-0.17c0.16-0.04,0.34-0.18,0.3-0.36
				c-0.03-0.14-0.2-0.2-0.3-0.3c-0.16-0.15-0.14-0.16-0.28-0.04c-0.04,0.03-0.04,0.08-0.08,0.13c-0.05,0.05-0.03-0.01-0.11,0.03
				c-0.32,0.16-0.66,0.25-1.01,0.33c-0.16,0.04-0.4,0.16-0.56,0.09c-0.2-0.08-0.15-0.5-0.12-0.68c0.03-0.17,0.23-0.38,0.08-0.54
				c-0.02-0.02-0.05-0.03-0.08-0.03c-0.14-0.02-0.28-0.03-0.42-0.03c-0.04,0-0.23-0.03-0.27,0c-0.07,0.05-0.02,0.38-0.02,0.45
				c0.01,0.18,0.02,0.37,0.04,0.55c0.01,0.1,0.06,0.27-0.01,0.36c-0.09,0.1-0.36,0.1-0.48,0.12c-0.38,0.06-0.77,0.11-1.16,0.08
				c-0.36-0.03-0.14,0.37,0.03,0.48c0.15,0.1,0.34,0.12,0.52,0.11c0.18,0,0.36-0.04,0.54-0.06c0.18-0.02,0.46-0.12,0.48,0.12
				c0.01,0.24-0.09,0.45-0.14,0.68c-0.08,0.39-0.16,0.75-0.29,1.06c-0.2,0.46-0.41,0.91-0.69,1.32c-0.04,0.07-0.16,0.16-0.21,0.21
				c-0.09,0.09-0.07,0.14-0.19,0.2c-0.08,0.04-0.19-0.02-0.29,0.04c-0.04,0.02-0.07,0.07-0.11,0.1c0.01,0.04,0.06,0.05,0.1,0.06
				c0.14,0.04,0.25,0.16,0.35,0.27C49.45,34.5,49.72,34.85,50.13,34.94z"/>
			<path class="st3" d="M56.97,31.82c-0.01-0.02-0.02-0.04-0.04-0.06c-0.13-0.17-0.31-0.37-0.48-0.49c-0.16-0.11-0.34-0.03-0.5,0.03
				c-0.36,0.13-0.72,0.18-1.08,0.28c-0.41,0.11-0.83,0.23-1.24,0.34c-0.33,0.09-0.66,0.15-0.99,0.22c-0.15,0.04-0.42,0.09-0.54,0.2
				c-0.24,0.23,0.12,0.25,0.35,0.3c0.43,0.09,0.82,0.04,1.25-0.04c0.29-0.05,2.15-0.64,2.21-0.3c0.01,0.06-0.02,0.16-0.03,0.22
				c-0.01,0.12,0,0.25,0,0.37c-0.01,0.24-0.02,0.48-0.05,0.72c-0.05,0.48-0.12,0.96-0.22,1.43c-0.04,0.21-0.09,0.42-0.13,0.62
				c-0.09,0.41-0.19,0.82-0.37,1.19c-0.06,0.14-0.14,0.27-0.25,0.37c-0.13,0.12-0.29,0.11-0.46,0.12c-0.16,0.01-0.32,0.02-0.49,0.01
				c-0.1,0-0.2-0.01-0.3-0.02c-0.09-0.01-0.17-0.03-0.26-0.01c-0.03,0.01-0.11,0-0.13,0.04c-0.01,0.04,0.04,0.08,0.07,0.1
				c0.15,0.14,0.34,0.22,0.49,0.36c0.29,0.26,0.55,0.55,0.82,0.8c0.08,0.08,0.14,0.22,0.24,0.26c0.32,0.15,0.79-0.74,0.9-0.95
				c0.69-1.24,0.85-2.81,1.02-4.19c0.08-0.61,0.06-1.25,0.19-1.85C56.97,31.89,56.98,31.85,56.97,31.82z"/>
			<path class="st3" d="M52.1,34.79c0.32-0.2,0.69-0.3,1.05-0.41c0.06-0.02,0.2-0.06,0.17-0.14c-0.02-0.07-0.18-0.08-0.24-0.09
				c-0.19-0.03-0.36-0.04-0.54,0.01c-0.11,0.03-0.21,0.11-0.32,0.14c-0.14,0.05-0.38,0.19-0.53,0.13c-0.12-0.05-0.02-0.11,0.03-0.16
				c0.09-0.08,0.19-0.16,0.25-0.26c0.14-0.22,0.34-0.45,0.44-0.65c0.18-0.36-0.39-0.45-0.68-0.45c-0.04-0.02,0,0.11,0,0.2
				c0,0.15-0.11,0.26-0.16,0.41c-0.11,0.28-0.23,0.47-0.38,0.72c-0.07,0.11-0.16,0.26-0.25,0.39c-0.19,0.32-0.66,0.45-1,0.53
				c-0.15,0.03-0.32,0.02-0.45,0.11c-0.19,0.13,0.04,0.29,0.16,0.35c0.15,0.08,0.33,0.12,0.5,0.12c0.24-0.01,0.44-0.14,0.61-0.3
				c0.14-0.13,0.35-0.16,0.43,0.06c0.08,0.22,0.02,0.46,0.02,0.65c-0.12-0.04-0.33,0.13-0.44,0.17c-0.17,0.07-0.34,0.15-0.51,0.21
				c-0.21,0.07-0.39,0.18-0.59,0.26c-0.15,0.06-0.04,0.15,0.06,0.2c0.22,0.11,0.55,0.06,0.78-0.01c0.19-0.05,0.37-0.16,0.57-0.2
				c0.03-0.01,0.06-0.01,0.08-0.01c0.12,0.02,0.04,0.21,0.04,0.29c-0.01,0.13-0.01,0.32-0.02,0.42c-0.01,0.46-0.08,0.9-0.16,1.35
				c-0.03,0.19-0.08,0.36-0.12,0.54c-0.05,0.2,0.16,0.2,0.29,0.12c0.17-0.1,0.23-0.39,0.29-0.56c0.09-0.25,0.18-0.5,0.25-0.75
				c0.13-0.48,0.22-0.99,0.2-1.49c-0.01-0.2-0.08-0.39,0.17-0.45c0.17-0.05,0.33-0.11,0.49-0.17c0.04-0.01,0.08-0.03,0.12-0.04
				c0.05-0.01,0.09-0.02,0.13-0.04c0.26-0.14-0.18-0.41-0.31-0.43c-0.2-0.03-0.3,0.09-0.45,0.18c-0.19,0.11-0.18,0.11-0.21-0.08
				C51.83,35.36,51.79,34.98,52.1,34.79z"/>
			<path class="st3" d="M48.11,35.97c-0.04-0.26-0.05-0.52-0.05-0.78c0-0.19,0-0.38,0.01-0.57c0-0.14,0.04-0.3-0.02-0.43
				c-0.03-0.06-0.09-0.11-0.14-0.15c-0.07-0.06-0.11-0.13-0.17-0.2c-0.05-0.06-0.11-0.11-0.16-0.17c-0.02-0.03-0.06-0.06-0.09-0.06
				c-0.02,0-0.03,0-0.05,0.01c-0.03,0.02-0.03,0.07-0.02,0.11c0.02,0.09,0,0.18,0,0.26c0,0.18-0.01,0.36-0.04,0.53
				c-0.05,0.28-0.12,0.55-0.18,0.82c-0.02,0.07-0.03,0.13-0.05,0.2c-0.1,0.41-0.08,0.84,0.14,1.21c0.14,0.23,0.4,0.65,0.7,0.7
				c0.51,0.09,0.34-0.72,0.25-0.99C48.18,36.32,48.14,36.14,48.11,35.97z"/>
		</g>
		<path class="st3" d="M66.78,33.12c0.33-0.14,0.67-0.3,1.01-0.41c0.14-0.05,0.29-0.09,0.43-0.1c0.11-0.01,0.28,0.04,0.36-0.03
			c0.26-0.24-0.19-0.89-0.35-1.07c-0.21-0.25-0.35-0.17-0.59-0.02c-0.2,0.12-0.38,0.26-0.59,0.37c-0.31,0.15-0.62,0.27-0.94,0.4
			c-0.22,0.09-0.41,0.14-0.64,0.2c-0.19,0.05-0.38,0.09-0.58,0.13c-0.34,0.07-0.47,0.14-0.51-0.25c-0.05-0.5-0.06-1-0.06-1.5
			c0-0.2,0-0.4-0.01-0.59c-0.01-0.49-0.05-0.98-0.05-1.47c0-0.09,0.03-0.24,0.05-0.33c0.06-0.27,0.17-0.3-0.11-0.44
			c-0.22-0.11-0.35-0.04-0.56,0.04c-0.03,0.02-0.02,0.77-0.02,0.84c-0.02,0.5,0.06,1,0.02,1.49c-0.05,0.57-0.02,1.15-0.04,1.72
			c-0.01,0.19,0.06,0.51-0.07,0.68c-0.12,0.14-0.38,0.08-0.54,0.09c-0.27,0.03-0.53,0.04-0.8,0.03c-0.27-0.01-0.53,0.05-0.8,0.05
			c-0.04,0-0.08,0-0.12,0l0.03,0.11c0.28,0.19,0.6,0.35,0.91,0.47c0.33,0.12,0.68,0.21,1.03,0.26c0.09,0.01,0.24,0,0.29,0.1
			c0.06,0.12-0.03,0.25-0.06,0.37c-0.07,0.34-0.14,0.68-0.24,1.01c-0.09,0.29-0.18,0.57-0.29,0.85c-0.1,0.26-0.3,0.5-0.46,0.73
			c-0.37,0.55-0.87,0.96-1.53,1.11c-0.06,0.01-0.13,0.03-0.17,0.08c-0.04,0.05-0.03,0.13,0,0.19c0.03,0.06,0.09,0.1,0.15,0.12
			c0.11,0.05,0.24,0.07,0.36,0.09c0.65,0.1,1.45,0.27,1.99-0.2c0.11-0.1,0.35-0.34,0.39-0.48c0.24-0.95,0.4-1.91,0.49-2.89
			c0.02-0.24,0.04-0.49,0.05-0.73c0-0.08-0.02-0.22,0.05-0.27c0.09-0.07,0.27-0.02,0.36-0.02c0.37,0,0.74-0.09,1.07-0.25
			c0.15-0.08,0.28-0.17,0.44-0.23C66.38,33.31,66.58,33.21,66.78,33.12z"/>
		<path class="st3" d="M68.33,37.22c-0.09-0.13-0.18-0.25-0.26-0.36c-0.4-0.53-0.96-0.94-1.6-1.13c-0.06-0.02-0.49-0.07-0.51-0.11
			c0,0,0.18,0.1,0.06,0.1c0.09,0.16,0.22,0.31,0.32,0.46c0.12,0.18,0.23,0.37,0.34,0.55c0.14,0.24,0.28,0.51,0.36,0.78
			c0.08,0.24,0.11,0.5,0.24,0.73c0.14,0.26,0.44,0.44,0.72,0.47c0.2,0.02,0.68,0.2,0.76-0.12c0.05-0.17-0.03-0.48-0.08-0.65
			C68.62,37.69,68.48,37.44,68.33,37.22z"/>
		<path class="st3" d="M61.08,33.16c0.11-0.1,0.04-0.25-0.06-0.32c-0.11-0.07-0.24-0.1-0.37-0.12c-0.09-0.02-0.18,0.02-0.24,0.09
			c-0.03,0.04-0.04,0.08-0.08,0.11c-0.04,0.02-0.11,0.02-0.13,0.07c-0.01,0.03,0.02,0.07,0.05,0.09c0.1,0.07,0.21,0.06,0.32,0.08
			c0.09,0.01,0.18,0.02,0.27,0.02C60.91,33.18,61.03,33.21,61.08,33.16z"/>
	</g>
	<path d="M58.92,0C26.38,0,0,26.38,0,58.92s26.38,58.92,58.92,58.92s58.92-26.38,58.92-58.92S91.47,0,58.92,0z M58.92,115.64
		c-31.32,0-56.71-25.39-56.71-56.71S27.6,2.21,58.92,2.21s56.71,25.39,56.71,56.71S90.24,115.64,58.92,115.64z"/>
</g>
<g>
	<g>
		<path class="st3" d="M339.86,43.61c-0.83,0-2.35,2.25-2.61,2.76c-0.23,0.45-0.5,1.07-0.71,1.49c-0.38,0.8-0.74,1.51-1.1,2.28
			c-0.45,0.94-1.19,1.83-1.61,2.75c-0.78,1.72-0.07,2.89,1.85,2.93c1.86,0.05,3.5-1.66,4.25-3.22c0.07-0.14,0.13-0.28,0.18-0.42
			c0.55-1.44,0.59-2.1,0.48-3.62C340.48,47.02,339.43,46.05,339.86,43.61z"/>
		<path class="st3" d="M174.7,50.93c0.38-0.28,1.4-0.27,1.43-0.87c0.04-0.87-3.27-1.98-4.17-1.91c-0.89,0.08-2.31,1.14-3.17,0.61
			c-0.8-0.48-0.53-2.61-0.44-3.39c0.08-0.69,0.45-0.98,1.1-1.03c0.84-0.07,1.67-0.24,2.51-0.33c0.61-0.06,1.32-0.05,1.64-0.71
			c0.17-0.35-0.34-1.63-0.56-1.91c-0.69-0.88-1.11-0.24-2.03,0c-0.76,0.2-1.93,0.63-2.23-0.21c-0.33-0.94-0.17-2.41-0.16-3.4
			c0.01-1.14,1.13-0.97,2.1-1.17c2.95-0.6,5.9-1.2,8.87-1.68c0.71-0.11,1.43-0.19,2.14-0.33c0.52-0.1,0.78-0.24,0.62,0.39
			c-0.25,0.96-0.88,1.81-1.3,2.7c-0.57,1.21-1.32,2.05-2.18,3.3c-0.96,1.38-2.08,2.93-3.38,4.29c-0.29,0.3-0.85,1.06-1.35,1.19
			c-0.53,0.14-1.17-0.07-1.69,0.19c-0.82,0.41,0.29,0.8,0.67,0.93c1.05,0.37,2.28,0.91,3.42,0.47c1.18-0.44,2.36-1.46,3.34-2.25
			c1.91-1.57,3.67-3.32,5.26-5.21c0.78-0.93,1.52-1.9,2.21-2.9c0.32-0.46,0.55-0.7,0.96-1.04c0.31-0.25,0.5-0.4,0.6-0.82
			c0.22-0.94-0.48-1.44-0.97-2.08c-0.58-0.75-0.54-2-1.48-2.56c-0.61-0.36-1.51-0.32-2.17-0.2c-0.83,0.15-12.1,2.54-13.64,2.92
			c-0.99,0.24-1.57,0.48-1.77-0.82c-0.17-1.12-0.25-2.1,0.04-3.2c0.25-0.92,0.48-0.77,1.34-0.79c0.57-0.01,1.15-0.01,1.72-0.08
			c1.11-0.13-1.83-3.36-2.03-3.74c-0.47-0.91-0.01-2.16-0.14-3.13c-0.19-1.39,0.01-2.99,0.31-4.36c0.18-0.83,0.22-1.69,0.11-2.53
			c-0.06-0.43-0.15-0.87-0.37-1.25c-0.45-0.8-1.38-1.24-2.29-1.34c-0.22-0.02-0.44-0.03-0.65-0.02c-0.88,0.03-1.74,0.26-2.6,0.4
			c-0.79,0.13-1.84,0.13-2.44,0.76c-0.63,0.68,0.51,1.48,0.99,1.82c0.32,0.23,0.74,0.4,0.94,0.74c0.21,0.35,0.26,0.94,0.35,1.34
			c0.48,2.34,0.31,4.74,0.27,7.11c-0.02,1.27-0.29,1.29-1.41,1.61c-2.58,0.75-5.35,1.29-8.05,1.27c-0.18,0-1.49,0.12-1.48,0.16
			c0.26,0.7,1.77,1.58,2.32,1.96c0.65,0.46,1.5,0.84,2.44,1.13c1.46,0.45,1.55,0.33,3.16-0.18c1.29-0.41,2.06-0.54,3.04-0.54
			c0.11,0-0.02,3.25-0.03,3.5c-0.07,1.66-0.57,1.58-2.14,1.93c-1.44,0.32-2.9,0.6-4.34,0.92c-0.86,0.19-1.57,0.5-2.54,0.79
			c-0.89,0.27-2.6,1.07-4.05,1.03c0,0.09,2.18,1.06,2.46,1.19c0.78,0.35,1.6,0.54,2.22,0.48c1.25-0.13,2.68-0.69,3.94-0.95
			c0.87-0.18,3.03-1.23,3.84-1.02c0.95,0.25,0.54,2.04,0.46,2.81c-0.05,0.52-0.04,1.47-0.33,1.91c-0.47,0.73-1.92,0.75-2.67,0.99
			c-1.35,0.43-6.99,1.72-6.99,2.94c0,0.1,1.86,0.33,2.01,0.35c0.42,0.07,0.82,0.19,1.23,0.28c0.58,0.12,1.15-0.08,1.7-0.27
			c0.98-0.33,2.01-0.5,3.03-0.66c0.75-0.11,1.7-0.58,1.93,0.37c0.12,0.49,0.03,0.91,0.04,1.41c0.01,0.87-0.09,1.61-0.26,2.43
			c-0.02,0.12-0.15,0.19-0.27,0.19c-0.47,0.01-0.9-0.04-1.38,0.05c-0.45,0.09-1.12,0.11-1.52,0.37c-0.9,0.36-1.71,0.89-2.56,1.34
			c-0.56,0.3-1.8,1.16-2.33,0.36c-0.18-0.27-0.2-0.62-0.23-0.94c-0.21-1.97-1.13-3.78-2.04-5.54c-0.21-0.41-0.42-0.75-0.69-1.11
			c-0.25-0.34-0.36-0.74-0.69-1.03c-0.35-0.31-0.77-0.53-1.21-0.67c-1.02-0.34-2.15-0.44-3.22-0.51c-0.45-0.03-2.02-0.17-1.99,0.58
			c0.02,0.49,0.64,0.97,0.92,1.32c0.45,0.57,0.93,1.13,1.26,1.77c0.48,0.93,1.11,2.12,1.66,3.04c0.52,0.88,1.27,2.19,2.18,2.71
			c0.24,0.14,0.55,0.18,0.8,0.27c0.22,0.09,0.45,0.2,0.63,0.36c0.12,0.1,0.19,0.24,0.28,0.35c0.07,0.09,0.26,0.19,0.27,0.31
			c0.02,0.22-0.39,0.29-0.54,0.33c-0.39,0.1-0.25,0.49,0.03,0.63c0.87,0.41,2.17,0.09,3.06-0.09c0.72-0.15,1.44-0.3,2.16-0.45
			c0.64-0.13,1.28-0.27,1.9-0.45c0.54-0.16,1.06-0.35,1.59-0.54c0.47-0.17,0.95-0.33,1.44-0.46c0.21-0.05,0.4-0.14,0.59-0.24
			c0.42,0.77,0.17,2.05,0.19,2.91c0.03,1.21-1.51,2.44-2.23,3.27c-0.92,1.07-1.87,2.12-2.84,3.14c-1.92,2.03-3.91,3.97-5.95,5.88
			c-0.85,0.79-1.71,1.56-2.61,2.3c-0.45,0.37-0.9,0.73-1.35,1.09c-0.08,0.06-1,0.8-0.95,0.81c-0.36-0.12-0.43,0.23-0.12,0.36
			c0.15,0.06,0.49-0.11,0.75-0.12c0.86-0.04,1.76-0.51,2.51-0.89c0.89-0.44,1.78-0.88,2.67-1.32c1.74-0.86,3.36-2.02,4.85-3.26
			c1.43-1.18,2.85-2.3,4.12-3.66c0.19-0.21,0.46-0.75,0.7-0.36c0.14,0.22,0.01,0.65,0.02,0.89c0.02,0.75,0.04,1.5,0.06,2.24
			c0.04,1.45,0.09,2.91,0.08,4.36c0,0.31,0.13,1.75,0,2.3c-0.37,1.5-2.72,0.99-3.81,0.88c-1.01-0.1-1.92-0.54-2.96-0.43
			c-0.93,0.1,0.3,1.15,0.5,1.38c1.22,1.4,3.25,2.55,4.92,3.26c1.03,0.43,2.59,1.55,3.77,1.14c0.47-0.17,0.76-0.62,0.86-1.09
			c0.12-0.53,0.27-1.06,0.33-1.61c0.08-0.7,0.19-1.37,0.21-2.07c0.09-2.37,0.18-4.74,0.2-7.11c0.02-2.31-0.14-4.61-0.13-6.92
			c0-1.07-0.03-1.91,0.71-2.75c0.58-0.66,1.34-1.16,1.92-1.83c0.78-0.91,1.6-1.86,2.42-2.68C173.51,52.17,174.11,51.36,174.7,50.93z
			"/>
		<path class="st3" d="M190.65,68.64c-0.25-0.79-0.59-1.58-1.24-2.13c-1.47-1.25-3.49-1.73-5.31-2.29c-2.1-0.64-4.23-1.18-6.38-1.61
			c-0.45-0.09-0.91-0.16-1.37-0.22c-0.37-0.05-3.61-0.29-3.65-0.57c0.23,1.41,2.68,2.94,3.89,3.41c1.69,0.66,3.06,1.5,4.61,2.1
			c0.5,0.2,2.77,0.79,3.02,1.23c1.02,1.81-3.7,3.41-4.28,4.85c0.35,0.13,0.72,0.04,1.07-0.05c1.13-0.27,2.23-0.34,3.33-0.74
			c1.92-0.69,3.89-1.38,5.76-2.2C191.07,70.01,190.94,69.57,190.65,68.64z"/>
		<path class="st3" d="M221.18,55.88c0.09,0.02,0.17,0.03,0.26,0.01c0.21-0.07,0.5-0.48,0.68-0.64c0.39-0.35,0.77-0.69,1.12-1.07
			c1-1.06,1.92-2.26,2.8-3.42c0.33-0.43,2.15-2.62,0.61-2.43c-1.45,0.18-2.78,1-3.86,1.93c-0.86,0.74-1.98,1.63-3.18,1.54
			c-0.33-0.02-1.46,0.11-1.11-0.47c0.58-0.95,1.42-1.79,2.05-2.73c0.72-1.08,1.39-2.21,1.94-3.39c0.77-1.66,1.48-3.35,2.01-5.1
			c0.53-1.76,0.95-3.55,1.42-5.32c0.25-0.92,0.34-1.89,0.63-2.79c0.14-0.42,0.11-1.21,0.49-1.5c0.46-0.36,1.24-0.24,1.79-0.34
			c0.76-0.14,1.52-0.29,2.29-0.42c1.69-0.28,3.37-0.62,5-1.14c0.97-0.31,1.88-0.66,2.86-0.88c0.82-0.19,1.74-0.9,1.52-1.86
			c-0.17-0.74-1.03-1.05-1.53-1.52c-0.81-0.77-0.71-0.81-1.43-0.23c-0.21,0.17-0.18,0.43-0.42,0.67c-0.24,0.25-0.14-0.06-0.59,0.17
			c-1.64,0.82-3.39,1.3-5.2,1.7c-0.82,0.18-2.06,0.8-2.9,0.44c-1.02-0.44-0.79-2.6-0.62-3.49c0.16-0.86,1.16-1.95,0.4-2.78
			c-0.1-0.11-0.26-0.14-0.41-0.16c-0.72-0.1-1.45-0.15-2.18-0.14c-0.22,0-1.19-0.15-1.38-0.02c-0.38,0.25-0.12,1.94-0.11,2.3
			c0.04,0.95,0.1,1.89,0.19,2.84c0.04,0.49,0.32,1.41-0.05,1.84c-0.44,0.5-1.87,0.49-2.49,0.6c-1.97,0.33-3.97,0.55-5.97,0.4
			c-1.87-0.14-0.74,1.88,0.16,2.47c0.78,0.52,1.77,0.6,2.68,0.58c0.94-0.02,1.84-0.19,2.76-0.3c0.94-0.11,2.39-0.64,2.45,0.63
			c0.06,1.24-0.48,2.33-0.71,3.52c-0.39,2.01-0.82,3.88-1.51,5.46c-1.04,2.38-2.12,4.68-3.53,6.81c-0.23,0.34-0.81,0.81-1.09,1.09
			c-0.47,0.46-0.37,0.72-0.99,1.03c-0.41,0.2-0.99-0.09-1.49,0.18c-0.23,0.12-0.35,0.34-0.55,0.49c0.07,0.2,0.31,0.27,0.52,0.33
			c0.73,0.22,1.28,0.81,1.8,1.37C217.7,53.66,219.04,55.45,221.18,55.88z"/>
		<path class="st3" d="M256.34,39.85c-0.03-0.12-0.11-0.22-0.18-0.32c-0.67-0.88-1.57-1.88-2.48-2.51
			c-0.84-0.59-1.73-0.14-2.58,0.16c-1.85,0.66-3.69,0.94-5.58,1.46c-2.13,0.58-4.27,1.16-6.4,1.74c-1.68,0.46-3.39,0.75-5.08,1.15
			c-0.8,0.19-2.18,0.45-2.78,1.01c-1.26,1.16,0.64,1.3,1.79,1.53c2.21,0.46,4.2,0.2,6.43-0.23c1.47-0.28,11.07-3.29,11.39-1.53
			c0.06,0.33-0.12,0.8-0.13,1.15c-0.03,0.64,0.01,1.29-0.01,1.93c-0.03,1.24-0.11,2.48-0.23,3.71c-0.24,2.48-0.63,4.93-1.11,7.38
			c-0.21,1.07-0.44,2.15-0.68,3.21c-0.47,2.1-0.98,4.2-1.9,6.15c-0.33,0.7-0.73,1.37-1.31,1.89c-0.67,0.6-1.49,0.55-2.36,0.6
			c-0.83,0.05-1.67,0.08-2.51,0.07c-0.52-0.01-1.05-0.03-1.57-0.08c-0.47-0.05-0.86-0.15-1.32-0.06c-0.17,0.03-0.59,0.02-0.66,0.2
			c-0.08,0.19,0.22,0.4,0.34,0.5c0.79,0.7,1.76,1.15,2.54,1.86c1.47,1.34,2.85,2.83,4.2,4.12c0.41,0.39,0.71,1.11,1.24,1.36
			c1.65,0.79,4.06-3.82,4.65-4.89c3.53-6.4,4.38-14.45,5.27-21.53c0.4-3.15,0.33-6.42,1-9.51C256.35,40.2,256.39,40.02,256.34,39.85
			z"/>
		<path class="st3" d="M231.3,55.13c1.65-1.01,3.55-1.53,5.38-2.1c0.3-0.09,1.01-0.29,0.85-0.75c-0.12-0.36-0.94-0.39-1.25-0.44
			c-0.96-0.15-1.84-0.2-2.8,0.04c-0.57,0.14-1.07,0.55-1.63,0.74c-0.74,0.25-1.95,1-2.72,0.68c-0.62-0.25-0.1-0.57,0.16-0.82
			c0.45-0.43,0.96-0.83,1.3-1.36c0.71-1.11,1.74-2.3,2.27-3.36c0.91-1.83-2.01-2.31-3.49-2.31c-0.2-0.12,0,0.56,0,1.01
			c-0.01,0.77-0.55,1.36-0.84,2.1c-0.57,1.46-1.18,2.42-1.93,3.7c-0.34,0.58-0.84,1.33-1.26,2.02c-0.98,1.62-3.4,2.33-5.14,2.7
			c-0.75,0.16-1.66,0.12-2.32,0.55c-1,0.65,0.19,1.48,0.84,1.83c0.78,0.42,1.68,0.63,2.57,0.6c1.25-0.04,2.28-0.7,3.15-1.52
			c0.71-0.66,1.83-0.8,2.21,0.3c0.39,1.13,0.13,2.35,0.13,3.36c-0.59-0.2-1.71,0.64-2.26,0.88c-0.88,0.37-1.74,0.79-2.63,1.11
			c-1.06,0.38-2.01,0.92-3.04,1.35c-0.8,0.33-0.21,0.77,0.32,1.04c1.15,0.59,2.81,0.29,4-0.04c1-0.28,1.93-0.81,2.94-1.05
			c0.14-0.03,0.29-0.06,0.44-0.04c0.6,0.12,0.22,1.07,0.2,1.47c-0.03,0.67-0.07,1.66-0.08,2.19c-0.06,2.37-0.42,4.64-0.82,6.95
			c-0.17,0.96-0.39,1.85-0.63,2.79c-0.26,1.02,0.82,1.01,1.47,0.64c0.87-0.51,1.17-2,1.51-2.9c0.48-1.27,0.91-2.56,1.27-3.86
			c0.68-2.48,1.15-5.08,1.01-7.66c-0.06-1.04-0.39-1.99,0.88-2.34c0.85-0.24,1.68-0.58,2.52-0.87c0.2-0.07,0.41-0.14,0.62-0.18
			c0.24-0.05,0.48-0.08,0.69-0.2c1.32-0.73-0.95-2.1-1.61-2.21c-1.01-0.16-1.55,0.45-2.33,0.93c-0.96,0.59-0.92,0.55-1.06-0.42
			C229.93,58.06,229.71,56.11,231.3,55.13z"/>
		<path class="st3" d="M210.78,61.2c-0.21-1.33-0.26-2.68-0.26-4.03c0-0.97,0.02-1.95,0.04-2.92c0.01-0.7,0.19-1.52-0.12-2.19
			c-0.14-0.3-0.46-0.55-0.71-0.76c-0.35-0.29-0.58-0.69-0.88-1.03c-0.27-0.3-0.58-0.57-0.83-0.88c-0.11-0.14-0.29-0.3-0.48-0.32
			c-0.09-0.01-0.17,0.01-0.26,0.07c-0.17,0.12-0.14,0.38-0.09,0.58c0.1,0.44,0.02,0.91,0.01,1.36c-0.01,0.9-0.04,1.85-0.2,2.74
			c-0.25,1.42-0.6,2.82-0.95,4.22c-0.08,0.34-0.17,0.68-0.25,1.01c-0.51,2.12-0.39,4.32,0.73,6.23c0.71,1.2,2.08,3.36,3.58,3.62
			c2.64,0.44,1.75-3.71,1.29-5.07C211.13,62.99,210.92,62.1,210.78,61.2z"/>
		<path class="st3" d="M306.85,46.56c1.71-0.73,3.43-1.54,5.2-2.13c0.72-0.24,1.47-0.44,2.23-0.51c0.56-0.05,1.46,0.2,1.87-0.17
			c1.32-1.21-0.99-4.57-1.78-5.51c-1.07-1.28-1.78-0.86-3.02-0.08c-1.01,0.64-1.96,1.36-3.03,1.89c-1.57,0.78-3.2,1.41-4.84,2.07
			c-1.15,0.46-2.11,0.73-3.31,1.03c-0.98,0.25-1.97,0.45-2.96,0.65c-1.74,0.35-2.42,0.74-2.63-1.27c-0.26-2.56-0.29-5.13-0.31-7.7
			c-0.01-1.02-0.01-2.04-0.03-3.05c-0.04-2.52-0.25-5.04-0.24-7.56c0-0.45,0.15-1.24,0.24-1.68c0.31-1.4,0.87-1.53-0.59-2.28
			c-1.12-0.58-1.79-0.22-2.87,0.21c-0.18,0.08-0.08,3.94-0.09,4.34c-0.09,2.58,0.32,5.14,0.08,7.68c-0.28,2.93-0.08,5.92-0.21,8.86
			c-0.04,0.99,0.32,2.63-0.37,3.47c-0.59,0.72-1.97,0.4-2.78,0.48c-1.36,0.15-2.74,0.2-4.11,0.15c-1.38-0.04-2.74,0.27-4.13,0.28
			c-0.2,0-0.4-0.01-0.6-0.02l0.16,0.58c1.43,0.97,3.06,1.82,4.7,2.4c1.69,0.59,3.48,1.06,5.28,1.33c0.49,0.07,1.26,0.01,1.51,0.54
			c0.29,0.62-0.17,1.29-0.29,1.89c-0.37,1.75-0.72,3.51-1.24,5.22c-0.45,1.48-0.95,2.95-1.51,4.39c-0.53,1.36-1.56,2.56-2.38,3.77
			c-1.91,2.83-4.5,4.92-7.86,5.7c-0.32,0.07-0.66,0.16-0.86,0.43c-0.2,0.27-0.18,0.66-0.01,0.95c0.17,0.29,0.46,0.5,0.76,0.64
			c0.58,0.28,1.22,0.39,1.86,0.49c3.34,0.53,7.44,1.4,10.25-1.03c0.58-0.5,1.81-1.73,2-2.46c1.23-4.88,2.07-9.85,2.52-14.86
			c0.11-1.25,0.19-2.51,0.27-3.76c0.02-0.4-0.08-1.13,0.28-1.41c0.44-0.35,1.38-0.12,1.87-0.13c1.9-0.01,3.8-0.46,5.51-1.29
			c0.8-0.39,1.44-0.87,2.27-1.17C304.74,47.53,305.79,47.01,306.85,46.56z"/>
		<path class="st3" d="M314.79,67.63c-0.45-0.68-0.92-1.3-1.34-1.85c-2.07-2.71-4.95-4.86-8.25-5.81c-0.33-0.1-2.54-0.36-2.64-0.56
			c0,0,0.92,0.52,0.33,0.51c0.46,0.84,1.14,1.57,1.65,2.38c0.6,0.94,1.2,1.88,1.76,2.84c0.73,1.25,1.43,2.64,1.88,4.02
			c0.4,1.25,0.57,2.55,1.22,3.73c0.73,1.32,2.26,2.25,3.72,2.42c1.05,0.13,3.48,1.03,3.92-0.59c0.24-0.88-0.16-2.48-0.39-3.34
			C316.28,70.03,315.56,68.78,314.79,67.63z"/>
		<path class="st3" d="M277.5,46.77c0.56-0.5,0.23-1.3-0.3-1.63c-0.58-0.37-1.25-0.51-1.92-0.63c-0.47-0.08-0.94,0.08-1.24,0.46
			c-0.16,0.21-0.2,0.42-0.42,0.56c-0.2,0.12-0.58,0.09-0.65,0.37c-0.05,0.18,0.11,0.35,0.26,0.45c0.53,0.36,1.06,0.32,1.66,0.42
			c0.46,0.07,0.93,0.11,1.39,0.09C276.63,46.84,277.23,47.01,277.5,46.77z"/>
		<g>
			<path class="st3" d="M379.42,67.96c-0.49-0.97-0.75-2.08-1.89-2.33c-1.16-0.24-2.43-0.39-3.61-0.44
				c-1.42-0.06-2.89-0.07-4.31,0.04c-0.33,0.03-0.81,0.21-1.03-0.14c-0.17-0.26-0.16-0.71-0.2-1.02c-0.09-0.78,0.17-1.8-0.32-2.47
				c-0.57-0.78-1.64-0.73-2.3-0.8c-1.03-0.1-2.21-0.16-2.98-0.16c0.07-1.3,0.76-2.11,1.57-3.06c1.59-1.88,3.36-3.55,4.87-5.5
				c0.25-0.32,1.15-1.06,1.2-1.36c0.22-1.39-1.89-2.23-2.97-2.16c-0.8,0.05-1.56,0.44-2.31,0.69c-2.13,0.71-4.06,1.73-5.89,2.75
				c-0.76,0.43-1.43,0.96-2.13,1.49c-0.05,0.04-0.11,0.08-0.15,0.14c-0.06,0.08-0.08,0.17-0.1,0.27c-0.14,0.78,0.34,1.98,0.98,2.46
				c0.43,0.32,0.77-0.07,1.14-0.33c0.94-0.66,1.96-1.26,3.01-1.76c0.85-0.41,1.95-1.24,2.91-1.24c-0.44,2.66-2.57,4.31-3.53,6.6
				c-0.4,0.96-0.25,2.17,0.33,3.04c0.44,0.65,1.2,1.31,1.25,2.15c0.08,1.45-2.21,1.31-3.27,1.53c-1.55,0.33-3.09,0.75-4.44,1.6
				c-4.56,2.87-1.97,10.47,2.91,11.39c2.3,0.43,4.79-0.4,6.54-1.92c1.29-1.13,2.35-2.59,2.96-4.2c0.33-0.85,0.53-1.76,0.67-2.66
				c0.03-0.21,0.16-2.27,0.29-2.3c0.8-0.18,1.62-0.18,2.43-0.11c1.04,0.09,2.07,0.23,3.1,0.43c1.57,0.3,3.11,0.74,4.61,1.3
				c0.33,0.12,1.32,0.65,1.54,0.07C380.43,69.56,379.62,68.35,379.42,67.96z M364.1,69.87c-0.01,0.09-0.02,0.18-0.03,0.27
				c-0.2,1.64-0.35,3.15-1.33,4.6c-0.5,0.74-1.17,1.37-1.96,1.78c-0.63,0.33-1.68,0.73-2.4,0.63c-1.01-0.14-1.93-0.4-2.71-1.12
				c-1.19-1.1-1.58-3-0.89-4.47c0.67-1.43,2.17-2.18,3.61-2.63c1.04-0.32,2.13-0.44,3.21-0.56c0.62-0.07,1.29-0.29,1.92-0.17
				C364.53,68.4,364.2,69.08,364.1,69.87z"/>
			<path class="st3" d="M383.55,39.78c-0.21-0.44-0.49-0.86-0.83-1.2c-0.86-0.86-1.9-1.37-3.22-1.49c-1.23-0.11-2.67-0.17-3.97-0.08
				c-0.87,0.06-1.43,0-1.99,0c0.05,0,0.66-5.75,0.7-6.18c0.08-0.85,0.02-1.66,0.12-2.52c0.27-2.14,0.45-4.29,0.6-6.44
				c0.05-0.67-0.1-1.3-0.05-1.96c0.04-0.6,0.13-1.19,0.09-1.79c-0.07-1.23-0.69-2.16-1.64-2.92c-1.25-1-3.1-0.18-4.71,0.43
				c-1.99,0.76-4.13,2.59-5.34,4.4c-0.57,0.86-1.39,1.94-2.18,2.58c-1.2,0.96-1.46-0.68-1.39-1.48c0.1-1.18,0.02-2.57,0.2-3.93
				c0.05-0.39,0.17-1.7,0.47-2.12c0.49-0.71,2.44-1.41,3.11-1.64c0.69-0.24,1.23-0.74,1.84-0.95c0.74-0.26,2.12-0.29,2.67-0.79
				c1.2-1.09-4.01-2-4.01-0.94c-0.38,0.11-1.05,0.69-1.34,0.86c-0.47,0.29-1.06,0.6-1.57,0.86c-0.24-0.74,0.24-1.67,0.16-2.43
				c-0.05-0.46-0.05-0.84-0.39-1.37c-0.99-1.56-2.42-0.67-3.22-0.67c0,0.38,0.87,0.34,0,0.31c1.28,0.64,0.32,3.5,0.2,4.59
				c-0.11,1.02-0.17,1.51-0.16,2.47c0.01,0.78-0.27,1.89-0.35,2.75c-0.09,0.87-0.03,2.56-0.04,3.77c0,0.67-0.11,1.71,0.2,2.2
				c0.55,0.89,1.41,1.32,1.1,2.59c-0.83,3.41-2.21,6.97-1.49,10.52c0.11,0.54,0.18,1.15,0.47,1.63c0.18,0.3,0.98,0.73,0.78,1.13
				c-0.16,0.31-0.75,0.16-1.03,0.2c-0.84,0.13-1.48,0.45-2.36,0.67c0.19-0.05,0.34-3.42,0.37-3.7c0.05-0.59,0.69-4.56-0.43-4.14
				c-0.04,0.47-0.08,2.1-0.8,2.12c-0.2,0-1.71-4.04-1.84-4.49c-0.47-1.64-0.61-3.35,0.27-4.89c0.47-0.82,1.22-1.78,0.97-2.79
				c-0.1-0.41-0.89-1.72-1.43-1.68c-0.83,0.07-1.06,2.07-1.2,2.7c-0.66,3.04-0.86,6.18-0.58,9.27c0.14,1.51,0.39,3.02,0.76,4.49
				c0.07,0.27,1.14,4.07,1.07,4.07c-0.09-0.01-0.12-0.06-0.08-0.16c-0.77,0-2.18,0.78-2.91,1.02c0-0.47,0.4-0.92,0.47-1.45
				c0.08-0.59-0.24-1.73-0.27-2.32c-0.13-1.97-0.34-4.75-0.43-7.34c-0.07-2.13-1.49-3.22-3.3-4.12c-0.36-0.18-1.26-0.82-1.65-0.55
				c-0.33,0.23-0.04,1.26-0.31,1.26c0.61,1.03,1.15,1.48,1.34,2.51c0.11,0.58,0.38,1.77,0.47,2.51c0.26,2.14,0.4,4.68,0.67,6.68
				c0.2,1.44,0.46,2.42,0.75,3.85c-0.44,0-0.94,1.02-1.65,0.79c0,0.17-0.08-0.01-0.08,0.16c2.09,0.38,3.82,0.13,5.73-0.24
				c0.8-0.15,1.76-0.78,2.42-0.31c0.19,0.13,0.71,1.36,0.95,1.41c0.86,0.19,0.45-1.87,0.71-2.28c0.4-0.63,1.79-0.76,2.44-0.89
				c0.57-0.11,1.14-0.21,1.72-0.3c0.75-0.12,0.87,0.04,1.53,0.39c0.08,0.04,0.17,0.09,0.26,0.07c0.13-0.02,0.23-0.14,0.3-0.26
				c0.36-0.59,0.42-0.67,1.08-0.82c0.75-0.18,1.51-0.33,2.27-0.44c0.4-0.06,0.81-0.06,1.2-0.13c0.25-0.05,0.49-0.2,0.76-0.13
				c0.84,0.2,0.42,1.64,0.61,2.27c0.24,0.79,0.95,1.66,1.74,1.94c0.89,0.32,1.77-0.4,2.21-1.13c0.46-0.76,0.72-1.61,0.94-2.47
				c0.15-0.6,0.58-1.26,0.61-1.87c1.28,0.19,2.62-0.23,3.92-0.17c0.25,0.01,0.91-0.1,1.33,0c1.22,0.31,0.6,0.2,0.24,0.78
				c-0.5,0.8-1.14,1.23-1.81,1.97c-1.11,1.23-2.19,2.45-3.5,3.49c-0.7,0.55-1.43,1.06-2.12,1.62c-0.17,0.14-1.25,0.65-1.17,0.9
				c0.04,0.12,0.2,0.14,0.32,0.13c1.01-0.06,1.85-0.22,2.82-0.51c1.49-0.45,2.95-1.01,4.33-1.75c1.39-0.74,2.37-1.64,3.65-2.4
				c0.73-0.43,1.4-0.9,2.04-1.31c0.3-0.19,1.16-0.68,1.23-1.05c0.01-0.08,0-0.15-0.01-0.23C383.86,40.56,383.73,40.16,383.55,39.78z
				 M362.2,33.62c-0.1,0.77-0.21,2.32-0.71,3.03c-0.87,1.25-1.63,0.13-2.18-0.65c-0.8-1.15-0.72-2.23-0.53-3.92
				c0.1-0.91,0.47-6.14,1.63-6.14c0-0.59,0.99,0.43,1.1,0.63c0.24,0.45,0.16,1.1,0.24,1.65c0.18,1.36,0.37,2.82,0.47,4.32
				C362.24,32.76,362.24,33.31,362.2,33.62z M369.61,41.1c0-0.1-2.86-0.89-3.06-0.79c0.3-0.61,2.76-0.45,3.38-0.55
				C369.9,39.83,369.89,41.18,369.61,41.1z M370.51,36.72c-0.04,0.91-0.93,1.04-1.63,1.13c-1.02,0.13-2.03,0.4-3.03,0.63
				c-0.26,0.06-2.48,0.41-2.52,0.57c0.43-1.79,0.75-3.54,0.93-5.38c0.11-1.09,0.13-2.66,0.12-3.85c0-0.59-0.31-1.97,0.04-2.32
				c-0.16,0.05-0.21,0-0.16-0.16c0.01-0.03,0.82-0.13,0.89-0.13c0.35-0.01,0.56,0.05,0.83,0.28c0.48,0.4,0.72,1.05,0.76,1.65
				c0.06,0.82-0.16,1.63-0.23,2.45c-0.08,0.82,0.01,1.72,0.58,2.32c0.46,0.49,1.18,0.73,1.77,1.04c0.79,0.41,1.35,0.76,2.28,0.77
				C370.77,35.71,370.52,36.46,370.51,36.72z M371.73,24.61c-0.09,0.99-0.17,1.53-0.24,2.59c-0.09,1.43-0.38,2.84-0.61,4.25
				c-0.06,0.37,0.02,0.95-0.37,1.15c-0.35,0.18-1.16-0.13-1.42-0.39c-0.95-0.96-0.12-2.78,0.46-3.66c0.62-0.94,1.47-2.11,0.38-3.06
				c-1.79-1.55-3.9,1.31-5.9,1.48c-0.02-0.15-0.4-1.66-0.24-1.57c-0.73,0-1.07-2.06-1.96-1.96c0.17-1.39,2.28-2.44,3.34-3.14
				c0.47-0.31,3.02-1.49,3.02-1.89c1.67-0.18,3.21-1.38,3.77,1.57C372.21,21.25,371.83,23.54,371.73,24.61z"/>
		</g>
	</g>
	<g>
		<path d="M155.38,92.22l0.1,4.12h-0.37c-0.18-1.03-0.61-1.86-1.3-2.5c-0.69-0.63-1.44-0.94-2.24-0.94c-0.62,0-1.11,0.16-1.47,0.5
			c-0.36,0.33-0.54,0.71-0.54,1.15c0,0.27,0.06,0.52,0.19,0.73c0.18,0.29,0.46,0.57,0.85,0.85c0.29,0.2,0.95,0.56,1.98,1.07
			c1.45,0.71,2.42,1.38,2.93,2.02c0.5,0.63,0.75,1.36,0.75,2.17c0,1.03-0.4,1.93-1.21,2.67c-0.81,0.75-1.83,1.12-3.07,1.12
			c-0.39,0-0.76-0.04-1.1-0.12c-0.35-0.08-0.78-0.23-1.3-0.45c-0.29-0.12-0.53-0.18-0.72-0.18c-0.16,0-0.33,0.06-0.5,0.18
			c-0.18,0.12-0.32,0.31-0.43,0.56h-0.34v-4.67h0.34c0.27,1.32,0.78,2.32,1.55,3.01c0.76,0.69,1.59,1.03,2.47,1.03
			c0.68,0,1.22-0.19,1.63-0.56c0.4-0.37,0.61-0.8,0.61-1.3c0-0.29-0.08-0.57-0.23-0.85c-0.15-0.27-0.39-0.53-0.71-0.78
			c-0.32-0.25-0.88-0.57-1.68-0.96c-1.13-0.56-1.93-1.03-2.43-1.41c-0.49-0.39-0.87-0.82-1.13-1.3c-0.27-0.48-0.4-1.01-0.4-1.59
			c0-0.99,0.36-1.82,1.09-2.52c0.72-0.69,1.64-1.04,2.74-1.04c0.4,0,0.79,0.05,1.17,0.15c0.29,0.07,0.63,0.21,1.04,0.41
			c0.41,0.2,0.7,0.3,0.86,0.3c0.16,0,0.28-0.05,0.37-0.15c0.09-0.1,0.18-0.33,0.25-0.7H155.38z"/>
		<path d="M164.21,92.33c1.97-0.07,3.57,0.5,4.8,1.72c1.23,1.22,1.85,2.75,1.85,4.59c0,1.57-0.46,2.95-1.38,4.14
			c-1.22,1.58-2.93,2.37-5.15,2.37c-2.23,0-3.95-0.75-5.16-2.26c-0.96-1.19-1.44-2.6-1.44-4.24c0-1.83,0.62-3.37,1.87-4.59
			C160.85,92.83,162.39,92.25,164.21,92.33z M164.32,92.91c-1.13,0-1.99,0.58-2.58,1.73c-0.48,0.95-0.72,2.31-0.72,4.09
			c0,2.11,0.37,3.67,1.11,4.68c0.52,0.71,1.24,1.06,2.17,1.06c0.63,0,1.15-0.15,1.57-0.46c0.53-0.39,0.95-1.01,1.25-1.87
			c0.3-0.85,0.45-1.97,0.45-3.34c0-1.64-0.15-2.86-0.45-3.67c-0.31-0.81-0.69-1.39-1.16-1.72
			C165.48,93.08,164.93,92.91,164.32,92.91z"/>
		<path d="M171.96,92.5h6.38v0.34h-0.32c-0.48,0-0.81,0.05-0.99,0.15c-0.18,0.1-0.31,0.24-0.38,0.42c-0.08,0.18-0.11,0.62-0.11,1.32
			v6.06c0,1.1,0.08,1.84,0.25,2.2c0.17,0.36,0.44,0.66,0.82,0.89c0.38,0.24,0.87,0.36,1.45,0.36c0.67,0,1.24-0.15,1.71-0.45
			c0.47-0.3,0.82-0.71,1.06-1.25c0.23-0.53,0.35-1.45,0.35-2.76v-5.04c0-0.55-0.06-0.95-0.17-1.19c-0.12-0.24-0.26-0.4-0.44-0.49
			c-0.27-0.14-0.66-0.21-1.16-0.21V92.5h4.28v0.34h-0.25c-0.35,0-0.64,0.07-0.87,0.21c-0.23,0.14-0.4,0.35-0.5,0.63
			c-0.08,0.19-0.12,0.54-0.12,1.05v4.7c0,1.45-0.09,2.5-0.29,3.15c-0.19,0.64-0.66,1.24-1.4,1.78c-0.74,0.54-1.75,0.81-3.04,0.81
			c-1.07,0-1.9-0.14-2.48-0.43c-0.8-0.39-1.36-0.89-1.69-1.5c-0.33-0.61-0.49-1.42-0.49-2.45v-6.06c0-0.71-0.04-1.15-0.12-1.33
			c-0.08-0.17-0.22-0.31-0.41-0.41c-0.19-0.1-0.55-0.15-1.08-0.15V92.5z"/>
		<path d="M196.8,92.5v3.35h-0.33c-0.2-0.77-0.41-1.33-0.65-1.67c-0.24-0.34-0.56-0.61-0.98-0.81c-0.23-0.11-0.64-0.16-1.21-0.16
			h-0.92v9.54c0,0.63,0.03,1.03,0.11,1.19c0.07,0.16,0.21,0.3,0.41,0.41c0.2,0.12,0.48,0.18,0.84,0.18h0.41v0.34H188v-0.34h0.41
			c0.36,0,0.65-0.06,0.87-0.19c0.16-0.09,0.28-0.23,0.37-0.44c0.07-0.15,0.1-0.53,0.1-1.15v-9.54h-0.9c-0.83,0-1.44,0.18-1.82,0.53
			c-0.53,0.49-0.86,1.19-1,2.11h-0.35V92.5H196.8z"/>
		<path d="M202.58,98.92v3.83c0,0.63,0.04,1.03,0.11,1.19c0.07,0.16,0.21,0.3,0.41,0.41c0.2,0.12,0.48,0.18,0.82,0.18h0.41v0.34
			h-6.47v-0.34h0.41c0.36,0,0.65-0.06,0.87-0.19c0.16-0.09,0.28-0.23,0.36-0.44c0.07-0.15,0.1-0.53,0.1-1.15v-8.14
			c0-0.63-0.04-1.03-0.1-1.19c-0.07-0.16-0.2-0.3-0.41-0.41c-0.2-0.12-0.48-0.18-0.82-0.18h-0.41V92.5h6.47v0.34h-0.41
			c-0.36,0-0.65,0.06-0.87,0.19c-0.15,0.08-0.28,0.23-0.37,0.44c-0.07,0.15-0.1,0.53-0.1,1.15v3.5h4.37v-3.5
			c0-0.63-0.03-1.03-0.1-1.19c-0.07-0.16-0.2-0.3-0.41-0.41c-0.21-0.12-0.48-0.18-0.83-0.18h-0.4V92.5h6.46v0.34h-0.4
			c-0.37,0-0.65,0.06-0.87,0.19c-0.16,0.08-0.28,0.23-0.38,0.44c-0.07,0.15-0.1,0.53-0.1,1.15v8.14c0,0.63,0.03,1.03,0.1,1.19
			c0.07,0.16,0.2,0.3,0.41,0.41c0.21,0.12,0.48,0.18,0.83,0.18h0.4v0.34h-6.46v-0.34h0.4c0.37,0,0.65-0.06,0.87-0.19
			c0.16-0.09,0.28-0.23,0.37-0.44c0.07-0.15,0.1-0.53,0.1-1.15v-3.83H202.58z"/>
		<path d="M217.09,93.21v5.03h0.25c0.78,0,1.35-0.25,1.71-0.74c0.35-0.49,0.58-1.22,0.67-2.18h0.35v6.48h-0.35
			c-0.07-0.7-0.23-1.28-0.46-1.73c-0.23-0.45-0.51-0.75-0.82-0.91c-0.31-0.15-0.76-0.23-1.35-0.23v3.48c0,0.68,0.03,1.1,0.09,1.25
			c0.06,0.15,0.17,0.28,0.32,0.37c0.16,0.1,0.41,0.15,0.77,0.15h0.74c1.16,0,2.08-0.27,2.78-0.8c0.7-0.53,1.2-1.35,1.5-2.44h0.34
			l-0.56,3.93h-10.69v-0.34h0.41c0.36,0,0.65-0.06,0.86-0.19c0.16-0.09,0.28-0.23,0.37-0.44c0.07-0.15,0.1-0.53,0.1-1.15v-8.14
			c0-0.56-0.02-0.9-0.04-1.03c-0.06-0.21-0.18-0.38-0.34-0.49c-0.23-0.17-0.55-0.25-0.95-0.25h-0.41V92.5h10.35v3.66h-0.35
			c-0.18-0.89-0.43-1.53-0.75-1.92c-0.32-0.39-0.77-0.68-1.35-0.86c-0.34-0.11-0.98-0.16-1.92-0.16H217.09z"/>
		<path d="M232.23,101.35h-4.37l-0.52,1.2c-0.17,0.4-0.26,0.73-0.26,0.99c0,0.35,0.14,0.6,0.42,0.77c0.16,0.1,0.57,0.17,1.22,0.22
			v0.34h-4.11v-0.34c0.44-0.07,0.81-0.25,1.09-0.55c0.29-0.3,0.64-0.92,1.06-1.87l4.42-9.87h0.17l4.46,10.14
			c0.43,0.96,0.78,1.57,1.05,1.82c0.21,0.19,0.49,0.3,0.87,0.33v0.34h-5.98v-0.34H232c0.48,0,0.82-0.07,1.01-0.2
			c0.13-0.1,0.2-0.24,0.2-0.42c0-0.11-0.02-0.22-0.06-0.34c-0.01-0.06-0.11-0.28-0.27-0.69L232.23,101.35z M231.92,100.67
			l-1.84-4.26l-1.89,4.26H231.92z"/>
		<path d="M246.73,92.22l0.1,4.12h-0.37c-0.18-1.03-0.61-1.86-1.3-2.5c-0.69-0.63-1.44-0.94-2.24-0.94c-0.62,0-1.11,0.16-1.47,0.5
			c-0.36,0.33-0.54,0.71-0.54,1.15c0,0.27,0.06,0.52,0.19,0.73c0.18,0.29,0.46,0.57,0.85,0.85c0.29,0.2,0.95,0.56,1.98,1.07
			c1.45,0.71,2.42,1.38,2.93,2.02c0.5,0.63,0.75,1.36,0.75,2.17c0,1.03-0.4,1.93-1.21,2.67c-0.81,0.75-1.83,1.12-3.07,1.12
			c-0.39,0-0.76-0.04-1.1-0.12c-0.35-0.08-0.78-0.23-1.3-0.45c-0.29-0.12-0.53-0.18-0.72-0.18c-0.16,0-0.33,0.06-0.5,0.18
			c-0.18,0.12-0.32,0.31-0.43,0.56h-0.34v-4.67h0.34c0.27,1.32,0.78,2.32,1.55,3.01c0.76,0.69,1.58,1.03,2.47,1.03
			c0.68,0,1.22-0.19,1.63-0.56c0.4-0.37,0.61-0.8,0.61-1.3c0-0.29-0.08-0.57-0.23-0.85c-0.16-0.27-0.39-0.53-0.71-0.78
			c-0.32-0.25-0.88-0.57-1.68-0.96c-1.13-0.56-1.93-1.03-2.43-1.41c-0.49-0.39-0.87-0.82-1.13-1.3c-0.27-0.48-0.4-1.01-0.4-1.59
			c0-0.99,0.36-1.82,1.09-2.52c0.72-0.69,1.64-1.04,2.73-1.04c0.4,0,0.79,0.05,1.17,0.15c0.29,0.07,0.63,0.21,1.04,0.41
			c0.41,0.2,0.7,0.3,0.86,0.3c0.16,0,0.28-0.05,0.37-0.15c0.09-0.1,0.18-0.33,0.26-0.7H246.73z"/>
		<path d="M260.12,92.5v3.35h-0.33c-0.2-0.77-0.41-1.33-0.65-1.67c-0.24-0.34-0.56-0.61-0.98-0.81c-0.23-0.11-0.63-0.16-1.21-0.16
			h-0.92v9.54c0,0.63,0.04,1.03,0.11,1.19c0.07,0.16,0.21,0.3,0.41,0.41c0.2,0.12,0.48,0.18,0.84,0.18h0.41v0.34h-6.48v-0.34h0.41
			c0.36,0,0.65-0.06,0.86-0.19c0.16-0.09,0.28-0.23,0.37-0.44c0.07-0.15,0.1-0.53,0.1-1.15v-9.54h-0.9c-0.83,0-1.44,0.18-1.81,0.53
			c-0.53,0.49-0.86,1.19-1.01,2.11h-0.34V92.5H260.12z"/>
		<path d="M265.57,92.5h6.38v0.34h-0.32c-0.48,0-0.81,0.05-0.99,0.15c-0.18,0.1-0.31,0.24-0.39,0.42c-0.07,0.18-0.11,0.62-0.11,1.32
			v6.06c0,1.1,0.08,1.84,0.25,2.2c0.17,0.36,0.44,0.66,0.82,0.89c0.38,0.24,0.87,0.36,1.45,0.36c0.67,0,1.24-0.15,1.71-0.45
			c0.47-0.3,0.82-0.71,1.06-1.25c0.23-0.53,0.35-1.45,0.35-2.76v-5.04c0-0.55-0.06-0.95-0.17-1.19c-0.12-0.24-0.26-0.4-0.44-0.49
			c-0.27-0.14-0.66-0.21-1.16-0.21V92.5h4.28v0.34h-0.26c-0.34,0-0.63,0.07-0.87,0.21c-0.23,0.14-0.4,0.35-0.5,0.63
			c-0.08,0.19-0.12,0.54-0.12,1.05v4.7c0,1.45-0.09,2.5-0.29,3.15c-0.19,0.64-0.66,1.24-1.4,1.78c-0.74,0.54-1.75,0.81-3.04,0.81
			c-1.07,0-1.9-0.14-2.48-0.43c-0.8-0.39-1.36-0.89-1.69-1.5c-0.33-0.61-0.49-1.42-0.49-2.45v-6.06c0-0.71-0.04-1.15-0.12-1.33
			c-0.08-0.17-0.22-0.31-0.41-0.41c-0.2-0.1-0.56-0.15-1.08-0.15V92.5z"/>
		<path d="M283.27,92.5l6.1,7.67v-5.32c0-0.74-0.11-1.24-0.32-1.5c-0.29-0.35-0.78-0.52-1.47-0.51V92.5h4.08v0.34
			c-0.52,0.07-0.87,0.15-1.05,0.26c-0.18,0.11-0.32,0.28-0.42,0.52c-0.1,0.24-0.15,0.65-0.15,1.24v10.3h-0.31l-8.36-10.3v7.86
			c0,0.71,0.16,1.19,0.49,1.44c0.32,0.25,0.7,0.37,1.12,0.37h0.29v0.34h-4.39v-0.34c0.68,0,1.16-0.15,1.42-0.42
			c0.27-0.27,0.4-0.74,0.4-1.4v-8.73l-0.27-0.33c-0.26-0.33-0.49-0.55-0.69-0.65c-0.2-0.1-0.49-0.16-0.87-0.17V92.5H283.27z"/>
		<path d="M298.96,104.53v0.34h-6.47v-0.34h0.41c0.36,0,0.65-0.06,0.87-0.19c0.16-0.09,0.28-0.23,0.36-0.44
			c0.06-0.15,0.1-0.53,0.1-1.15v-8.14c0-0.63-0.04-1.03-0.1-1.19c-0.06-0.16-0.2-0.3-0.41-0.41c-0.2-0.12-0.48-0.18-0.82-0.18h-0.41
			V92.5h6.47v0.34h-0.41c-0.36,0-0.65,0.06-0.87,0.19c-0.16,0.08-0.28,0.23-0.37,0.44c-0.07,0.15-0.1,0.53-0.1,1.15v8.14
			c0,0.63,0.03,1.03,0.1,1.19c0.07,0.16,0.21,0.3,0.41,0.41c0.2,0.12,0.48,0.18,0.83,0.18H298.96z"/>
		<path d="M312.68,92.5v0.34c-0.45,0.07-0.85,0.31-1.21,0.72c-0.26,0.31-0.63,1.02-1.14,2.14l-4.26,9.45h-0.3l-4.24-9.83
			c-0.51-1.19-0.85-1.88-1.03-2.09c-0.17-0.21-0.5-0.34-0.98-0.39V92.5h5.93v0.34h-0.2c-0.53,0-0.9,0.07-1.09,0.2
			c-0.14,0.09-0.21,0.22-0.21,0.4c0,0.11,0.02,0.24,0.07,0.39c0.05,0.15,0.21,0.55,0.49,1.2l2.64,6.15l2.44-5.48
			c0.29-0.66,0.47-1.11,0.54-1.33c0.07-0.23,0.1-0.42,0.1-0.57c0-0.18-0.05-0.34-0.14-0.49c-0.1-0.14-0.24-0.25-0.43-0.32
			c-0.26-0.1-0.61-0.15-1.04-0.15V92.5H312.68z"/>
		<path d="M317.96,93.21v5.03h0.25c0.78,0,1.35-0.25,1.71-0.74c0.35-0.49,0.57-1.22,0.67-2.18h0.35v6.48h-0.35
			c-0.07-0.7-0.23-1.28-0.46-1.73c-0.23-0.45-0.51-0.75-0.82-0.91c-0.31-0.15-0.76-0.23-1.35-0.23v3.48c0,0.68,0.03,1.1,0.09,1.25
			c0.06,0.15,0.17,0.28,0.32,0.37c0.16,0.1,0.41,0.15,0.77,0.15h0.74c1.15,0,2.08-0.27,2.78-0.8c0.7-0.53,1.2-1.35,1.5-2.44h0.34
			l-0.56,3.93h-10.69v-0.34h0.41c0.36,0,0.65-0.06,0.86-0.19c0.16-0.09,0.28-0.23,0.36-0.44c0.07-0.15,0.1-0.53,0.1-1.15v-8.14
			c0-0.56-0.02-0.9-0.05-1.03c-0.06-0.21-0.18-0.38-0.34-0.49c-0.23-0.17-0.55-0.25-0.95-0.25h-0.41V92.5h10.35v3.66h-0.34
			c-0.18-0.89-0.42-1.53-0.74-1.92c-0.32-0.39-0.77-0.68-1.36-0.86c-0.34-0.11-0.98-0.16-1.92-0.16H317.96z"/>
		<path d="M330.3,99.23v3.47c0,0.67,0.04,1.09,0.12,1.26c0.08,0.17,0.23,0.31,0.43,0.42c0.21,0.1,0.59,0.15,1.16,0.15v0.34h-6.33
			v-0.34c0.57,0,0.96-0.05,1.16-0.16c0.2-0.11,0.35-0.25,0.43-0.42c0.08-0.17,0.12-0.59,0.12-1.26v-8.02c0-0.67-0.04-1.09-0.12-1.26
			c-0.08-0.18-0.23-0.31-0.43-0.42c-0.2-0.1-0.59-0.15-1.16-0.15V92.5h5.75c1.49,0,2.59,0.1,3.28,0.31c0.69,0.21,1.26,0.59,1.7,1.14
			c0.44,0.56,0.65,1.21,0.65,1.95c0,0.91-0.33,1.67-0.98,2.26c-0.42,0.38-1.01,0.66-1.76,0.85l2.97,4.19
			c0.39,0.54,0.67,0.88,0.83,1.01c0.25,0.19,0.54,0.29,0.87,0.31v0.34h-3.89l-3.99-5.64H330.3z M330.3,93.17v5.42h0.52
			c0.84,0,1.48-0.08,1.9-0.23c0.42-0.15,0.75-0.44,0.99-0.84c0.24-0.4,0.36-0.93,0.36-1.58c0-0.94-0.22-1.64-0.66-2.09
			c-0.44-0.45-1.15-0.67-2.13-0.67H330.3z"/>
		<path d="M347.6,92.22l0.1,4.12h-0.37c-0.18-1.03-0.61-1.86-1.3-2.5c-0.69-0.63-1.44-0.94-2.24-0.94c-0.62,0-1.11,0.16-1.47,0.5
			c-0.36,0.33-0.54,0.71-0.54,1.15c0,0.27,0.06,0.52,0.19,0.73c0.18,0.29,0.46,0.57,0.85,0.85c0.29,0.2,0.95,0.56,1.98,1.07
			c1.45,0.71,2.43,1.38,2.93,2.02c0.5,0.63,0.75,1.36,0.75,2.17c0,1.03-0.4,1.93-1.21,2.67c-0.81,0.75-1.83,1.12-3.07,1.12
			c-0.39,0-0.76-0.04-1.1-0.12c-0.35-0.08-0.78-0.23-1.3-0.45c-0.29-0.12-0.53-0.18-0.72-0.18c-0.16,0-0.32,0.06-0.5,0.18
			c-0.18,0.12-0.32,0.31-0.43,0.56h-0.34v-4.67h0.34c0.27,1.32,0.78,2.32,1.55,3.01c0.76,0.69,1.58,1.03,2.47,1.03
			c0.68,0,1.22-0.19,1.63-0.56c0.41-0.37,0.61-0.8,0.61-1.3c0-0.29-0.08-0.57-0.23-0.85c-0.16-0.27-0.39-0.53-0.71-0.78
			c-0.31-0.25-0.88-0.57-1.68-0.96c-1.12-0.56-1.93-1.03-2.43-1.41c-0.49-0.39-0.87-0.82-1.13-1.3c-0.26-0.48-0.4-1.01-0.4-1.59
			c0-0.99,0.36-1.82,1.09-2.52c0.72-0.69,1.63-1.04,2.73-1.04c0.4,0,0.79,0.05,1.17,0.15c0.29,0.07,0.63,0.21,1.04,0.41
			c0.41,0.2,0.7,0.3,0.86,0.3c0.16,0,0.28-0.05,0.37-0.15c0.09-0.1,0.18-0.33,0.26-0.7H347.6z"/>
		<path d="M356.05,104.53v0.34h-6.47v-0.34h0.41c0.36,0,0.65-0.06,0.87-0.19c0.16-0.09,0.28-0.23,0.36-0.44
			c0.07-0.15,0.1-0.53,0.1-1.15v-8.14c0-0.63-0.03-1.03-0.1-1.19c-0.07-0.16-0.2-0.3-0.41-0.41c-0.2-0.12-0.48-0.18-0.83-0.18h-0.41
			V92.5h6.47v0.34h-0.41c-0.36,0-0.65,0.06-0.87,0.19c-0.16,0.08-0.28,0.23-0.37,0.44c-0.07,0.15-0.1,0.53-0.1,1.15v8.14
			c0,0.63,0.04,1.03,0.11,1.19c0.07,0.16,0.2,0.3,0.41,0.41c0.2,0.12,0.48,0.18,0.82,0.18H356.05z"/>
		<path d="M368.26,92.5v3.35h-0.32c-0.19-0.77-0.41-1.33-0.65-1.67c-0.24-0.34-0.56-0.61-0.98-0.81c-0.23-0.11-0.63-0.16-1.21-0.16
			h-0.92v9.54c0,0.63,0.04,1.03,0.11,1.19c0.07,0.16,0.21,0.3,0.41,0.41c0.2,0.12,0.48,0.18,0.84,0.18h0.41v0.34h-6.48v-0.34h0.41
			c0.36,0,0.65-0.06,0.87-0.19c0.16-0.09,0.28-0.23,0.37-0.44c0.07-0.15,0.1-0.53,0.1-1.15v-9.54h-0.89c-0.83,0-1.44,0.18-1.81,0.53
			c-0.53,0.49-0.86,1.19-1,2.11h-0.35V92.5H368.26z"/>
		<path d="M382.22,92.5v0.34c-0.41,0.06-0.72,0.17-0.94,0.35c-0.3,0.26-0.78,0.95-1.44,2.09l-2.68,4.48v2.99
			c0,0.64,0.04,1.04,0.1,1.19c0.07,0.16,0.2,0.29,0.4,0.41c0.2,0.12,0.46,0.18,0.79,0.18h0.69v0.34h-6.94v-0.34h0.65
			c0.36,0,0.65-0.06,0.87-0.19c0.16-0.09,0.28-0.23,0.37-0.44c0.07-0.15,0.1-0.53,0.1-1.15v-2.48l-2.91-5.3
			c-0.58-1.05-0.99-1.66-1.22-1.85c-0.24-0.19-0.55-0.28-0.95-0.29V92.5h5.93v0.34h-0.26c-0.36,0-0.61,0.05-0.75,0.15
			c-0.14,0.11-0.21,0.21-0.21,0.33c0,0.22,0.24,0.77,0.73,1.65l2.24,4.09l2.23-3.73c0.55-0.91,0.83-1.52,0.83-1.81
			c0-0.16-0.08-0.3-0.24-0.41c-0.2-0.15-0.59-0.25-1.14-0.27V92.5H382.22z"/>
	</g>
</g>
</svg>
