<?xml version="1.0" encoding="UTF-8"?>
<svg id="_图层_2" data-name="图层_2" xmlns="http://www.w3.org/2000/svg" viewBox="0 0 117.85 117.85">
  <defs>
    <style>
      .cls-1 {
        fill: #fff;
      }

      .cls-2 {
        fill: #587558;
      }

      .cls-3, .cls-4 {
        fill: #231815;
      }

      .cls-5 {
        fill: #fdd000;
      }

      .cls-4 {
        fill-rule: evenodd;
      }
    </style>
  </defs>
  <g id="_图层_1-2" data-name="图层_1">
    <g>
      <path class="cls-1" d="M58.92,0C26.38,0,0,26.38,0,58.92s26.38,58.92,58.92,58.92,58.92-26.38,58.92-58.92S91.47,0,58.92,0Z"/>
      <path class="cls-5" d="M40.52,63.52v-3.85h3.83c1.85-5.08,6.21-8.83,11.51-9.91v-1.82h-.71v-.29c1.01-.7,2.18-1.13,3.4-1.24v-2.56h.75v2.56c1.22.12,2.39.55,3.4,1.24v.29h-.71v1.82c5.3,1.07,9.66,4.82,11.51,9.91h3.83v3.85h3.47l-10.71,18.55h-22.33l-10.71-18.55h3.47Z"/>
      <path class="cls-2" d="M55.1,48.7v.46c-5.11,1.24-9.31,4.87-11.27,9.76h-4.06v3.85h-3.15l-10.92-18.91h32.1v1.9c-1.24.23-2.41.75-3.4,1.52v1.43h.71Z"/>
      <path class="cls-2" d="M78.08,62.77v-3.85h-4.06c-1.96-4.88-6.16-8.52-11.27-9.76v-.46h.71v-1.43c-1-.77-2.17-1.29-3.4-1.52v-1.9h32.1l-10.92,18.91h-3.15Z"/>
      <polygon class="cls-2" points="58.92 101.41 48.79 83.85 69.06 83.85 58.92 101.41"/>
      <path class="cls-5" d="M58.92,4.56C28.9,4.56,4.56,28.9,4.56,58.92s24.34,54.37,54.37,54.37,54.37-24.34,54.37-54.37S88.95,4.56,58.92,4.56ZM62.24,100.83l-3.31,5.74-3.31-5.73c-20.61-1.59-37-17.93-38.66-38.54-1.86-23.14,15.38-43.41,38.53-45.28,23.14-1.86,43.41,15.38,45.28,38.53,1.86,23.14-15.38,43.41-38.53,45.28Z"/>
      <path class="cls-3" d="M58.92,3.45C28.29,3.45,3.45,28.29,3.45,58.92s24.84,55.47,55.47,55.47,55.47-24.84,55.47-55.47S89.56,3.45,58.92,3.45ZM58.92,113.29c-30.03,0-54.37-24.34-54.37-54.37S28.9,4.56,58.92,4.56s54.37,24.34,54.37,54.37-24.34,54.37-54.37,54.37Z"/>
      <path class="cls-3" d="M100.76,55.55c-1.86-23.14-22.14-40.39-45.28-38.53-23.14,1.86-40.39,22.14-38.53,45.28,1.66,20.6,18.05,36.94,38.66,38.54l3.31,5.73,3.31-5.74c23.14-1.86,40.39-22.14,38.53-45.28ZM41.28,22.07c20.36-9.74,44.76-1.14,54.5,19.22H22.07c4.03-8.41,10.81-15.19,19.22-19.22ZM55.1,48.7v.46c-5.11,1.24-9.31,4.87-11.27,9.76h-4.06v3.85h-3.15l-10.92-18.91h32.1v1.9c-1.24.23-2.41.75-3.4,1.52v1.43h.71ZM40.52,63.52v-3.85h3.83c1.85-5.08,6.21-8.83,11.51-9.91v-1.82h-.71v-.29c1.01-.7,2.18-1.13,3.4-1.24v-2.56h.75v2.56c1.22.12,2.39.55,3.4,1.24v.29h-.71v1.82c5.3,1.07,9.66,4.82,11.51,9.91h3.83v3.85h3.47l-10.71,18.55h-22.33l-10.71-18.55h3.47ZM78.08,62.77v-3.85h-4.06c-1.96-4.88-6.16-8.52-11.27-9.76v-.46h.71v-1.43c-1-.77-2.17-1.29-3.4-1.52v-1.9h32.1l-10.92,18.91h-3.15ZM42.08,96.15c-20.56-9.3-29.69-33.51-20.39-54.07l33.2,57.51c-4.43-.44-8.76-1.6-12.81-3.43ZM58.92,101.41l-10.14-17.56h20.27l-10.14,17.56ZM62.95,99.59l33.2-57.51c1.84,4.06,2.99,8.38,3.43,12.81,2.22,22.46-14.18,42.47-36.64,44.69Z"/>
      <g id="LWPOLYLINE">
        <rect class="cls-3" x="47.17" y="71.88" width="23.5" height="1.84"/>
      </g>
      <g id="CIRCLE">
        <path class="cls-3" d="M23.37,92.99c0-.78.63-1.42,1.42-1.42s1.42.63,1.42,1.42-.63,1.42-1.42,1.42-1.42-.63-1.42-1.42h0Z"/>
      </g>
      <g id="CIRCLE-2" data-name="CIRCLE">
        <path class="cls-3" d="M91.64,92.99c0-.78.63-1.42,1.42-1.42s1.42.63,1.42,1.42-.63,1.42-1.42,1.42-1.42-.63-1.42-1.42h0Z"/>
      </g>
      <g id="SPLINE">
        <path class="cls-3" d="M19.26,78.21c-.12-.07-.2-.17-.24-.26-.05-.13-.08-.29-.08-.5,0-.39-.02-.7-.06-.93-.05-.24-.13-.49-.22-.73-.33-.78-.84-1.32-1.5-1.62-.68-.31-1.34-.33-1.98-.06-.5.22-.88.56-1.15,1.03-.25.48-.41,1.26-.48,2.35-.04.77-.09,1.27-.14,1.5-.07.31-.17.56-.31.74-.09.14-.22.24-.4.32-.27.11-.56.1-.86-.04-.3-.14-.52-.4-.69-.79-.2-.5-.2-1.04,0-1.64.2-.6.62-1.1,1.2-1.47l-.1-.24-2.54,1.13.07.17c.25-.05.42-.05.49-.02.09.02.15.09.19.19.05.1.06.31.05.62-.01.31,0,.56.03.76.04.27.12.52.23.77.29.69.74,1.17,1.37,1.44.63.27,1.22.29,1.85.02.36-.15.65-.37.87-.65.23-.3.4-.64.51-1.06.12-.4.2-1.02.25-1.87.03-.6.08-1.03.15-1.29.07-.26.18-.48.3-.65.13-.16.28-.29.46-.36.31-.13.63-.12.97.04.33.15.59.45.78.87.23.56.23,1.16,0,1.82-.23.66-.7,1.25-1.45,1.76l.08.2,2.89-1.22-.08-.2c-.19,0-.35-.04-.47-.12Z"/>
      </g>
      <path class="cls-3" d="M15.95,66.63c-.27-1.46-1-2.5-2.19-3.12-.9-.47-1.86-.6-2.9-.42-1.21.22-2.16.81-2.82,1.76-.66.97-.85,2.1-.57,3.39.17,1.21.74,2.15,1.69,2.84.96.67,2.04.91,3.27.69,1.08-.19,1.96-.68,2.63-1.46.85-.98,1.16-2.21.89-3.68ZM15.06,68.3c-.59.62-1.57,1.05-2.96,1.29-1.17.21-2.1.22-2.79.02-.82-.26-1.31-.76-1.44-1.51-.08-.41-.03-.79.13-1.13.18-.36.5-.67,1.01-.97.49-.29,1.28-.54,2.36-.73.92-.17,1.67-.2,2.26-.1.6.1,1.06.3,1.38.6.25.24.42.57.49.98.11.61-.03,1.13-.44,1.55Z"/>
      <g id="SPLINE-2" data-name="SPLINE">
        <path class="cls-3" d="M8.14,58.8l4.08.26c.69.05,1.25-.03,1.66-.23.44-.19.79-.55,1.09-1.06.21-.38.35-.94.39-1.65.05-.86-.09-1.55-.42-2.07-.34-.52-.72-.86-1.15-1.01-.42-.15-1.12-.27-2.09-.32l-3.17-.2c-.33-.02-.57-.06-.69-.13-.19-.07-.32-.2-.41-.35-.08-.17-.12-.36-.11-.59l.02-.16-.23-.02-.19,2.87.23.02c.02-.33.09-.58.2-.74.07-.12.18-.2.34-.28.17-.06.43-.08.8-.06l3.39.22c.88.06,1.5.17,1.84.35.36.17.61.43.79.75.18.33.25.72.23,1.16-.02.39-.12.71-.31.95-.18.25-.39.42-.63.51-.25.09-.74.11-1.49.07l-4.08-.26c-.47-.04-.76-.08-.88-.13-.12-.07-.2-.15-.26-.29-.06-.11-.08-.34-.06-.66v-.22s-.21-.01-.21-.01l-.27,4.28h.22c.03-.34.07-.58.14-.71.09-.13.19-.21.3-.27.13-.04.43-.05.9-.03Z"/>
      </g>
      <g id="SPLINE-3" data-name="SPLINE">
        <path class="cls-3" d="M10.1,47.95c-.57-.28-.95-.62-1.17-1.06-.15-.32-.14-.74.02-1.29l.18-.6,6.16,1.85c.4.13.64.23.73.3.11.08.18.2.21.32.04.16.02.35-.04.59l-.08.26.21.07,1.24-4.15-.22-.06-.07.26c-.07.22-.17.39-.29.5-.11.1-.22.16-.34.17-.12.01-.39-.05-.79-.15l-6.15-1.87.19-.59c.1-.38.22-.62.34-.76.21-.23.44-.39.71-.47.26-.08.66-.11,1.2-.1l.06-.21-2.16-.65-2.16,7.19,2.16.65.07-.2Z"/>
      </g>
      <g id="SPLINE-4" data-name="SPLINE">
        <path class="cls-3" d="M11.84,36.53c.11-.21.24-.34.38-.41.13-.08.27-.1.38-.09.12,0,.37.13.73.34l4.73,2.76c.37.21.59.37.64.45.09.13.14.24.14.37,0,.16-.06.36-.18.55l-.15.25.2.12,2.18-3.75-.2-.11-.13.23c-.12.21-.25.34-.38.42-.15.08-.27.11-.39.1-.12-.01-.35-.13-.74-.34l-2.22-1.3,1.5-2.56,2.23,1.3c.36.21.57.36.63.45.09.13.13.25.13.37,0,.16-.05.35-.17.56l-.14.23.19.11,2.18-3.74-.2-.11-.13.23c-.11.2-.25.35-.38.42-.14.08-.27.11-.37.1-.12-.02-.37-.14-.74-.36l-4.73-2.75c-.37-.22-.57-.38-.64-.46-.08-.13-.13-.25-.12-.37-.01-.17.05-.35.18-.57l.13-.23-.19-.11-2.19,3.73.2.12.14-.24c.12-.19.25-.33.39-.42.14-.08.27-.11.38-.09.12.01.37.13.73.35l2.04,1.18-1.49,2.56-2.03-1.19c-.37-.21-.58-.37-.64-.45-.09-.12-.13-.24-.13-.36,0-.17.05-.36.18-.57l.14-.24-.19-.11-2.18,3.74.2.11.13-.24Z"/>
      </g>
      <g id="SPLINE-5" data-name="SPLINE">
        <path class="cls-3" d="M18.84,25.7c.18-.2.38-.3.56-.34.14-.03.27,0,.4.07.07.04.25.2.53.46l3.96,3.79c.3.29.47.48.52.59.06.13.08.27.04.39-.04.16-.13.33-.3.5l-.19.2.15.15,4.97-5.18-1.65-2.1-.15.17c.39.66.55,1.28.47,1.86-.05.59-.36,1.16-.89,1.72l-.34.37c-.17.16-.31.27-.43.3-.12.04-.23.03-.34-.02-.09-.03-.31-.22-.64-.54l-1.7-1.62c.27-.29.52-.47.74-.56.22-.07.49-.06.82.03.32.09.68.29,1.06.58l.15-.15-3.17-3.01-.14.15c.42.49.67.95.74,1.35.08.4-.06.79-.43,1.18l-.12.11-2.45-2.33.58-.61c.44-.45.77-.74.98-.86.36-.2.71-.29,1.05-.27.34.03.76.2,1.27.53l.15-.16-1.77-1.7-4.81,5.03.16.15.19-.2Z"/>
      </g>
      <path class="cls-3" d="M38.42,19.72c-.23.12-.43.16-.62.13-.25-.03-.67-.25-1.27-.64l-6.23-4.08-.11.07,1.17,7.18c.12.69.15,1.18.1,1.45-.03.28-.18.52-.4.72l.12.19,2.31-1.52-.12-.19c-.38.22-.63.32-.76.32-.22.01-.4-.07-.53-.28-.1-.15-.18-.37-.23-.66l-.15-.89,2.42-1.59.96.64c.24.16.38.26.41.28.06.05.11.11.15.17.08.1.08.21.05.32-.07.14-.23.32-.49.5l-.15.09.13.19,3.36-2.22-.12-.18ZM31.62,21.02l-.49-3.05,2.58,1.68-2.08,1.36Z"/>
      <g id="SPLINE-6" data-name="SPLINE">
        <path class="cls-3" d="M38.91,14.26c.29.24.64.41,1.03.55.42.12,1.02.22,1.87.3.61.06,1.02.12,1.29.2.26.07.47.18.63.32.16.13.29.29.35.47.12.31.09.64-.06.97-.18.33-.48.57-.91.75-.56.21-1.16.2-1.82-.05-.65-.25-1.22-.74-1.71-1.51l-.2.09,1.13,2.94.21-.09c0-.19.05-.34.14-.45.08-.12.17-.2.28-.25.11-.04.28-.06.49-.05.38,0,.7,0,.94-.04.24-.03.49-.1.73-.19.78-.31,1.34-.78,1.67-1.46.33-.66.37-1.32.13-1.96-.2-.51-.54-.91-1-1.18-.47-.27-1.26-.46-2.33-.55-.77-.07-1.27-.14-1.5-.19-.31-.08-.56-.19-.74-.33-.12-.1-.23-.24-.29-.41-.1-.27-.08-.56.07-.86.15-.29.43-.5.81-.66.51-.2,1.07-.18,1.65.05.59.23,1.06.64,1.42,1.25l.24-.1-1.05-2.56-.17.06c.03.25.03.41,0,.49-.04.08-.1.15-.2.19-.1.03-.31.04-.62.02-.31-.01-.57-.01-.77,0-.26.04-.52.1-.77.2-.69.27-1.2.7-1.48,1.31-.29.61-.32,1.23-.08,1.85.14.35.35.66.63.89Z"/>
      </g>
      <g id="SPLINE-7" data-name="SPLINE">
        <path class="cls-3" d="M47.34,10.27c0-.61.15-1.11.45-1.49.22-.28.59-.46,1.15-.55l.61-.1,1.04,6.34c.07.42.09.68.05.78-.03.14-.1.25-.18.33-.14.11-.32.18-.57.22l-.25.04.02.22,4.28-.69-.04-.22-.27.04c-.23.05-.42.03-.57-.02-.15-.06-.25-.14-.31-.25-.06-.09-.13-.36-.2-.78l-1.03-6.34.62-.09c.39-.06.66-.08.82-.03.3.09.55.24.74.43.19.2.4.54.61,1.03l.22-.03-.38-2.23-7.41,1.2.36,2.23.22-.05Z"/>
      </g>
      <g id="SPLINE-8" data-name="SPLINE">
        <path class="cls-3" d="M64.37,7.6c.05.12.02.43-.07.89l-.68,4.02c-.12.69-.1,1.24.05,1.69.14.45.46.84.95,1.19.35.25.88.44,1.59.57.84.14,1.55.07,2.11-.2.55-.27.92-.61,1.13-1.02.19-.41.38-1.1.54-2.07l.52-3.12c.06-.33.12-.56.2-.68.1-.17.24-.29.41-.37.16-.06.37-.08.59-.03l.17.02.05-.22-2.84-.48-.04.22c.32.06.56.15.73.26.11.09.19.21.24.38.05.17.04.44-.02.8l-.57,3.35c-.15.87-.33,1.47-.54,1.79-.21.32-.49.56-.83.71-.36.14-.74.18-1.18.1-.38-.07-.69-.2-.91-.4-.22-.2-.38-.43-.44-.68-.07-.25-.04-.76.08-1.5l.69-4.01c.07-.47.15-.75.23-.87.06-.1.16-.18.3-.23.13-.04.35-.04.66,0l.22.04.04-.21-4.23-.72-.04.21c.36.06.58.13.71.22.12.09.19.2.22.32Z"/>
      </g>
      <g id="SPLINE-9" data-name="SPLINE">
        <path class="cls-3" d="M71.64,16.81l2.74,1.14.08-.21-.18-.08c-.26-.11-.46-.28-.61-.52-.14-.25-.12-.58.06-1.01l2.06-4.93,2.53,8.59.2.08,2.66-6.4c.15-.37.3-.61.42-.73.12-.13.25-.2.4-.23.13-.02.37.02.72.12l.08-.2-2.54-1.06-.08.2c.42.17.69.4.78.7.07.21,0,.55-.2,1.02l-1.36,3.27-1.82-6.32-2.74-1.14-.08.2c.23.1.39.21.49.34.1.11.18.31.26.6l.08.29-2.26,5.42c-.16.41-.37.66-.61.75-.24.1-.56.07-1-.11l-.08.2Z"/>
      </g>
      <g id="SPLINE-10" data-name="SPLINE">
        <path class="cls-3" d="M85.84,14.71c.06.14.1.28.08.39-.03.11-.15.35-.38.72l-2.98,4.6c-.24.35-.4.55-.49.61-.12.1-.25.14-.37.12-.17,0-.35-.07-.55-.2l-.23-.15-.12.19,3.63,2.35.13-.19-.23-.15c-.2-.12-.34-.26-.4-.4-.07-.15-.09-.27-.08-.38.01-.12.14-.36.37-.73l2.98-4.59c.23-.35.39-.56.48-.62.13-.09.25-.12.38-.12.17,0,.36.07.56.2l.22.16.12-.18-3.63-2.36-.13.18.23.16c.19.12.33.25.4.4Z"/>
      </g>
      <g id="SPLINE-11" data-name="SPLINE">
        <path class="cls-3" d="M88.54,26.98l.15.16,6.44-2.69c.77-.32,1.28-.51,1.55-.53.36-.05.66.03.91.19l.16-.16-1.99-1.86-.15.16c.22.2.36.38.44.56.06.12.08.24.06.35-.02.11-.07.21-.15.3-.08.08-.18.16-.31.24-.14.08-.43.22-.89.41l-3.72,1.56,1.55-4.22c.17-.45.27-.73.31-.82.05-.1.1-.17.15-.22.07-.09.17-.12.28-.11.16.02.37.16.64.4l.1.09.15-.16-2.91-2.72-.15.16c.21.25.31.46.3.64-.02.19-.16.68-.46,1.5l-2.47,6.76Z"/>
      </g>
      <g id="SPLINE-12" data-name="SPLINE">
        <path class="cls-3" d="M99.14,28.04l-4.51,3.09c-.36.24-.58.37-.69.39-.15.02-.29.02-.39-.04-.15-.06-.3-.21-.43-.4l-.16-.23-.18.12,4.05,5.92,2.39-1.18-.13-.18c-.72.24-1.37.28-1.92.09-.56-.17-1.06-.59-1.5-1.23l-.28-.41c-.14-.2-.21-.36-.21-.48,0-.12.03-.23.1-.32.05-.08.28-.27.66-.52l1.94-1.34c.22.33.35.62.38.85.03.23-.03.5-.19.79-.16.3-.43.6-.79.92l.13.18,3.6-2.47-.13-.17c-.57.31-1.06.46-1.48.45-.4,0-.76-.23-1.06-.66l-.09-.15,2.79-1.91.48.7c.35.52.58.91.64,1.13.12.39.14.75.05,1.08-.1.33-.36.71-.78,1.15l.12.18,2.03-1.39-3.93-5.72-.19.12.16.22c.16.22.22.42.22.62,0,.13-.05.26-.14.38-.07.06-.25.2-.57.41Z"/>
      </g>
      <path class="cls-3" d="M107.69,41.2c-.05-.49-.25-1.2-.63-2.13l-1.45-3.59-.2.08c.14.36.21.61.19.76,0,.17-.06.29-.14.39-.09.09-.34.23-.75.4l-5.05,2.03c-.41.16-.69.24-.81.24-.13-.01-.25-.07-.37-.17-.11-.1-.24-.34-.39-.69l-.2.09,1.6,3.97.2-.08c-.14-.36-.21-.62-.2-.77.02-.16.07-.29.15-.38.09-.1.34-.23.76-.4l2.18-.88.21.51-2.52,3.92.98,2.41.2-.08c-.07-.21-.08-.41-.02-.61.04-.13.19-.39.43-.77l1.87-2.89c.31.42.62.71.96.87.54.26,1.1.27,1.66.04.46-.18.82-.49,1.06-.9.24-.42.33-.87.29-1.35ZM106.71,40.67c-.16.38-.54.7-1.12.94-.4.15-.76.21-1.07.16-.3-.05-.57-.19-.77-.42-.2-.23-.41-.6-.62-1.13l-.14-.33,3.35-1.35.25.62c.26.62.29,1.12.13,1.51Z"/>
      <g id="SPLINE-13" data-name="SPLINE">
        <path class="cls-3" d="M106.44,47.62c-.28.23-.52.53-.72.91-.2.37-.42.97-.65,1.78-.16.58-.31.99-.45,1.23-.12.23-.25.42-.42.56-.17.13-.34.22-.54.25-.33.06-.63-.02-.93-.25-.3-.22-.47-.56-.55-1.03-.12-.59.02-1.17.38-1.76.36-.59.96-1.06,1.79-1.4l-.03-.22-3.09.56.04.21c.18.05.32.12.43.22.09.1.15.21.18.31.01.13,0,.3-.03.5-.08.37-.13.68-.14.93,0,.24,0,.48.05.74.16.83.52,1.47,1.11,1.92.59.45,1.23.62,1.9.48.54-.09,1-.34,1.35-.75.37-.41.69-1.15.98-2.18.22-.75.37-1.23.47-1.44.13-.29.28-.52.46-.67.13-.11.27-.18.47-.21.28-.05.55.02.82.22.25.21.42.52.5.93.09.54-.03,1.06-.36,1.6-.34.54-.83.93-1.5,1.18l.05.26,2.72-.56-.03-.17c-.25-.01-.41-.04-.48-.09-.08-.04-.14-.13-.15-.23-.02-.11.01-.32.09-.62.08-.3.13-.54.14-.74.02-.26,0-.54-.05-.8-.13-.74-.47-1.31-1.01-1.7-.56-.41-1.15-.55-1.81-.43-.37.07-.71.21-1,.45Z"/>
      </g>
      <g id="SPLINE-14" data-name="SPLINE">
        <path class="cls-3" d="M110.69,55.81c0,.23-.02.41-.1.56-.08.14-.17.23-.28.28-.1.05-.38.07-.8.08l-5.48.13c-.42,0-.68-.01-.78-.06-.14-.05-.24-.13-.3-.23-.09-.14-.14-.34-.14-.58v-.27h-.24l.11,4.33h.22v-.28c0-.24.02-.41.1-.56.08-.14.17-.24.28-.28.1-.05.38-.08.81-.1l5.48-.12c.42,0,.68,0,.78.05.15.05.24.13.3.23.1.15.15.34.15.59v.27h.23l-.1-4.33h-.22v.28Z"/>
      </g>
      <g id="SPLINE-15" data-name="SPLINE">
        <path class="cls-3" d="M108.69,62.83c.59.18,1.03.48,1.3.88.19.29.25.71.18,1.28l-.11.62-6.34-.96c-.43-.06-.68-.13-.77-.18-.12-.08-.22-.18-.25-.29-.07-.15-.09-.35-.05-.59l.04-.27-.22-.04-.64,4.28.22.04.04-.27c.04-.23.11-.41.2-.53.11-.12.2-.2.32-.22.11-.03.38-.01.81.05l6.35.95-.08.62c-.07.39-.14.65-.23.78-.18.26-.39.46-.63.58-.25.13-.64.22-1.17.27l-.04.21,2.22.32,1.12-7.42-2.23-.33-.03.22Z"/>
      </g>
      <g id="SPLINE-16" data-name="SPLINE">
        <path class="cls-3" d="M108.48,73.94c-.18.09-.66.2-1.46.32l-4.04.53-1.55-.59c-.4-.15-.63-.26-.71-.34-.11-.1-.17-.23-.19-.34-.04-.17,0-.37.08-.59l.16-.4-.2-.08-1.68,4.34.2.08.17-.44c.08-.2.18-.35.3-.45.12-.1.25-.14.36-.15.12,0,.38.08.78.23l1.87.72,2.18,2.77c.56.7.88,1.17.96,1.42.06.19.06.4,0,.67l.2.08.92-2.37-.21-.08c-.15.34-.3.56-.45.65-.1.07-.2.08-.31.05-.2-.07-.51-.39-.96-.96l-1.79-2.31,3.09-.41c.68-.09,1.1-.11,1.23-.05.07.03.13.11.16.21.03.12,0,.28-.09.51l-.06.17.2.08,1.43-3.72-.2-.08c-.11.24-.24.43-.42.53Z"/>
      </g>
      <g id="SPLINE-17" data-name="SPLINE">
        <path class="cls-3" d="M85.28,69.63c-.03.23-.06.45-.1.64h2.6v3.86c0,.35-.09.52-.34.61-.25.1-.66.1-1.22.1-.04-.16-.14-.41-.23-.57.4.02.84.01.96,0,.13,0,.16-.04.16-.15v-3.25h-4.21v3.96h-.66v-4.57h2.3c.02-.19.06-.42.08-.64h-2.71v-.62h2.78c.02-.23.04-.46.04-.66l.72.07c-.02.19-.05.39-.08.59h2.73v.62h-2.82Z"/>
      </g>
      <g id="SPLINE-18" data-name="SPLINE">
        <path class="cls-3" d="M85.29,73.53v1.16h-.62v-1.16h-1.42v-.53h1.42v-.61h-1.28v-.52h.65c-.06-.23-.2-.55-.33-.79l.52-.13c.16.25.3.59.37.81l-.38.11h1.16c.12-.28.27-.67.34-.94l.6.13c-.12.28-.24.56-.36.81h.67v.52h-1.34v.61h1.47v.53h-1.47Z"/>
      </g>
      <g id="SPLINE-19" data-name="SPLINE">
        <path class="cls-3" d="M90.8,73.07c-.37.56-.91,1.18-1.4,1.6-.11-.13-.34-.32-.47-.42.45-.38.98-.95,1.23-1.41l.64.23Z"/>
      </g>
      <path class="cls-3" d="M89.85,70.32v2.11h1.91v1.69c0,.09-.04.12-.16.12-.13,0-.57,0-.98,0,.08.18.18.45.21.64.6,0,1.01,0,1.28-.1.27-.1.35-.28.35-.64v-1.71h1.92v-2.11h-4.53ZM93.69,71.87h-3.18v-.97h3.18v.97Z"/>
      <g id="SPLINE-20" data-name="SPLINE">
        <path class="cls-3" d="M93.86,72.83c.44.45,1.01,1.07,1.28,1.47l-.58.38c-.25-.4-.79-1.06-1.25-1.52l.55-.33Z"/>
      </g>
      <g id="SPLINE-21" data-name="SPLINE">
        <path class="cls-3" d="M21.48,70.51v-.52c.49-.05.83-.13,1.03-.24.19-.11.34-.38.43-.8h.54v5.39h-.73v-3.83h-1.27Z"/>
      </g>
      <path class="cls-3" d="M27.64,69.99c-.3-.71-.84-1.07-1.63-1.07-.58,0-1.03.19-1.33.56-.3.37-.45.8-.45,1.3s.15.93.46,1.25c.3.32.72.49,1.24.49.26,0,.5-.05.72-.15.22-.1.41-.26.56-.5-.1.83-.26,1.38-.49,1.65-.23.27-.51.41-.83.41-.17,0-.33-.04-.47-.11-.27-.14-.41-.4-.43-.78h-.69c0,.42.14.77.41,1.04.27.28.68.42,1.21.42.79,0,1.35-.43,1.68-1.28.2-.51.3-1.1.3-1.76,0-.59-.08-1.08-.25-1.47ZM26.76,71.66c-.22.18-.47.27-.74.27-.38,0-.65-.1-.82-.31-.17-.21-.26-.49-.26-.84,0-.37.1-.67.29-.89.2-.22.46-.33.79-.33.31,0,.57.1.77.29.2.2.3.49.3.89,0,.44-.11.75-.33.93Z"/>
      <path class="cls-3" d="M31.72,69.79c-.31-.58-.82-.87-1.52-.87-.78,0-1.32.41-1.61,1.23-.16.44-.24.97-.24,1.58,0,.79.13,1.43.4,1.9.32.56.8.85,1.45.85.72,0,1.24-.35,1.56-1.04.22-.48.33-1.09.33-1.83,0-.78-.12-1.39-.36-1.83ZM31.04,73.39c-.21.31-.49.47-.84.47-.44,0-.75-.26-.93-.77-.12-.34-.18-.78-.18-1.33,0-.73.09-1.29.28-1.67.19-.38.48-.56.88-.56.44,0,.73.2.88.6.15.4.23.9.23,1.52,0,.85-.1,1.43-.31,1.75Z"/>
      <g id="SPLINE-22" data-name="SPLINE">
        <path class="cls-3" d="M32.66,73.13c.17-.35.49-.66.98-.94l.73-.42c.33-.19.55-.35.68-.48.21-.21.31-.45.31-.72,0-.32-.09-.57-.28-.75-.19-.19-.44-.28-.76-.28-.47,0-.79.18-.97.53-.1.19-.15.45-.16.79h-.69c0-.47.09-.86.26-1.15.29-.52.82-.79,1.56-.79.62,0,1.07.17,1.36.5.29.34.43.71.43,1.12,0,.43-.15.8-.46,1.11-.18.18-.49.4-.95.65l-.52.29c-.25.14-.44.27-.58.39-.25.22-.41.46-.48.73h2.96v.64h-3.72c.03-.47.12-.87.29-1.22Z"/>
      </g>
      <g id="SPLINE-23" data-name="SPLINE">
        <path class="cls-3" d="M95.16,69.2v.64h-6.15v-.64h2.82c-.11-.23-.25-.49-.38-.69l.64-.21c.18.27.4.64.52.9h2.55Z"/>
      </g>
      <g>
        <path class="cls-3" d="M40.24,104.37c-.19-.31-.49-.4-.83-.3-.19.06-.41.08-.61.08-.14,0-.28-.05-.41-.1-.37-.12-.73-.23-1.09-.36-.46-.16-.93-.33-1.39-.48-.26-.09-.53-.16-.8-.24,0-.04-.02-.08-.02-.12.19-.21.38-.41.58-.61.12-.12.26-.22.39-.33.22-.19.56-.3.49-.69,0-.02.02-.04.03-.06.09-.26.18-.53-.05-.77-.14-.15-.25-.32-.39-.46-.04-.04-.16-.05-.2-.02-.07.06-.16.17-.15.24.06.27-.06.5-.19.69-.33.46-.71.89-1.08,1.32-.07.09-.18.14-.27.21-.13.11-.3.22-.35.36-.07.18-.05.4-.05.6,0,.19.4.48.56.4.38-.19.77-.05,1.12.02.55.1,1.12.18,1.61.5.06.04.15.04.22.08.59.28,1.18.55,1.77.84.36.17.69.38,1.05.54.28.13.5.02.55-.28.02-.14-.03-.32-.1-.46-.1-.21-.25-.39-.38-.59Z"/>
        <path class="cls-3" d="M43.68,101.8c-.06-.37-.37-.56-.62-.63-.2-.05-.3.05-.37.21-.11.24-.23.47-.33.71-.04.1-.1.26-.05.33.12.18.29.32.48.52.17.02.36.04.54.05.42.02.61-.23.5-.64-.05-.18-.12-.36-.15-.54Z"/>
        <path class="cls-3" d="M38.7,102.34c.15.25.48.28.66.08.19-.2.39-.39.6-.58.07-.07.18-.09.32-.16-.03-.12-.03-.23-.08-.29-.05-.05-.17-.05-.25-.04-.44.06-.79-.12-.98-.5-.02-.04-.13-.09-.18-.07-.39.14-.65.65-.38,1.04.12.17.2.36.3.53Z"/>
        <path class="cls-3" d="M52.01,103.92c.11-.2.21-.4.3-.61.02-.06,0-.16-.05-.22-.12-.16-.28-.29-.37-.46-.13-.22-.33-.27-.54-.27-.1,0-.26.07-.3.15-.04.09.04.23.05.35.02.15.09.32.04.45-.11.26-.27.5-.43.73-.16.22-.34.43-.51.64-.1.12-.21.24-.32.36-.03-.01-.06-.03-.09-.04.09-.31,0-.56-.2-.79-.05-.06-.05-.18-.04-.28.04-.43.11-.85.14-1.28.05-.7-.5-.99-1.11-.91-.06,0-.12.06-.18.09.03.05.06.11.1.16.08.1.22.18.23.28.04.54.11,1.1.06,1.63-.03.32-.21.71-.46.89-.2.15-.46.43-.82.31-.08-.02-.21,0-.27.07-.15.16-.33.1-.5.13-.29.05-.6-.03-.88.18-.13.1-.34.19-.56.07-.06-.03-.26.05-.3.12-.15.3-.27.62-.38.93-.03.09-.01.25.05.29.06.05.21.02.31,0,.08-.02.16-.08.21-.14.1-.14.21-.15.35-.08.12.05.22.03.34-.07.16-.14.38-.3.57-.3.41,0,.66-.26.92-.49.29-.26.61-.33.82-.12-.12.16-.24.33-.36.49-.23.32-.5.61-.74.92-.4.51-.87.86-1.44,1.13-.1.05-.13.27-.19.41.1.03.23.1.3.07.32-.13.66-.26.93-.47.31-.23.55-.54.83-.8.19-.19.39-.37.6-.54.05-.04.15-.07.19-.05.05.03.08.13.07.19-.02.3-.05.6-.09.9-.04.34-.09.68-.15,1.02,0,.05-.04.12-.08.15-.22.11-.45.2-.74.33.03.1.03.26.11.37.15.19.33.35.51.52.11.11.6.07.67-.05.14-.27.31-.53.38-.82.1-.46.13-.95.19-1.42.01-.08.03-.17.06-.25.12-.38.31-.75.35-1.14.03-.33.2-.56.42-.67.42-.2.78-.46,1.1-.78.17-.17.33-.36.47-.56.16-.22.29-.46.42-.7Z"/>
        <path class="cls-3" d="M55.08,104.64c-.23-.25-.51-.47-.96-.51-.06.03-.18.08-.29.14-.07.03-.13.09-.2.11-.35.08-.71.14-1.07.22-.16.03-.33.06-.47.13-.15.07-.16.19-.04.33.14.16.3.21.49.21.41,0,.83,0,1.24.02.27.01.55.05.82.08.23.02.47-.02.55-.23.05-.14.02-.39-.08-.49Z"/>
        <path class="cls-3" d="M52.85,106.6c-.21-.08-.42-.17-.64-.23-.38-.11-.54-.02-.69.4.13.1.25.22.39.31.29.2.31.41.11.71-.07.1-.06.26-.06.39,0,.14.12.18.22.12.4-.26.81-.52,1-.99.11-.28-.03-.59-.32-.7Z"/>
        <path class="cls-3" d="M52.59,109.86c-.36-.12-.6-.36-.85-.62-.17-.18-.47-.11-.48.12,0,.24.08.49.18.71.08.17.29.28.37.46.16.33.22.39.53.34.41-.07.49-.15.51-.51.02-.33,0-.42-.27-.51Z"/>
      </g>
      <g id="SPLINE-24" data-name="SPLINE">
        <path class="cls-3" d="M67.22,107.37c.34-.1.62-.23.92-.27.18-.03.42.03.57.13.24.16.2.44-.07.58-.23.12-.49.2-.74.27-.63.17-.64.29-.73.8-.05.26-.16.5-.23.75-.04.13-.05.26-.08.39.02.03.05.05.07.08.27-.07.57-.11.82-.23.54-.26,1.11-.31,1.68-.29.18,0,.38.15.52.28.08.08.11.33.05.39-.13.12-.34.24-.51.23-.72-.04-1.43-.08-2.13.14-.24.08-.52.04-.77.09-.21.04-.45.09-.61.22-.28.24-.63.23-.95.35-.41.15-.82.4-1.26.34-.28-.04-.54-.26-.78-.45-.09-.07-.13-.27.1-.34.07-.02.11-.11.18-.14.08-.03.18-.08.25-.05.43.19.85.12,1.27,0,.29-.09.6-.15.87-.28.12-.05.23-.24.24-.37.02-.24-.03-.48-.05-.72-.02-.24-.2-.37-.41-.26-.26.14-.54.15-.8.1-.28-.05-.6-.06-.8-.32-.13-.16-.06-.3.14-.34.58-.14,1.15-.27,1.72-.44.15-.04.3-.14.31-.36.01-.32.07-.63.09-.95.01-.26.21-.41.47-.33.33.09.39.39.51.65.05.11.08.22.13.34Z"/>
      </g>
      <g id="SPLINE-25" data-name="SPLINE">
        <path class="cls-3" d="M64.17,105.83c.48-.07.95-.14,1.41-.2.01.03.03.07.04.1-.2.13-.39.29-.6.39-.27.13-.56.2-.83.31-.26.11-.51.26-.78.36-.18.06-.46.15-.57.06-.26-.19-.4-.51-.36-.85,0-.08.13-.17.22-.2.29-.11.54-.22.75-.47.16-.19.38-.33.57-.5.18-.17.35-.36.51-.55.04-.05.06-.19.04-.2-.09-.05-.2-.11-.29-.09-.38.05-.77.09-1.13-.07-.14-.06-.27-.16-.38-.26-.12-.11-.02-.35.16-.38.55-.11,1.09-.21,1.64-.32.4-.08.79-.19,1.19-.28.02,0,.04,0,.05-.01.37-.44.94-.41,1.41-.62.31-.14.71-.13,1.06-.1.15.01.34.18.34.43,0,.2-.16.19-.26.28-.31.26-.68.19-1.02.25-.41.08-.81.21-1.2.34-.04.01-.07.09-.08.14-.01.08,0,.16,0,.23.07.5-.27.73-.62.97-.26.18-.49.4-.74.59-.03.03-.07.06-.11.07-.31.07-.4.3-.43.61Z"/>
      </g>
      <g id="SPLINE-26" data-name="SPLINE">
        <path class="cls-3" d="M69.37,105.56c-.03.07-.06.23-.14.26-.13.05-.32.06-.43,0-.55-.29-1.11-.53-1.74-.58-.06,0-.11-.04-.17-.07.03-.06.05-.15.1-.19.31-.26.68-.26,1.06-.22.12.01.24.03.36.02.34-.02.75.2.9.51.03.06.04.13.07.26Z"/>
      </g>
      <g id="SPLINE-27" data-name="SPLINE">
        <path class="cls-3" d="M81.77,103.16c-.02.51-.16.59-.73.66-.6.07-1.2.22-1.81.34.02-.09-.1-.27.14-.38.15-.07.27-.22.41-.33.16-.12.29-.3.54-.23.07.02.2-.03.25-.08.36-.41.75-.36,1.15-.08l.04.1Z"/>
      </g>
      <g id="SPLINE-28" data-name="SPLINE">
        <path class="cls-3" d="M75.44,105.71c-.15-.03-.32-.03-.46-.1-.09-.04-.17-.16-.21-.26-.02-.05.07-.15.14-.2.06-.05.15-.08.22-.07.5.07.74-.41,1.14-.56.07-.03.06-.36.03-.55,0-.07-.15-.19-.23-.19-.15,0-.3.06-.44.13-.22.11-.43.26-.66.36-.05.02-.17-.1-.26-.15.06-.09.11-.24.19-.28.46-.16.7-.58,1.06-.86.03-.03.01-.22-.03-.24-.11-.05-.27-.1-.35-.05-.18.11-.31.28-.47.42-.26.23-.46.24-.74.05-.1-.07-.16-.16,0-.26.42-.28.84-.55,1.24-.86.26-.2.46-.5.73-.69.3-.21.42-.64.84-.7.08-.01.17-.04.25-.06.27-.06.38,0,.44.23.06.24-.05.38-.27.48-.18.09-.34.24-.51.36-.06.04-.12.08-.19.11-.06.03-.17.07-.17.1,0,.1.03.21.08.28.03.04.16.03.22,0,.19-.09.38-.19.55-.31.19-.13.41-.16.5-.03.08.12-.02.39-.19.49-.22.14-.45.28-.65.44-.29.23-.29.59-.03.85.13.13.14.26.02.43-.19.25-.38.46-.7.53-.06.01-.11.12-.16.18-.2.2-.4.38-.6.58-.11.11-.21.24-.33.39Z"/>
      </g>
      <g id="SPLINE-29" data-name="SPLINE">
        <path class="cls-3" d="M80.26,107.28c-.4.21-.83.45-1.26.67-.13.06-.28.07-.42.12-.13.05-.26.09-.36.18-.3.25-.27.19-.59-.06-.17-.13-.26-.35-.41-.5-.21-.2-.36-.51-.73-.51-.1,0-.19-.13-.28-.2.07-.07.14-.17.22-.22.3-.15.73-.05.96.2.19.21.37.42.58.62.13.13.29.22.49.07.28-.2.58-.38.86-.59.06-.05.13-.19.11-.23-.12-.23-.05-.46-.04-.69,0-.03-.02-.06-.06-.15-.27.11-.53.21-.79.32-.12-.17-.2-.32.05-.46.08-.04.14-.13.18-.2.3-.49.78-.52,1.28-.48.24.02.37.14.36.41-.02.25-.01.47-.14.72-.12.24-.01.6,0,.99Z"/>
      </g>
      <g id="SPLINE-30" data-name="SPLINE">
        <path class="cls-3" d="M75.76,106.85c-.19.04-.33.05-.46.09-.16.04-.33.08-.46.16-.28.18-.56.37-.82.58-.17.14-.27.38-.45.51-.35.27-.72.54-1.21.3-.15-.07-.2-.15-.11-.29.14-.22.32-.35.6-.33.17.02.27-.03.37-.2.08-.13.28-.27.41-.26.36.05.62-.18.78-.38.21-.27.54-.35.74-.6.11-.14.22-.29.34-.43.21-.25.44-.46.78-.55.16-.04.3-.14.46-.17.1-.02.22.01.34.02-.01.1,0,.21-.04.3-.14.39-.43.63-.84.69-.17.03-.24.11-.27.28-.01.1-.11.19-.15.26Z"/>
      </g>
      <g id="SPLINE-31" data-name="SPLINE">
        <path class="cls-3" d="M77.95,105.31c-.19-.22-.02-.44.01-.65.03-.21.13-.4.18-.61.05-.23-.08-.34-.32-.31-.09.01-.19.02-.28-.02-.13-.05-.2-.15-.07-.28.14-.14.3-.27.45-.41.14-.13.31-.24.42-.4.14-.21.34-.31.56-.38.17-.06.31-.02.39.14.09.17.07.34-.09.46-.15.11-.31.21-.47.3-.14.09-.3.16-.44.25-.04.03-.09.1-.08.14.02.06.07.13.12.15.44.11.49.14.43.59-.03.21-.18.43-.32.61-.12.16-.31.27-.49.42Z"/>
      </g>
      <g id="SPLINE-32" data-name="SPLINE">
        <path class="cls-3" d="M77.69,99.1c.05.24-.08.69-.26.82-.2.14-.44.24-.49.54-.01.08-.22.18-.32.16-.2-.04-.3-.23-.23-.41.18-.48-.08-.89-.15-1.33-.02-.09-.03-.26,0-.28.14-.07.32-.15.45-.11.21.08.39.23.63.28.14.03.25.21.37.32Z"/>
      </g>
      <g id="SPLINE-33" data-name="SPLINE">
        <path class="cls-3" d="M75.02,100.24c.33.42.28.95-.12,1.25-.16.13-.46.09-.59-.07-.14-.16-.29-.3-.43-.46-.04-.05-.1-.17-.08-.19.05-.06.16-.13.21-.11.43.2.67-.02.87-.36.02-.04.09-.04.13-.06Z"/>
      </g>
      <g id="LWPOLYLINE-2" data-name="LWPOLYLINE">
        <polygon class="cls-3" points="58.92 54.97 48.07 58.92 69.77 58.92 58.92 54.97"/>
      </g>
      <g id="LWPOLYLINE-3" data-name="LWPOLYLINE">
        <polygon class="cls-3" points="64.47 76.23 64.47 79.83 60.37 79.83 60.37 76.23 57.48 76.23 57.48 79.83 53.38 79.83 53.38 76.23 50.49 76.23 50.49 79.83 48.13 79.83 48.13 74.65 69.72 74.65 69.72 79.83 67.36 79.83 67.36 76.23 64.47 76.23"/>
      </g>
      <g id="LWPOLYLINE-4" data-name="LWPOLYLINE">
        <rect class="cls-3" x="48.13" y="59.86" width="21.59" height="1.84"/>
      </g>
      <path class="cls-3" d="M69.72,70.04v-7.41h-21.59v7.41h-.98v.91h23.55v-.91h-.98ZM54.68,70.03h-4.28v-5.89h4.28v5.89ZM61.06,70.03h-4.28v-5.89h4.28v5.89ZM67.45,70.03h-4.28v-5.89h4.28v5.89Z"/>
      <g>
        <g>
          <path class="cls-4" d="M73.2,32.55c-.16,0-.46.44-.51.54-.04.09-.1.21-.14.29-.07.16-.14.29-.21.44-.09.18-.23.35-.31.53-.15.33-.01.56.36.57.36,0,.68-.32.83-.63.01-.03.02-.05.04-.08.11-.28.12-.41.09-.7-.02-.3-.23-.49-.14-.96Z"/>
          <path class="cls-4" d="M81.7,31.8c-.05-.1-.12-.18-.17-.23-.17-.17-.37-.27-.63-.29-.24-.02-.52-.03-.77-.02-.17.01-.28,0-.39,0,0,0,.13-1.12.14-1.2.01-.16,0-.32.02-.49.05-.42.09-.83.12-1.25,0-.13-.02-.25,0-.38,0-.12.02-.23.02-.35-.01-.24-.13-.42-.32-.57-.24-.19-.6-.04-.92.08-.39.15-.8.5-1.04.86-.11.17-.27.38-.42.5-.23.19-.28-.13-.27-.29.02-.23,0-.5.04-.76,0-.08.03-.33.09-.41.1-.14.47-.27.6-.32.13-.05.24-.14.36-.19.14-.05.41-.06.52-.15.23-.21-.78-.39-.78-.18-.07.02-.2.13-.26.17-.09.06-.21.12-.31.17-.05-.14.05-.32.03-.47,0-.09-.01-.16-.08-.27-.19-.3-.47-.13-.63-.13,0,.07.17.07,0,.06.25.12.06.68.04.89-.02.2-.03.29-.03.48,0,.15-.05.37-.07.53-.02.17,0,.5,0,.73,0,.13-.02.33.04.43.11.17.27.26.21.5-.16.66-.43,1.36-.29,2.04.02.1.04.22.09.32.04.06.19.14.15.22-.03.06-.15.03-.2.04-.16.02-.29.09-.46.13.04,0,.07-.67.07-.72,0-.12.13-.89-.08-.81,0,.09-.02.41-.16.41-.04,0-.33-.78-.36-.87-.09-.32-.12-.65.05-.95.09-.16.24-.35.19-.54-.02-.08-.17-.33-.28-.33-.16.01-.21.4-.23.52-.13.59-.17,1.2-.11,1.8.03.29.08.59.15.87.01.05.22.79.21.79-.02,0-.02-.01-.02-.03-.15,0-.42.15-.56.2,0-.09.08-.18.09-.28.02-.12-.05-.34-.05-.45-.03-.38-.07-.92-.08-1.43-.01-.41-.29-.63-.64-.8-.07-.04-.24-.16-.32-.11-.07.04,0,.24-.06.24.12.2.22.29.26.49.02.11.07.34.09.49.05.42.08.91.13,1.3.04.28.09.47.15.75-.09,0-.18.2-.32.15,0,.03-.02,0-.02.03.41.07.74.02,1.11-.05.16-.03.34-.15.47-.06.04.03.14.26.19.27.17.04.09-.36.14-.44.08-.12.35-.15.47-.17.11-.02.22-.04.33-.06.15-.02.17,0,.3.08.02,0,.03.02.05.01.03,0,.04-.03.06-.05.07-.11.08-.13.21-.16.15-.03.29-.06.44-.08.08-.01.16-.01.23-.03.05,0,.1-.04.15-.03.16.04.08.32.12.44.05.15.19.32.34.38.17.06.34-.08.43-.22.09-.15.14-.31.18-.48.03-.12.11-.25.12-.36.25.04.51-.04.76-.03.05,0,.18-.02.26,0,.24.06.12.04.05.15-.1.16-.22.24-.35.38-.22.24-.43.48-.68.68-.12.1-.25.19-.38.29-.07.05-.13.11-.19.16-.04.04-.1.15-.13.17-.08.05-.22-.04-.35-.03-.16.01-.3.09-.45.14-.41.14-.79.34-1.15.53-.2.11-.55.43-.39.71.18.32.37,0,.54-.1.11-.07.23-.11.38-.17.13-.05.42-.24.56-.24-.09.52-.5.84-.69,1.28-.08.19-.05.42.06.59.11.16.33.35.21.56-.12.22-.4.2-.61.23-.24.04-.66.1-.86.23-.89.56-.38,2.04.56,2.21.45.08.93-.08,1.27-.37.25-.22.46-.5.58-.82.08-.21.13-.46.15-.69,0-.08-.01-.16.04-.22.09-.1.27-.09.39-.09.28.01.56,0,.84.07.34.07.64.26.98.33.02,0,.03,0,.05,0,.03-.02.02-.06,0-.09-.05-.11-.1-.22-.16-.34-.08-.17-.13-.34-.28-.44-.2-.14-.5-.11-.73-.1-.28.01-.57-.04-.86,0-.17.02-.25-.01-.28-.21-.02-.15.03-.35-.06-.48-.11-.15-.32-.14-.45-.16-.2-.02-.43-.03-.58-.03.01-.25.15-.41.31-.6.08-.1.51-.5.49-.58.08.03.45-.47.46-.49.05-.06.22-.21.23-.26.01-.07-.06-.29-.19-.29.05-.17.37-.26.49-.31,0,.06.07,0,.09,0,.26,0,.68-.23.89-.34.27-.14.46-.32.71-.47.14-.08.27-.18.4-.25.24-.15.29-.23.17-.48ZM77.55,30.61c-.02.15-.04.45-.14.59-.17.24-.32.03-.42-.13-.15-.22-.14-.43-.1-.76.02-.18.09-1.19.32-1.19,0-.11.19.08.21.12.05.09.03.21.05.32.03.26.07.55.09.84,0,.04,0,.15,0,.21ZM78.98,32.06s-.56-.17-.6-.15c.06-.12.54-.09.66-.11,0,.01,0,.27-.06.26ZM79.16,31.21c0,.18-.18.2-.32.22-.2.03-.39.08-.59.12-.05.01-.48.08-.49.11.08-.35.15-.69.18-1.05.02-.21.02-.52.02-.75,0-.11-.06-.38,0-.45-.03.01-.04,0-.03-.03,0,0,.16-.03.17-.03.07,0,.11,0,.16.05.09.08.14.2.15.32.01.16-.03.32-.05.48-.02.16,0,.33.11.45.09.1.23.14.34.2.15.08.26.15.44.15-.07,0-.12.14-.12.2ZM79.4,28.86c-.02.19-.03.3-.05.5-.02.28-.07.55-.12.83-.01.07,0,.18-.07.22-.07.03-.23-.02-.28-.08-.18-.19-.02-.54.09-.71.12-.18.29-.41.07-.59-.35-.3-.76.26-1.15.29,0-.03-.08-.32-.05-.31-.14,0-.21-.4-.38-.38.03-.27.44-.47.65-.61.09-.06.59-.29.59-.37.33-.03.62-.27.73.31.05.25-.03.69-.05.9ZM77.91,37.7c-.04.32-.07.61-.26.89-.1.14-.23.27-.38.35-.12.06-.33.14-.47.12-.2-.03-.38-.08-.53-.22-.23-.21-.31-.58-.17-.87.13-.28.42-.42.7-.51.2-.06.41-.09.62-.11.12-.01.25-.06.37-.03.2.04.13.17.11.33,0,.02,0,.03,0,.05Z"/>
        </g>
        <g>
          <path class="cls-4" d="M41.1,33.97c.07-.05.27-.05.28-.17,0-.17-.64-.39-.81-.37-.17.01-.45.22-.62.12-.16-.09-.1-.51-.08-.66.02-.13.09-.19.21-.2.16-.01.32-.05.49-.06.12-.01.26-.01.32-.14.03-.07-.07-.32-.11-.37-.13-.17-.22-.05-.39,0-.15.04-.38.12-.43-.04-.06-.18-.03-.47-.03-.66,0-.22.22-.19.41-.23.57-.12,1.15-.23,1.72-.33.14-.02.28-.04.42-.06.1-.02.15-.05.12.08-.05.19-.17.35-.25.52-.11.24-.26.4-.42.64-.19.27-.4.57-.66.83-.06.06-.17.21-.26.23-.1.03-.23-.01-.33.04-.16.08.06.15.13.18.2.07.44.18.67.09.23-.09.46-.28.65-.44.37-.31.71-.65,1.02-1.01.15-.18.29-.37.43-.56.06-.09.11-.14.19-.2.06-.05.1-.08.12-.16.04-.18-.09-.28-.19-.4-.11-.15-.1-.39-.29-.5-.12-.07-.29-.06-.42-.04-.16.03-2.35.49-2.65.57-.19.05-.31.09-.34-.16-.03-.22-.05-.41,0-.62.05-.18.09-.15.26-.15.11,0,.22,0,.33-.02.22-.03-.36-.65-.39-.73-.09-.18,0-.42-.03-.61-.04-.27,0-.58.06-.85.04-.16.04-.33.02-.49-.01-.08-.03-.17-.07-.24-.09-.15-.27-.24-.44-.26-.04,0-.08,0-.13,0-.17,0-.34.05-.51.08-.15.02-.36.02-.47.15-.12.13.1.29.19.35.06.04.14.08.18.14s.05.18.07.26c.09.46.06.92.05,1.38,0,.25-.06.25-.27.31-.5.15-1.04.25-1.57.25-.03,0-.29.02-.29.03.05.14.34.31.45.38.13.09.29.16.47.22.28.09.3.06.61-.03.25-.08.4-.1.59-.1.02,0,0,.63,0,.68-.01.32-.11.31-.42.38-.28.06-.56.12-.84.18-.17.04-.31.1-.49.15-.17.05-.5.21-.79.2,0,.02.42.21.48.23.15.07.31.1.43.09.24-.02.52-.13.77-.18.17-.04.59-.24.75-.2.18.05.11.4.09.55-.01.1,0,.29-.06.37-.09.14-.37.15-.52.19-.26.08-1.36.33-1.36.57,0,.02.36.06.39.07.08.01.16.04.24.05.11.02.22-.02.33-.05.19-.06.39-.1.59-.13.15-.02.33-.11.38.07.02.1,0,.18,0,.27,0,.17-.02.31-.05.47,0,.02-.03.04-.05.04-.09,0-.18,0-.27.01-.09.02-.22.02-.29.07-.17.07-.33.17-.5.26-.11.06-.35.22-.45.07-.04-.05-.04-.12-.05-.18-.04-.38-.22-.74-.4-1.08-.04-.08-.08-.15-.13-.22-.05-.07-.07-.14-.13-.2-.07-.06-.15-.1-.24-.13-.2-.07-.42-.08-.63-.1-.09,0-.39-.03-.39.11,0,.09.12.19.18.26.09.11.18.22.25.34.09.18.22.41.32.59.1.17.25.43.42.53.05.03.11.03.16.05.04.02.09.04.12.07.02.02.04.05.05.07.01.02.05.04.05.06,0,.04-.08.06-.11.06-.08.02-.05.1,0,.12.17.08.42.02.59-.02l.42-.09c.12-.03.25-.05.37-.09.1-.03.21-.07.31-.1.09-.03.19-.06.28-.09.04-.01.08-.03.11-.05.08.15.03.4.04.57,0,.23-.29.47-.43.64-.18.21-.36.41-.55.61-.37.39-.76.77-1.16,1.14-.16.15-.33.3-.51.45-.09.07-.17.14-.26.21-.02.01-.19.15-.18.16-.07-.02-.08.04-.02.07.03.01.1-.02.15-.02.17,0,.34-.1.49-.17.17-.09.35-.17.52-.26.34-.17.65-.39.94-.63.28-.23.55-.45.8-.71.04-.04.09-.15.14-.07.03.04,0,.13,0,.17,0,.15,0,.29.01.44,0,.28.02.57.02.85,0,.06.03.34,0,.45-.07.29-.53.19-.74.17-.2-.02-.37-.1-.58-.08-.18.02.06.22.1.27.24.27.63.5.96.63.2.08.5.3.73.22.09-.03.15-.12.17-.21.02-.1.05-.21.06-.31.01-.14.04-.27.04-.4.02-.46.03-.92.04-1.38,0-.45-.03-.9-.03-1.35,0-.21,0-.37.14-.53.11-.13.26-.22.37-.36.15-.18.31-.36.47-.52.12-.12.23-.27.35-.36Z"/>
          <path class="cls-4" d="M44.2,37.41c-.05-.15-.11-.31-.24-.41-.29-.24-.68-.34-1.03-.45-.41-.13-.82-.23-1.24-.31-.09-.02-.18-.03-.27-.04-.07,0-.7-.06-.71-.11.05.27.52.57.76.66.33.13.6.29.9.41.1.04.54.15.59.24.2.35-.72.66-.83.94.07.02.14,0,.21,0,.22-.05.43-.07.65-.14.37-.13.76-.27,1.12-.43.19-.08.16-.17.11-.35Z"/>
        </g>
        <g>
          <path class="cls-4" d="M50.13,34.94s.03,0,.05,0c.04-.01.1-.09.13-.12.08-.07.15-.13.22-.21.19-.21.37-.44.54-.66.06-.08.42-.51.12-.47-.28.03-.54.2-.75.38-.17.14-.38.32-.62.3-.06,0-.28.02-.22-.09.11-.18.28-.35.4-.53.14-.21.27-.43.38-.66.15-.32.29-.65.39-.99.1-.34.18-.69.28-1.03.05-.18.07-.37.12-.54.03-.08.02-.24.1-.29.09-.07.24-.05.35-.07.15-.03.3-.06.44-.08.33-.05.65-.12.97-.22.19-.06.36-.13.56-.17.16-.04.34-.18.3-.36-.03-.14-.2-.2-.3-.3-.16-.15-.14-.16-.28-.04-.04.03-.04.08-.08.13-.05.05-.03-.01-.11.03-.32.16-.66.25-1.01.33-.16.04-.4.16-.56.09-.2-.08-.15-.5-.12-.68.03-.17.23-.38.08-.54-.02-.02-.05-.03-.08-.03-.14-.02-.28-.03-.42-.03-.04,0-.23-.03-.27,0-.07.05-.02.38-.02.45,0,.18.02.37.04.55,0,.1.06.27-.01.36-.09.1-.36.1-.48.12-.38.06-.77.11-1.16.08-.36-.03-.14.37.03.48.15.1.34.12.52.11.18,0,.36-.04.54-.06.18-.02.46-.12.48.12s-.09.45-.14.68c-.08.39-.16.75-.29,1.06-.2.46-.41.91-.69,1.32-.04.07-.16.16-.21.21-.09.09-.07.14-.19.2-.08.04-.19-.02-.29.04-.04.02-.07.07-.11.1.01.04.06.05.1.06.14.04.25.16.35.27.27.3.53.64.95.73Z"/>
          <path class="cls-4" d="M56.97,31.82s-.02-.04-.04-.06c-.13-.17-.31-.37-.48-.49-.16-.11-.34-.03-.5.03-.36.13-.72.18-1.08.28l-1.24.34c-.33.09-.66.15-.99.22-.15.04-.42.09-.54.2-.24.23.12.25.35.3.43.09.82.04,1.25-.04.29-.05,2.15-.64,2.21-.3.01.06-.02.16-.03.22,0,.12,0,.25,0,.37,0,.24-.02.48-.05.72-.05.48-.12.96-.22,1.43-.04.21-.09.42-.13.62-.09.41-.19.82-.37,1.19-.06.14-.14.27-.25.37-.13.12-.29.11-.46.12-.16,0-.32.02-.49.01-.1,0-.2,0-.3-.02-.09,0-.17-.03-.26-.01-.03,0-.11,0-.13.04-.01.04.04.08.07.1.15.14.34.22.49.36.29.26.55.55.82.8.08.08.14.22.24.26.32.15.79-.74.9-.95.69-1.24.85-2.81,1.02-4.19.08-.61.06-1.25.19-1.85,0-.03.01-.07,0-.1Z"/>
          <path class="cls-4" d="M52.1,34.79c.32-.2.69-.3,1.05-.41.06-.02.2-.06.17-.14-.02-.07-.18-.08-.24-.09-.19-.03-.36-.04-.54,0-.11.03-.21.11-.32.14-.14.05-.38.19-.53.13-.12-.05-.02-.11.03-.16.09-.08.19-.16.25-.26.14-.22.34-.45.44-.65.18-.36-.39-.45-.68-.45-.04-.02,0,.11,0,.2,0,.15-.11.26-.16.41-.11.28-.23.47-.38.72-.07.11-.16.26-.25.39-.19.32-.66.45-1,.53-.15.03-.32.02-.45.11-.19.13.04.29.16.35.15.08.33.12.5.12.24,0,.44-.14.61-.3.14-.13.35-.16.43.06.08.22.02.46.02.65-.12-.04-.33.13-.44.17-.17.07-.34.15-.51.21-.21.07-.39.18-.59.26-.15.06-.04.15.06.2.22.11.55.06.78,0,.19-.05.37-.16.57-.2.03,0,.06-.01.08,0,.12.02.04.21.04.29,0,.13-.01.32-.02.42-.01.46-.08.9-.16,1.35-.03.19-.08.36-.12.54-.05.2.16.2.29.12.17-.1.23-.39.29-.56.09-.25.18-.5.25-.75.13-.48.22-.99.2-1.49-.01-.2-.08-.39.17-.45.17-.05.33-.11.49-.17.04-.01.08-.03.12-.04.05-.01.09-.02.13-.04.26-.14-.18-.41-.31-.43-.2-.03-.3.09-.45.18-.19.11-.18.11-.21-.08-.05-.31-.09-.69.22-.88Z"/>
          <path class="cls-4" d="M48.11,35.97c-.04-.26-.05-.52-.05-.78,0-.19,0-.38,0-.57,0-.14.04-.3-.02-.43-.03-.06-.09-.11-.14-.15-.07-.06-.11-.13-.17-.2-.05-.06-.11-.11-.16-.17-.02-.03-.06-.06-.09-.06-.02,0-.03,0-.05.01-.03.02-.03.07-.02.11.02.09,0,.18,0,.26,0,.18,0,.36-.04.53-.05.28-.12.55-.18.82-.02.07-.03.13-.05.2-.1.41-.08.84.14,1.21.14.23.4.65.7.7.51.09.34-.72.25-.99-.06-.17-.1-.34-.12-.51Z"/>
        </g>
        <path class="cls-4" d="M66.78,33.12c.33-.14.67-.3,1.01-.41.14-.05.29-.09.43-.1.11-.01.28.04.36-.03.26-.24-.19-.89-.35-1.07-.21-.25-.35-.17-.59-.02-.2.12-.38.26-.59.37-.31.15-.62.27-.94.4-.22.09-.41.14-.64.2-.19.05-.38.09-.58.13-.34.07-.47.14-.51-.25-.05-.5-.06-1-.06-1.5,0-.2,0-.4,0-.59,0-.49-.05-.98-.05-1.47,0-.09.03-.24.05-.33.06-.27.17-.3-.11-.44-.22-.11-.35-.04-.56.04-.03.02-.02.77-.02.84-.02.5.06,1,.02,1.49-.05.57-.02,1.15-.04,1.72,0,.19.06.51-.07.68-.12.14-.38.08-.54.09-.27.03-.53.04-.8.03-.27,0-.53.05-.8.05-.04,0-.08,0-.12,0l.03.11c.28.19.6.35.91.47.33.12.68.21,1.03.26.09.01.24,0,.29.1.06.12-.03.25-.06.37-.07.34-.14.68-.24,1.01-.09.29-.18.57-.29.85-.1.26-.3.5-.46.73-.37.55-.87.96-1.53,1.11-.06.01-.13.03-.17.08-.04.05-.03.13,0,.19.03.06.09.1.15.12.11.05.24.07.36.09.65.1,1.45.27,1.99-.2.11-.1.35-.34.39-.48.24-.95.4-1.91.49-2.89.02-.24.04-.49.05-.73,0-.08-.02-.22.05-.27.09-.07.27-.02.36-.02.37,0,.74-.09,1.07-.25.15-.08.28-.17.44-.23.21-.08.41-.18.62-.26Z"/>
        <path class="cls-4" d="M68.33,37.22c-.09-.13-.18-.25-.26-.36-.4-.53-.96-.94-1.6-1.13-.06-.02-.49-.07-.51-.11,0,0,.18.1.06.1.09.16.22.31.32.46.12.18.23.37.34.55.14.24.28.51.36.78.08.24.11.5.24.73.14.26.44.44.72.47.2.02.68.2.76-.12.05-.17-.03-.48-.08-.65-.07-.26-.21-.5-.36-.73Z"/>
        <path class="cls-4" d="M61.08,33.16c.11-.1.04-.25-.06-.32-.11-.07-.24-.1-.37-.12-.09-.02-.18.02-.24.09-.03.04-.04.08-.08.11-.04.02-.11.02-.13.07,0,.03.02.07.05.09.1.07.21.06.32.08.09.01.18.02.27.02.07,0,.18.03.24-.02Z"/>
      </g>
      <path class="cls-3" d="M58.92,0C26.38,0,0,26.38,0,58.92s26.38,58.92,58.92,58.92,58.92-26.38,58.92-58.92S91.47,0,58.92,0ZM58.92,115.64c-31.32,0-56.71-25.39-56.71-56.71S27.6,2.21,58.92,2.21s56.71,25.39,56.71,56.71-25.39,56.71-56.71,56.71Z"/>
    </g>
  </g>
</svg>